<svg width="224" height="165" viewBox="0 0 224 165" fill="none" xmlns="http://www.w3.org/2000/svg">
<path d="M91.2358 23.2819C91.2358 23.2819 74.8993 28.101 64.3215 22.3424L27.2992 2.18711C18.837 -2.41981 7.40143 0.953596 2.79451 9.41584C-1.81241 17.8781 1.561 29.3136 10.0232 33.9205L47.0456 54.0758C57.6234 59.8345 62.4426 76.1709 62.4426 76.1709L91.2358 23.2819ZM96.055 39.6183L78.779 71.3518C78.779 71.3518 49.9858 124.241 102.875 153.034C155.764 181.827 199.954 151.033 214.351 124.589C228.747 98.1444 230.626 44.3158 177.737 15.5226C124.848 -13.2707 96.055 39.6183 96.055 39.6183Z" fill="#333333"/>
</svg>
