<svg width="727" height="516" viewBox="0 0 727 516" fill="none" xmlns="http://www.w3.org/2000/svg">
<path d="M48.6136 412.937V141.413H109.084V412.937H48.6136ZM5.13802 272.234V220.854H274.291V272.234H5.13802ZM170.345 412.937V141.413H230.816V412.937H170.345ZM300.784 412.937V220.854H361.255V412.937H300.784ZM331.217 194.374C321.731 194.374 313.827 191.212 307.503 184.888C301.443 178.301 298.413 170.396 298.413 161.174C298.413 151.689 301.443 143.784 307.503 137.46C313.827 131.137 321.731 127.975 331.217 127.975C340.703 127.975 348.475 131.137 354.536 137.46C360.596 143.784 363.626 151.689 363.626 161.174C363.626 170.396 360.596 178.301 354.536 184.888C348.475 191.212 340.703 194.374 331.217 194.374Z" fill="#333333"/>
<path d="M352.499 166.617C345.239 177.87 330.693 181.007 319.441 173.747C308.188 166.486 305.051 151.941 312.311 140.688C319.572 129.435 334.117 126.299 345.37 133.559C356.622 140.819 359.759 155.365 352.499 166.617ZM404.099 68.9994C404.099 68.9994 390.875 71.8512 382.838 66.6653L354.706 48.515C348.276 44.3663 339.02 46.3625 334.871 52.7926C330.722 59.2226 332.719 68.479 339.149 72.6276L367.28 90.778C375.318 95.9638 378.169 109.187 378.169 109.187L404.099 68.9994ZM406.95 82.2228L391.393 106.335C391.393 106.335 365.464 146.523 405.651 172.452C445.839 198.381 482.658 176.603 495.622 156.509C508.587 136.415 513.255 93.8932 473.067 67.9641C432.879 42.035 406.95 82.2228 406.95 82.2228Z" fill="#333333"/>
<path d="M379.91 264.5V259.651H390.792C393.686 259.651 396.224 259.031 398.404 257.79C400.584 256.512 402.275 254.764 403.478 252.547C404.719 250.329 405.339 247.773 405.339 244.879C405.339 242.022 404.719 239.485 403.478 237.267C402.238 235.049 400.527 233.32 398.347 232.08C396.167 230.84 393.649 230.219 390.792 230.219H379.967V225.37H390.905C393.762 225.37 396.393 225.859 398.798 226.836C401.242 227.814 403.347 229.186 405.113 230.952C406.917 232.719 408.308 234.786 409.285 237.154C410.3 239.522 410.808 242.116 410.808 244.935C410.808 247.717 410.3 250.31 409.285 252.716C408.308 255.084 406.936 257.151 405.17 258.918C403.403 260.685 401.298 262.057 398.855 263.034C396.449 264.011 393.837 264.5 391.018 264.5H379.91ZM376.415 264.5V225.37H381.715V264.5H376.415ZM429.484 265.064C426.852 265.064 424.484 264.443 422.379 263.203C420.274 261.963 418.602 260.29 417.361 258.185C416.121 256.042 415.501 253.656 415.501 251.024C415.501 248.431 416.121 246.1 417.361 244.033C418.602 241.928 420.274 240.255 422.379 239.015C424.484 237.775 426.852 237.154 429.484 237.154C432.077 237.154 434.426 237.775 436.531 239.015C438.674 240.218 440.365 241.872 441.606 243.977C442.846 246.082 443.466 248.431 443.466 251.024C443.466 253.656 442.846 256.042 441.606 258.185C440.365 260.29 438.674 261.963 436.531 263.203C434.426 264.443 432.077 265.064 429.484 265.064ZM429.484 260.158C431.175 260.158 432.679 259.764 433.994 258.974C435.31 258.185 436.343 257.114 437.095 255.76C437.847 254.37 438.223 252.791 438.223 251.024C438.223 249.295 437.828 247.754 437.039 246.401C436.287 245.048 435.253 243.995 433.938 243.244C432.66 242.454 431.175 242.06 429.484 242.06C427.792 242.06 426.289 242.454 424.973 243.244C423.657 243.995 422.624 245.048 421.872 246.401C421.12 247.754 420.744 249.295 420.744 251.024C420.744 252.791 421.12 254.37 421.872 255.76C422.624 257.114 423.657 258.185 424.973 258.974C426.289 259.764 427.792 260.158 429.484 260.158ZM461.419 265.064C458.788 265.064 456.401 264.443 454.258 263.203C452.153 261.963 450.481 260.29 449.24 258.185C448.037 256.042 447.436 253.674 447.436 251.081C447.436 248.45 448.037 246.082 449.24 243.977C450.481 241.872 452.153 240.218 454.258 239.015C456.401 237.775 458.788 237.154 461.419 237.154C463.486 237.154 465.403 237.549 467.17 238.338C468.936 239.09 470.459 240.199 471.737 241.665L468.354 245.048C467.527 244.071 466.512 243.338 465.309 242.849C464.144 242.323 462.847 242.06 461.419 242.06C459.727 242.06 458.224 242.454 456.908 243.244C455.593 243.995 454.559 245.048 453.807 246.401C453.055 247.754 452.68 249.314 452.68 251.081C452.68 252.847 453.055 254.407 453.807 255.76C454.559 257.114 455.593 258.185 456.908 258.974C458.224 259.764 459.727 260.158 461.419 260.158C462.847 260.158 464.144 259.914 465.309 259.425C466.512 258.899 467.546 258.147 468.41 257.17L471.737 260.553C470.496 261.981 468.974 263.09 467.17 263.88C465.403 264.669 463.486 265.064 461.419 265.064ZM487.538 265.064C485.358 265.064 483.385 264.575 481.618 263.598C479.889 262.583 478.536 261.192 477.559 259.425C476.581 257.659 476.093 255.61 476.093 253.28V237.718H481.167V253.054C481.167 254.52 481.412 255.798 481.9 256.888C482.426 257.941 483.178 258.749 484.155 259.313C485.133 259.876 486.279 260.158 487.595 260.158C489.587 260.158 491.147 259.538 492.275 258.298C493.402 257.02 493.966 255.272 493.966 253.054V237.718H499.04V253.28C499.04 255.61 498.552 257.659 497.574 259.425C496.597 261.192 495.244 262.583 493.515 263.598C491.823 264.575 489.831 265.064 487.538 265.064ZM505.842 264.5V237.718H510.916V264.5H505.842ZM523.94 264.5V248.318C523.94 246.326 523.32 244.766 522.08 243.638C520.877 242.473 519.354 241.89 517.513 241.89C516.272 241.89 515.163 242.154 514.186 242.68C513.209 243.206 512.419 243.939 511.818 244.879C511.217 245.818 510.916 246.946 510.916 248.262L508.83 247.247C508.83 245.217 509.262 243.45 510.127 241.947C511.029 240.443 512.25 239.278 513.791 238.451C515.333 237.587 517.062 237.154 518.979 237.154C520.858 237.154 522.549 237.568 524.053 238.395C525.594 239.222 526.797 240.387 527.661 241.89C528.564 243.394 529.015 245.179 529.015 247.247V264.5H523.94ZM542.039 264.5V248.318C542.039 246.326 541.419 244.766 540.178 243.638C538.975 242.473 537.472 241.89 535.668 241.89C534.427 241.89 533.3 242.154 532.285 242.68C531.308 243.206 530.518 243.939 529.917 244.879C529.315 245.818 529.015 246.946 529.015 248.262L526.139 247.247C526.252 245.179 526.797 243.413 527.774 241.947C528.789 240.443 530.086 239.278 531.665 238.451C533.243 237.587 534.972 237.154 536.852 237.154C538.806 237.154 540.554 237.568 542.095 238.395C543.636 239.222 544.858 240.387 545.76 241.89C546.7 243.394 547.17 245.198 547.17 247.303V264.5H542.039ZM566.479 265.064C563.81 265.064 561.404 264.462 559.262 263.259C557.119 262.019 555.428 260.346 554.188 258.241C552.947 256.136 552.327 253.75 552.327 251.081C552.327 248.45 552.928 246.082 554.131 243.977C555.372 241.872 557.025 240.218 559.093 239.015C561.198 237.775 563.547 237.154 566.141 237.154C568.621 237.154 570.802 237.718 572.681 238.846C574.598 239.973 576.083 241.533 577.135 243.526C578.225 245.518 578.77 247.773 578.77 250.291C578.77 250.667 578.751 251.081 578.714 251.532C578.676 251.945 578.601 252.434 578.488 252.998H555.879V248.769H575.782L573.921 250.404C573.921 248.6 573.602 247.078 572.963 245.837C572.324 244.559 571.422 243.582 570.257 242.905C569.091 242.191 567.682 241.834 566.028 241.834C564.299 241.834 562.776 242.21 561.461 242.962C560.145 243.713 559.13 244.766 558.416 246.119C557.702 247.472 557.345 249.07 557.345 250.912C557.345 252.791 557.721 254.445 558.473 255.873C559.224 257.264 560.296 258.354 561.686 259.143C563.077 259.895 564.675 260.271 566.479 260.271C567.982 260.271 569.354 260.008 570.595 259.482C571.873 258.955 572.963 258.166 573.865 257.114L577.135 260.44C575.857 261.944 574.278 263.09 572.399 263.88C570.557 264.669 568.584 265.064 566.479 265.064ZM603.248 264.5V248.882C603.248 246.852 602.609 245.179 601.331 243.864C600.053 242.548 598.399 241.89 596.369 241.89C595.016 241.89 593.813 242.191 592.761 242.793C591.708 243.394 590.881 244.221 590.28 245.273C589.678 246.326 589.378 247.529 589.378 248.882L587.291 247.698C587.291 245.668 587.743 243.864 588.645 242.285C589.547 240.706 590.806 239.466 592.422 238.564C594.039 237.624 595.862 237.154 597.891 237.154C599.921 237.154 601.707 237.662 603.248 238.677C604.826 239.692 606.067 241.026 606.969 242.68C607.871 244.296 608.322 246.025 608.322 247.867V264.5H603.248ZM584.303 264.5V237.718H589.378V264.5H584.303ZM618.978 264.5V226.498H624.052V264.5H618.978ZM612.381 242.342V237.718H630.649V242.342H612.381ZM635.676 264.5V237.718H640.751V264.5H635.676ZM638.213 232.362C637.274 232.362 636.503 232.061 635.902 231.46C635.3 230.821 635 230.031 635 229.092C635 228.19 635.3 227.438 635.902 226.836C636.503 226.197 637.274 225.878 638.213 225.878C639.153 225.878 639.924 226.197 640.525 226.836C641.127 227.438 641.427 228.19 641.427 229.092C641.427 230.031 641.127 230.821 640.525 231.46C639.924 232.061 639.153 232.362 638.213 232.362ZM667.173 264.5V248.882C667.173 246.852 666.534 245.179 665.256 243.864C663.978 242.548 662.324 241.89 660.295 241.89C658.941 241.89 657.739 242.191 656.686 242.793C655.634 243.394 654.807 244.221 654.205 245.273C653.604 246.326 653.303 247.529 653.303 248.882L651.217 247.698C651.217 245.668 651.668 243.864 652.57 242.285C653.472 240.706 654.732 239.466 656.348 238.564C657.964 237.624 659.787 237.154 661.817 237.154C663.847 237.154 665.632 237.662 667.173 238.677C668.752 239.692 669.992 241.026 670.895 242.68C671.797 244.296 672.248 246.025 672.248 247.867V264.5H667.173ZM648.229 264.5V237.718H653.303V264.5H648.229ZM690.225 276.284C687.481 276.284 685.038 275.776 682.896 274.761C680.791 273.746 679.099 272.318 677.821 270.476L681.091 267.15C682.181 268.54 683.478 269.593 684.982 270.307C686.485 271.059 688.271 271.435 690.338 271.435C693.082 271.435 695.243 270.702 696.822 269.236C698.438 267.808 699.246 265.872 699.246 263.428V256.775L700.149 250.742L699.246 244.766V237.718H704.321V263.428C704.321 265.984 703.719 268.221 702.517 270.138C701.351 272.055 699.697 273.559 697.555 274.649C695.45 275.739 693.007 276.284 690.225 276.284ZM690.225 264.049C687.782 264.049 685.583 263.466 683.629 262.301C681.712 261.136 680.189 259.538 679.062 257.508C677.934 255.441 677.37 253.129 677.37 250.573C677.37 248.017 677.934 245.743 679.062 243.751C680.189 241.721 681.712 240.124 683.629 238.959C685.583 237.756 687.782 237.154 690.225 237.154C692.33 237.154 694.191 237.568 695.807 238.395C697.423 239.222 698.701 240.387 699.641 241.89C700.618 243.356 701.145 245.085 701.22 247.078V254.182C701.107 256.136 700.562 257.865 699.585 259.369C698.645 260.835 697.367 261.981 695.751 262.808C694.134 263.635 692.293 264.049 690.225 264.049ZM691.24 259.256C692.894 259.256 694.341 258.899 695.582 258.185C696.86 257.471 697.837 256.475 698.513 255.197C699.19 253.881 699.528 252.359 699.528 250.63C699.528 248.901 699.171 247.397 698.457 246.119C697.781 244.804 696.822 243.789 695.582 243.074C694.341 242.323 692.875 241.947 691.184 241.947C689.492 241.947 688.008 242.323 686.73 243.074C685.452 243.789 684.437 244.804 683.685 246.119C682.971 247.397 682.614 248.882 682.614 250.573C682.614 252.265 682.971 253.768 683.685 255.084C684.437 256.399 685.452 257.433 686.73 258.185C688.045 258.899 689.549 259.256 691.24 259.256ZM376.415 335.5V296.37H381.715V335.5H376.415ZM402.284 336.064C399.652 336.064 397.265 335.443 395.123 334.203C393.018 332.963 391.345 331.29 390.105 329.185C388.902 327.042 388.301 324.674 388.301 322.081C388.301 319.45 388.902 317.082 390.105 314.977C391.345 312.872 393.018 311.218 395.123 310.015C397.265 308.775 399.652 308.154 402.284 308.154C404.351 308.154 406.268 308.549 408.035 309.338C409.801 310.09 411.323 311.199 412.601 312.665L409.219 316.048C408.392 315.071 407.377 314.338 406.174 313.849C405.009 313.323 403.712 313.06 402.284 313.06C400.592 313.06 399.089 313.454 397.773 314.244C396.457 314.995 395.424 316.048 394.672 317.401C393.92 318.754 393.544 320.314 393.544 322.081C393.544 323.847 393.92 325.407 394.672 326.76C395.424 328.114 396.457 329.185 397.773 329.974C399.089 330.764 400.592 331.158 402.284 331.158C403.712 331.158 405.009 330.914 406.174 330.425C407.377 329.899 408.41 329.147 409.275 328.17L412.601 331.553C411.361 332.981 409.839 334.09 408.035 334.88C406.268 335.669 404.351 336.064 402.284 336.064ZM429.488 336.064C426.819 336.064 424.413 335.462 422.271 334.259C420.128 333.019 418.437 331.346 417.196 329.241C415.956 327.136 415.336 324.75 415.336 322.081C415.336 319.45 415.937 317.082 417.14 314.977C418.38 312.872 420.034 311.218 422.101 310.015C424.206 308.775 426.556 308.154 429.149 308.154C431.63 308.154 433.81 308.718 435.69 309.846C437.607 310.973 439.091 312.533 440.144 314.526C441.234 316.518 441.779 318.773 441.779 321.291C441.779 321.667 441.76 322.081 441.722 322.532C441.685 322.945 441.61 323.434 441.497 323.998H418.888V319.769H438.791L436.93 321.404C436.93 319.6 436.61 318.078 435.971 316.837C435.332 315.559 434.43 314.582 433.265 313.905C432.1 313.191 430.69 312.834 429.036 312.834C427.307 312.834 425.785 313.21 424.47 313.962C423.154 314.713 422.139 315.766 421.425 317.119C420.711 318.472 420.354 320.07 420.354 321.912C420.354 323.791 420.729 325.445 421.481 326.873C422.233 328.264 423.304 329.354 424.695 330.143C426.086 330.895 427.683 331.271 429.488 331.271C430.991 331.271 432.363 331.008 433.603 330.482C434.881 329.955 435.971 329.166 436.874 328.114L440.144 331.44C438.866 332.944 437.287 334.09 435.408 334.88C433.566 335.669 431.592 336.064 429.488 336.064ZM447.312 335.5V295.243H452.386V335.5H447.312ZM471.2 336.064C468.757 336.064 466.539 335.462 464.547 334.259C462.555 333.019 460.976 331.346 459.811 329.241C458.683 327.136 458.119 324.768 458.119 322.137C458.119 319.506 458.683 317.138 459.811 315.033C460.976 312.928 462.536 311.255 464.49 310.015C466.483 308.775 468.719 308.154 471.2 308.154C473.23 308.154 475.034 308.587 476.613 309.451C478.229 310.278 479.526 311.443 480.503 312.947C481.48 314.413 482.025 316.123 482.138 318.078V326.14C482.025 328.057 481.48 329.768 480.503 331.271C479.563 332.775 478.285 333.959 476.669 334.823C475.09 335.65 473.267 336.064 471.2 336.064ZM472.046 331.271C474.564 331.271 476.594 330.425 478.135 328.734C479.676 327.005 480.447 324.806 480.447 322.137C480.447 320.295 480.089 318.698 479.375 317.345C478.699 315.954 477.721 314.883 476.443 314.131C475.165 313.342 473.681 312.947 471.989 312.947C470.298 312.947 468.794 313.342 467.479 314.131C466.201 314.92 465.186 316.01 464.434 317.401C463.72 318.754 463.363 320.314 463.363 322.081C463.363 323.885 463.72 325.483 464.434 326.873C465.186 328.226 466.219 329.298 467.535 330.087C468.851 330.876 470.354 331.271 472.046 331.271ZM480.108 335.5V328.283L481.067 321.742L480.108 315.259V308.718H485.239V335.5H480.108ZM511.571 335.5V319.882C511.571 317.852 510.932 316.179 509.654 314.864C508.376 313.548 506.722 312.89 504.693 312.89C503.34 312.89 502.137 313.191 501.084 313.793C500.032 314.394 499.205 315.221 498.603 316.273C498.002 317.326 497.701 318.529 497.701 319.882L495.615 318.698C495.615 316.668 496.066 314.864 496.968 313.285C497.87 311.706 499.13 310.466 500.746 309.564C502.362 308.624 504.185 308.154 506.215 308.154C508.245 308.154 510.03 308.662 511.571 309.677C513.15 310.692 514.39 312.026 515.293 313.68C516.195 315.296 516.646 317.025 516.646 318.867V335.5H511.571ZM492.627 335.5V308.718H497.701V335.5H492.627ZM534.849 336.064C532.368 336.064 530.15 335.462 528.196 334.259C526.241 333.019 524.681 331.346 523.516 329.241C522.388 327.136 521.825 324.768 521.825 322.137C521.825 319.506 522.388 317.138 523.516 315.033C524.681 312.928 526.241 311.255 528.196 310.015C530.15 308.775 532.368 308.154 534.849 308.154C536.841 308.154 538.645 308.587 540.262 309.451C541.878 310.278 543.175 311.443 544.152 312.947C545.167 314.413 545.731 316.123 545.843 318.078V326.14C545.731 328.057 545.186 329.768 544.208 331.271C543.231 332.775 541.934 333.959 540.318 334.823C538.702 335.65 536.879 336.064 534.849 336.064ZM535.695 331.271C537.386 331.271 538.852 330.876 540.092 330.087C541.37 329.298 542.366 328.226 543.081 326.873C543.795 325.483 544.152 323.904 544.152 322.137C544.152 320.295 543.776 318.698 543.024 317.345C542.31 315.991 541.314 314.92 540.036 314.131C538.796 313.342 537.33 312.947 535.638 312.947C533.947 312.947 532.462 313.342 531.184 314.131C529.906 314.92 528.891 316.01 528.139 317.401C527.425 318.754 527.068 320.314 527.068 322.081C527.068 323.885 527.425 325.483 528.139 326.873C528.891 328.226 529.906 329.298 531.184 330.087C532.5 330.876 534.003 331.271 535.695 331.271ZM548.944 335.5H543.814V328.283L544.772 321.742L543.814 315.259V295.243H548.944V335.5ZM556.389 335.5V308.718H561.463V335.5H556.389ZM558.926 303.362C557.986 303.362 557.216 303.061 556.614 302.46C556.013 301.821 555.712 301.031 555.712 300.092C555.712 299.19 556.013 298.438 556.614 297.836C557.216 297.197 557.986 296.878 558.926 296.878C559.866 296.878 560.636 297.197 561.238 297.836C561.839 298.438 562.14 299.19 562.14 300.092C562.14 301.031 561.839 301.821 561.238 302.46C560.636 303.061 559.866 303.362 558.926 303.362ZM581.176 336.064C578.545 336.064 576.158 335.443 574.016 334.203C571.911 332.963 570.238 331.29 568.998 329.185C567.795 327.042 567.193 324.674 567.193 322.081C567.193 319.45 567.795 317.082 568.998 314.977C570.238 312.872 571.911 311.218 574.016 310.015C576.158 308.775 578.545 308.154 581.176 308.154C583.244 308.154 585.161 308.549 586.927 309.338C588.694 310.09 590.216 311.199 591.494 312.665L588.111 316.048C587.284 315.071 586.269 314.338 585.067 313.849C583.901 313.323 582.605 313.06 581.176 313.06C579.485 313.06 577.981 313.454 576.666 314.244C575.35 314.995 574.316 316.048 573.565 317.401C572.813 318.754 572.437 320.314 572.437 322.081C572.437 323.847 572.813 325.407 573.565 326.76C574.316 328.114 575.35 329.185 576.666 329.974C577.981 330.764 579.485 331.158 581.176 331.158C582.605 331.158 583.901 330.914 585.067 330.425C586.269 329.899 587.303 329.147 588.168 328.17L591.494 331.553C590.254 332.981 588.731 334.09 586.927 334.88C585.161 335.669 583.244 336.064 581.176 336.064ZM386.789 406.5V368.498H392.089V406.5H386.789ZM373.483 372.219V367.37H405.339V372.219H373.483ZM414.707 407.064C412.264 407.064 410.047 406.462 408.054 405.259C406.062 404.019 404.483 402.346 403.318 400.241C402.191 398.136 401.627 395.768 401.627 393.137C401.627 390.506 402.191 388.138 403.318 386.033C404.483 383.928 406.043 382.255 407.998 381.015C409.99 379.775 412.227 379.154 414.707 379.154C416.737 379.154 418.541 379.587 420.12 380.451C421.736 381.278 423.033 382.443 424.011 383.947C424.988 385.413 425.533 387.123 425.646 389.078V397.14C425.533 399.057 424.988 400.768 424.011 402.271C423.071 403.775 421.793 404.959 420.177 405.823C418.598 406.65 416.775 407.064 414.707 407.064ZM415.553 402.271C418.072 402.271 420.101 401.425 421.642 399.734C423.184 398.005 423.954 395.806 423.954 393.137C423.954 391.295 423.597 389.698 422.883 388.345C422.206 386.954 421.229 385.883 419.951 385.131C418.673 384.342 417.188 383.947 415.497 383.947C413.805 383.947 412.302 384.342 410.986 385.131C409.708 385.92 408.693 387.01 407.942 388.401C407.227 389.754 406.87 391.314 406.87 393.081C406.87 394.885 407.227 396.483 407.942 397.873C408.693 399.226 409.727 400.298 411.043 401.087C412.358 401.876 413.862 402.271 415.553 402.271ZM423.616 406.5V399.283L424.574 392.742L423.616 386.259V379.718H428.747V406.5H423.616ZM450.23 407.064C448.2 407.064 446.358 406.65 444.705 405.823C443.088 404.959 441.791 403.775 440.814 402.271C439.837 400.768 439.292 399.057 439.179 397.14V389.078C439.292 387.123 439.837 385.413 440.814 383.947C441.829 382.443 443.145 381.278 444.761 380.451C446.415 379.587 448.238 379.154 450.23 379.154C452.673 379.154 454.872 379.775 456.827 381.015C458.819 382.255 460.379 383.928 461.507 386.033C462.634 388.138 463.198 390.506 463.198 393.137C463.198 395.768 462.634 398.136 461.507 400.241C460.379 402.346 458.819 404.019 456.827 405.259C454.872 406.462 452.673 407.064 450.23 407.064ZM449.384 402.271C451.076 402.271 452.561 401.876 453.839 401.087C455.117 400.298 456.131 399.226 456.883 397.873C457.635 396.483 458.011 394.885 458.011 393.081C458.011 391.314 457.635 389.735 456.883 388.345C456.131 386.954 455.117 385.883 453.839 385.131C452.561 384.342 451.095 383.947 449.441 383.947C447.749 383.947 446.264 384.342 444.986 385.131C443.708 385.883 442.712 386.954 441.998 388.345C441.284 389.735 440.927 391.333 440.927 393.137C440.927 394.904 441.265 396.483 441.942 397.873C442.656 399.226 443.652 400.298 444.93 401.087C446.246 401.876 447.73 402.271 449.384 402.271ZM436.134 406.5V366.243H441.209V386.259L440.25 392.742L441.209 399.283V406.5H436.134ZM468.951 406.5V366.243H474.025V406.5H468.951ZM493.854 407.064C491.185 407.064 488.779 406.462 486.637 405.259C484.494 404.019 482.803 402.346 481.562 400.241C480.322 398.136 479.702 395.75 479.702 393.081C479.702 390.45 480.303 388.082 481.506 385.977C482.746 383.872 484.4 382.218 486.468 381.015C488.573 379.775 490.922 379.154 493.515 379.154C495.996 379.154 498.176 379.718 500.056 380.846C501.973 381.973 503.457 383.533 504.51 385.526C505.6 387.518 506.145 389.773 506.145 392.291C506.145 392.667 506.126 393.081 506.089 393.532C506.051 393.945 505.976 394.434 505.863 394.998H483.254V390.769H503.157L501.296 392.404C501.296 390.6 500.977 389.078 500.338 387.837C499.699 386.559 498.796 385.582 497.631 384.905C496.466 384.191 495.056 383.834 493.403 383.834C491.674 383.834 490.151 384.21 488.836 384.962C487.52 385.713 486.505 386.766 485.791 388.119C485.077 389.472 484.72 391.07 484.72 392.912C484.72 394.791 485.096 396.445 485.847 397.873C486.599 399.264 487.67 400.354 489.061 401.143C490.452 401.895 492.049 402.271 493.854 402.271C495.357 402.271 496.729 402.008 497.97 401.482C499.248 400.955 500.338 400.166 501.24 399.114L504.51 402.44C503.232 403.944 501.653 405.09 499.774 405.88C497.932 406.669 495.959 407.064 493.854 407.064ZM533.801 406.5V368.498H539.101V406.5H533.801ZM520.495 372.219V367.37H552.351V372.219H520.495ZM562.735 407.064C560.066 407.064 557.66 406.462 555.518 405.259C553.375 404.019 551.684 402.346 550.443 400.241C549.203 398.136 548.583 395.75 548.583 393.081C548.583 390.45 549.184 388.082 550.387 385.977C551.627 383.872 553.281 382.218 555.349 381.015C557.454 379.775 559.803 379.154 562.396 379.154C564.877 379.154 567.057 379.718 568.937 380.846C570.854 381.973 572.339 383.533 573.391 385.526C574.481 387.518 575.026 389.773 575.026 392.291C575.026 392.667 575.007 393.081 574.97 393.532C574.932 393.945 574.857 394.434 574.744 394.998H552.135V390.769H572.038L570.177 392.404C570.177 390.6 569.858 389.078 569.219 387.837C568.58 386.559 567.678 385.582 566.512 384.905C565.347 384.191 563.938 383.834 562.284 383.834C560.555 383.834 559.032 384.21 557.717 384.962C556.401 385.713 555.386 386.766 554.672 388.119C553.958 389.472 553.601 391.07 553.601 392.912C553.601 394.791 553.977 396.445 554.728 397.873C555.48 399.264 556.551 400.354 557.942 401.143C559.333 401.895 560.931 402.271 562.735 402.271C564.238 402.271 565.61 402.008 566.851 401.482C568.129 400.955 569.219 400.166 570.121 399.114L573.391 402.44C572.113 403.944 570.534 405.09 568.655 405.88C566.813 406.669 564.84 407.064 562.735 407.064ZM599.503 406.5V390.882C599.503 388.852 598.864 387.179 597.587 385.864C596.309 384.548 594.655 383.89 592.625 383.89C591.272 383.89 590.069 384.191 589.016 384.793C587.964 385.394 587.137 386.221 586.536 387.273C585.934 388.326 585.633 389.529 585.633 390.882L583.547 389.698C583.547 387.668 583.998 385.864 584.9 384.285C585.803 382.706 587.062 381.466 588.678 380.564C590.294 379.624 592.117 379.154 594.147 379.154C596.177 379.154 597.962 379.662 599.503 380.677C601.082 381.692 602.323 383.026 603.225 384.68C604.127 386.296 604.578 388.025 604.578 389.867V406.5H599.503ZM580.559 406.5V379.718H585.633V406.5H580.559ZM630.393 406.5V390.882C630.393 388.852 629.754 387.179 628.476 385.864C627.198 384.548 625.544 383.89 623.514 383.89C622.161 383.89 620.958 384.191 619.906 384.793C618.853 385.394 618.026 386.221 617.425 387.273C616.823 388.326 616.523 389.529 616.523 390.882L614.436 389.698C614.436 387.668 614.887 385.864 615.79 384.285C616.692 382.706 617.951 381.466 619.567 380.564C621.184 379.624 623.007 379.154 625.036 379.154C627.066 379.154 628.852 379.662 630.393 380.677C631.971 381.692 633.212 383.026 634.114 384.68C635.016 386.296 635.467 388.025 635.467 389.867V406.5H630.393ZM611.448 406.5V379.718H616.523V406.5H611.448ZM642.394 406.5V379.718H647.468V406.5H642.394ZM644.931 374.362C643.991 374.362 643.221 374.061 642.619 373.46C642.018 372.821 641.717 372.031 641.717 371.092C641.717 370.19 642.018 369.438 642.619 368.836C643.221 368.197 643.991 367.878 644.931 367.878C645.871 367.878 646.641 368.197 647.243 368.836C647.844 369.438 648.145 370.19 648.145 371.092C648.145 372.031 647.844 372.821 647.243 373.46C646.641 374.061 645.871 374.362 644.931 374.362ZM663.46 407.064C661.956 407.064 660.528 406.876 659.175 406.5C657.859 406.086 656.638 405.522 655.51 404.808C654.382 404.057 653.405 403.173 652.578 402.158L655.848 398.888C656.826 400.091 657.953 400.993 659.231 401.594C660.509 402.158 661.938 402.44 663.516 402.44C665.095 402.44 666.317 402.177 667.181 401.651C668.046 401.087 668.478 400.316 668.478 399.339C668.478 398.362 668.121 397.61 667.407 397.084C666.73 396.52 665.847 396.069 664.757 395.731C663.667 395.355 662.501 394.998 661.261 394.659C660.058 394.284 658.912 393.814 657.822 393.25C656.732 392.686 655.83 391.916 655.115 390.938C654.439 389.961 654.101 388.664 654.101 387.048C654.101 385.432 654.495 384.041 655.285 382.876C656.074 381.673 657.164 380.752 658.555 380.113C659.983 379.474 661.693 379.154 663.685 379.154C665.79 379.154 667.651 379.53 669.267 380.282C670.921 380.996 672.274 382.086 673.327 383.552L670.057 386.822C669.305 385.845 668.365 385.093 667.238 384.567C666.148 384.041 664.907 383.778 663.516 383.778C662.05 383.778 660.923 384.041 660.133 384.567C659.382 385.056 659.006 385.751 659.006 386.653C659.006 387.555 659.344 388.251 660.021 388.739C660.697 389.228 661.581 389.641 662.671 389.98C663.798 390.318 664.963 390.675 666.166 391.051C667.369 391.389 668.516 391.859 669.606 392.461C670.696 393.062 671.579 393.87 672.256 394.885C672.97 395.9 673.327 397.234 673.327 398.888C673.327 401.407 672.425 403.399 670.621 404.865C668.854 406.331 666.467 407.064 663.46 407.064Z" fill="#333333"/>
</svg>
