<svg width="1268" height="735" viewBox="0 0 1268 735" fill="none" xmlns="http://www.w3.org/2000/svg">
<path d="M30.0964 715.302V708.792H44.7046C48.59 708.792 51.9961 707.96 54.9228 706.295C57.8495 704.579 60.1202 702.233 61.7349 699.255C63.4001 696.278 64.2327 692.847 64.2327 688.962C64.2327 685.127 63.4001 681.72 61.7349 678.743C60.0697 675.766 57.7738 673.445 54.8471 671.78C51.9204 670.115 48.5396 669.282 44.7046 669.282H30.1721V662.773H44.856C48.691 662.773 52.2232 663.429 55.4526 664.741C58.7325 666.053 61.5583 667.894 63.9299 670.266C66.352 672.638 68.219 675.413 69.531 678.592C70.8934 681.771 71.5746 685.253 71.5746 689.037C71.5746 692.771 70.8934 696.253 69.531 699.482C68.219 702.661 66.3772 705.437 64.0056 707.808C61.634 710.18 58.8082 712.022 55.5283 713.334C52.2989 714.646 48.7919 715.302 45.0074 715.302H30.0964ZM25.4036 715.302V662.773H32.5185V715.302H25.4036ZM96.6458 716.059C93.1136 716.059 89.9346 715.226 87.1088 713.561C84.2831 711.896 82.0376 709.65 80.3724 706.824C78.7072 703.948 77.8746 700.744 77.8746 697.212C77.8746 693.73 78.7072 690.601 80.3724 687.826C82.0376 685 84.2831 682.755 87.1088 681.09C89.9346 679.425 93.1136 678.592 96.6458 678.592C100.128 678.592 103.281 679.425 106.107 681.09C108.983 682.704 111.254 684.925 112.919 687.75C114.584 690.576 115.417 693.73 115.417 697.212C115.417 700.744 114.584 703.948 112.919 706.824C111.254 709.65 108.983 711.896 106.107 713.561C103.281 715.226 100.128 716.059 96.6458 716.059ZM96.6458 709.474C98.9165 709.474 100.935 708.944 102.701 707.884C104.467 706.824 105.855 705.386 106.864 703.57C107.873 701.703 108.378 699.583 108.378 697.212C108.378 694.891 107.848 692.822 106.788 691.005C105.779 689.189 104.391 687.776 102.625 686.767C100.91 685.707 98.9165 685.177 96.6458 685.177C94.3751 685.177 92.3567 685.707 90.5906 686.767C88.8245 687.776 87.4368 689.189 86.4276 691.005C85.4184 692.822 84.9138 694.891 84.9138 697.212C84.9138 699.583 85.4184 701.703 86.4276 703.57C87.4368 705.386 88.8245 706.824 90.5906 707.884C92.3567 708.944 94.3751 709.474 96.6458 709.474ZM139.517 716.059C135.985 716.059 132.781 715.226 129.905 713.561C127.079 711.896 124.833 709.65 123.168 706.824C121.553 703.948 120.746 700.769 120.746 697.287C120.746 693.755 121.553 690.576 123.168 687.75C124.833 684.925 127.079 682.704 129.905 681.09C132.781 679.425 135.985 678.592 139.517 678.592C142.292 678.592 144.866 679.122 147.238 680.181C149.609 681.191 151.653 682.679 153.368 684.647L148.827 689.189C147.717 687.877 146.355 686.893 144.74 686.237C143.176 685.53 141.435 685.177 139.517 685.177C137.246 685.177 135.228 685.707 133.462 686.767C131.696 687.776 130.308 689.189 129.299 691.005C128.29 692.822 127.785 694.916 127.785 697.287C127.785 699.659 128.29 701.753 129.299 703.57C130.308 705.386 131.696 706.824 133.462 707.884C135.228 708.944 137.246 709.474 139.517 709.474C141.435 709.474 143.176 709.146 144.74 708.49C146.355 707.783 147.742 706.774 148.903 705.462L153.368 710.003C151.703 711.921 149.66 713.409 147.238 714.469C144.866 715.529 142.292 716.059 139.517 716.059ZM174.581 716.059C171.655 716.059 169.005 715.403 166.634 714.091C164.313 712.728 162.496 710.861 161.184 708.49C159.872 706.118 159.216 703.368 159.216 700.239V679.349H166.028V699.937C166.028 701.905 166.356 703.62 167.012 705.084C167.719 706.496 168.728 707.581 170.04 708.338C171.352 709.095 172.891 709.474 174.657 709.474C177.331 709.474 179.425 708.641 180.939 706.976C182.453 705.26 183.21 702.914 183.21 699.937V679.349H190.022V700.239C190.022 703.368 189.366 706.118 188.054 708.49C186.742 710.861 184.926 712.728 182.604 714.091C180.334 715.403 177.659 716.059 174.581 716.059ZM199.152 715.302V679.349H205.964V715.302H199.152ZM223.449 715.302V693.579C223.449 690.904 222.616 688.81 220.951 687.296C219.336 685.732 217.293 684.95 214.82 684.95C213.155 684.95 211.666 685.303 210.354 686.01C209.042 686.716 207.983 687.7 207.175 688.962C206.368 690.223 205.964 691.737 205.964 693.503L203.164 692.141C203.164 689.416 203.744 687.044 204.905 685.026C206.116 683.007 207.756 681.443 209.824 680.333C211.893 679.172 214.214 678.592 216.788 678.592C219.311 678.592 221.582 679.147 223.6 680.257C225.669 681.367 227.284 682.932 228.444 684.95C229.655 686.968 230.261 689.365 230.261 692.141V715.302H223.449ZM247.745 715.302V693.579C247.745 690.904 246.913 688.81 245.247 687.296C243.633 685.732 241.614 684.95 239.192 684.95C237.527 684.95 236.013 685.303 234.651 686.01C233.339 686.716 232.279 687.7 231.472 688.962C230.664 690.223 230.261 691.737 230.261 693.503L226.401 692.141C226.552 689.365 227.284 686.994 228.596 685.026C229.958 683.007 231.699 681.443 233.818 680.333C235.938 679.172 238.259 678.592 240.782 678.592C243.406 678.592 245.752 679.147 247.821 680.257C249.89 681.367 251.53 682.932 252.741 684.95C254.002 686.968 254.633 689.39 254.633 692.216V715.302H247.745ZM280.555 716.059C276.972 716.059 273.742 715.251 270.866 713.637C267.99 711.971 265.719 709.726 264.054 706.9C262.389 704.074 261.556 700.87 261.556 697.287C261.556 693.755 262.364 690.576 263.978 687.75C265.644 684.925 267.864 682.704 270.639 681.09C273.465 679.425 276.619 678.592 280.1 678.592C283.431 678.592 286.357 679.349 288.88 680.863C291.454 682.376 293.447 684.471 294.86 687.145C296.323 689.819 297.055 692.847 297.055 696.228C297.055 696.732 297.03 697.287 296.979 697.893C296.929 698.448 296.828 699.104 296.677 699.861H266.325V694.184H293.043L290.546 696.379C290.546 693.957 290.117 691.913 289.259 690.248C288.401 688.533 287.19 687.221 285.626 686.312C284.062 685.354 282.169 684.874 279.949 684.874C277.628 684.874 275.584 685.379 273.818 686.388C272.052 687.397 270.69 688.81 269.731 690.627C268.772 692.443 268.293 694.588 268.293 697.06C268.293 699.583 268.797 701.804 269.807 703.721C270.816 705.588 272.254 707.051 274.121 708.111C275.988 709.12 278.132 709.625 280.555 709.625C282.573 709.625 284.415 709.272 286.08 708.565C287.796 707.859 289.259 706.799 290.47 705.386L294.86 709.852C293.144 711.87 291.025 713.409 288.502 714.469C286.029 715.529 283.38 716.059 280.555 716.059ZM329.915 715.302V694.336C329.915 691.611 329.057 689.365 327.341 687.599C325.625 685.833 323.405 684.95 320.68 684.95C318.864 684.95 317.249 685.354 315.836 686.161C314.423 686.968 313.313 688.078 312.506 689.491C311.698 690.904 311.295 692.519 311.295 694.336L308.494 692.746C308.494 690.021 309.1 687.599 310.311 685.48C311.522 683.36 313.212 681.695 315.382 680.484C317.552 679.223 319.999 678.592 322.724 678.592C325.449 678.592 327.846 679.273 329.915 680.636C332.034 681.998 333.699 683.789 334.91 686.01C336.121 688.179 336.727 690.501 336.727 692.973V715.302H329.915ZM304.483 715.302V679.349H311.295V715.302H304.483ZM351.032 715.302V664.287H357.844V715.302H351.032ZM342.176 685.555V679.349H366.699V685.555H342.176ZM373.448 715.302V679.349H380.26V715.302H373.448ZM376.854 672.158C375.593 672.158 374.558 671.755 373.751 670.947C372.944 670.089 372.54 669.03 372.54 667.768C372.54 666.557 372.944 665.548 373.751 664.741C374.558 663.883 375.593 663.454 376.854 663.454C378.116 663.454 379.15 663.883 379.958 664.741C380.765 665.548 381.169 666.557 381.169 667.768C381.169 669.03 380.765 670.089 379.958 670.947C379.15 671.755 378.116 672.158 376.854 672.158ZM415.731 715.302V694.336C415.731 691.611 414.873 689.365 413.158 687.599C411.442 685.833 409.222 684.95 406.497 684.95C404.68 684.95 403.066 685.354 401.653 686.161C400.24 686.968 399.13 688.078 398.323 689.491C397.515 690.904 397.111 692.519 397.111 694.336L394.311 692.746C394.311 690.021 394.916 687.599 396.127 685.48C397.339 683.36 399.029 681.695 401.199 680.484C403.369 679.223 405.816 678.592 408.541 678.592C411.266 678.592 413.662 679.273 415.731 680.636C417.851 681.998 419.516 683.789 420.727 686.01C421.938 688.179 422.543 690.501 422.543 692.973V715.302H415.731ZM390.299 715.302V679.349H397.111V715.302H390.299ZM446.677 731.121C442.994 731.121 439.714 730.44 436.838 729.077C434.012 727.715 431.741 725.797 430.025 723.325L434.415 718.859C435.879 720.726 437.62 722.139 439.638 723.098C441.656 724.107 444.053 724.612 446.829 724.612C450.512 724.612 453.414 723.628 455.533 721.66C457.703 719.742 458.788 717.143 458.788 713.864V704.932L459.999 696.833L458.788 688.81V679.349H465.6V713.864C465.6 717.295 464.792 720.297 463.178 722.871C461.613 725.444 459.393 727.463 456.517 728.926C453.691 730.389 450.411 731.121 446.677 731.121ZM446.677 714.696C443.397 714.696 440.445 713.914 437.822 712.35C435.248 710.786 433.204 708.641 431.691 705.916C430.177 703.141 429.42 700.038 429.42 696.606C429.42 693.175 430.177 690.122 431.691 687.448C433.204 684.723 435.248 682.578 437.822 681.014C440.445 679.399 443.397 678.592 446.677 678.592C449.503 678.592 452.001 679.147 454.171 680.257C456.34 681.367 458.056 682.932 459.318 684.95C460.629 686.918 461.336 689.239 461.437 691.913V701.45C461.285 704.074 460.554 706.395 459.242 708.414C457.98 710.382 456.265 711.921 454.095 713.031C451.925 714.141 449.453 714.696 446.677 714.696ZM448.04 708.263C450.26 708.263 452.203 707.783 453.868 706.824C455.583 705.866 456.895 704.528 457.804 702.813C458.712 701.047 459.166 699.003 459.166 696.682C459.166 694.361 458.687 692.342 457.728 690.627C456.82 688.861 455.533 687.498 453.868 686.539C452.203 685.53 450.235 685.026 447.964 685.026C445.693 685.026 443.7 685.53 441.984 686.539C440.269 687.498 438.906 688.861 437.897 690.627C436.938 692.342 436.459 694.336 436.459 696.606C436.459 698.877 436.938 700.895 437.897 702.661C438.906 704.428 440.269 705.815 441.984 706.824C443.751 707.783 445.769 708.263 448.04 708.263ZM492.554 715.302V662.773H499.669V715.302H492.554ZM527.281 716.059C523.749 716.059 520.545 715.226 517.669 713.561C514.843 711.896 512.597 709.65 510.932 706.824C509.318 703.948 508.51 700.769 508.51 697.287C508.51 693.755 509.318 690.576 510.932 687.75C512.597 684.925 514.843 682.704 517.669 681.09C520.545 679.425 523.749 678.592 527.281 678.592C530.057 678.592 532.63 679.122 535.002 680.181C537.373 681.191 539.417 682.679 541.133 684.647L536.591 689.189C535.481 687.877 534.119 686.893 532.504 686.237C530.94 685.53 529.199 685.177 527.281 685.177C525.011 685.177 522.992 685.707 521.226 686.767C519.46 687.776 518.072 689.189 517.063 691.005C516.054 692.822 515.549 694.916 515.549 697.287C515.549 699.659 516.054 701.753 517.063 703.57C518.072 705.386 519.46 706.824 521.226 707.884C522.992 708.944 525.011 709.474 527.281 709.474C529.199 709.474 530.94 709.146 532.504 708.49C534.119 707.783 535.506 706.774 536.667 705.462L541.133 710.003C539.467 711.921 537.424 713.409 535.002 714.469C532.63 715.529 530.057 716.059 527.281 716.059ZM563.801 716.059C560.219 716.059 556.989 715.251 554.113 713.637C551.237 711.971 548.966 709.726 547.301 706.9C545.636 704.074 544.803 700.87 544.803 697.287C544.803 693.755 545.61 690.576 547.225 687.75C548.89 684.925 551.111 682.704 553.886 681.09C556.712 679.425 559.865 678.592 563.347 678.592C566.678 678.592 569.604 679.349 572.127 680.863C574.701 682.376 576.694 684.471 578.107 687.145C579.57 689.819 580.302 692.847 580.302 696.228C580.302 696.732 580.277 697.287 580.226 697.893C580.176 698.448 580.075 699.104 579.923 699.861H549.572V694.184H576.29L573.792 696.379C573.792 693.957 573.364 691.913 572.506 690.248C571.648 688.533 570.437 687.221 568.873 686.312C567.308 685.354 565.416 684.874 563.196 684.874C560.875 684.874 558.831 685.379 557.065 686.388C555.299 687.397 553.936 688.81 552.978 690.627C552.019 692.443 551.54 694.588 551.54 697.06C551.54 699.583 552.044 701.804 553.053 703.721C554.063 705.588 555.501 707.051 557.368 708.111C559.235 709.12 561.379 709.625 563.801 709.625C565.82 709.625 567.662 709.272 569.327 708.565C571.042 707.859 572.506 706.799 573.717 705.386L578.107 709.852C576.391 711.87 574.272 713.409 571.749 714.469C569.276 715.529 566.627 716.059 563.801 716.059ZM587.729 715.302V661.259H594.542V715.302H587.729ZM619.798 716.059C616.518 716.059 613.541 715.251 610.866 713.637C608.192 711.971 606.073 709.726 604.508 706.9C602.995 704.074 602.238 700.895 602.238 697.363C602.238 693.831 602.995 690.652 604.508 687.826C606.073 685 608.167 682.755 610.791 681.09C613.465 679.425 616.467 678.592 619.798 678.592C622.523 678.592 624.945 679.172 627.064 680.333C629.234 681.443 630.975 683.007 632.287 685.026C633.599 686.994 634.33 689.29 634.482 691.913V702.737C634.33 705.311 633.599 707.607 632.287 709.625C631.025 711.643 629.31 713.233 627.14 714.393C625.02 715.504 622.573 716.059 619.798 716.059ZM620.933 709.625C624.314 709.625 627.039 708.49 629.108 706.219C631.177 703.898 632.211 700.946 632.211 697.363C632.211 694.891 631.732 692.746 630.773 690.929C629.865 689.062 628.553 687.624 626.837 686.615C625.121 685.555 623.128 685.026 620.858 685.026C618.587 685.026 616.568 685.555 614.802 686.615C613.087 687.675 611.724 689.138 610.715 691.005C609.756 692.822 609.277 694.916 609.277 697.287C609.277 699.71 609.756 701.854 610.715 703.721C611.724 705.538 613.112 706.976 614.878 708.035C616.644 709.095 618.662 709.625 620.933 709.625ZM631.757 715.302V705.613L633.044 696.833L631.757 688.129V679.349H638.645V715.302H631.757ZM673.994 715.302V694.336C673.994 691.611 673.137 689.365 671.421 687.599C669.705 685.833 667.485 684.95 664.76 684.95C662.944 684.95 661.329 685.354 659.916 686.161C658.503 686.968 657.393 688.078 656.586 689.491C655.778 690.904 655.375 692.519 655.375 694.336L652.574 692.746C652.574 690.021 653.18 687.599 654.391 685.48C655.602 683.36 657.292 681.695 659.462 680.484C661.632 679.223 664.079 678.592 666.804 678.592C669.529 678.592 671.925 679.273 673.994 680.636C676.114 681.998 677.779 683.789 678.99 686.01C680.201 688.179 680.806 690.501 680.806 692.973V715.302H673.994ZM648.562 715.302V679.349H655.375V715.302H648.562ZM705.243 716.059C701.913 716.059 698.936 715.251 696.312 713.637C693.688 711.971 691.594 709.726 690.029 706.9C688.516 704.074 687.759 700.895 687.759 697.363C687.759 693.831 688.516 690.652 690.029 687.826C691.594 685 693.688 682.755 696.312 681.09C698.936 679.425 701.913 678.592 705.243 678.592C707.918 678.592 710.34 679.172 712.509 680.333C714.679 681.443 716.42 683.007 717.732 685.026C719.094 686.994 719.851 689.29 720.003 691.913V702.737C719.851 705.311 719.12 707.607 717.808 709.625C716.496 711.643 714.755 713.233 712.585 714.393C710.415 715.504 707.968 716.059 705.243 716.059ZM706.378 709.625C708.649 709.625 710.617 709.095 712.282 708.035C713.998 706.976 715.335 705.538 716.294 703.721C717.253 701.854 717.732 699.735 717.732 697.363C717.732 694.891 717.227 692.746 716.218 690.929C715.259 689.113 713.922 687.675 712.207 686.615C710.541 685.555 708.574 685.026 706.303 685.026C704.032 685.026 702.039 685.555 700.323 686.615C698.608 687.675 697.245 689.138 696.236 691.005C695.277 692.822 694.798 694.916 694.798 697.287C694.798 699.71 695.277 701.854 696.236 703.721C697.245 705.538 698.608 706.976 700.323 708.035C702.089 709.095 704.108 709.625 706.378 709.625ZM724.166 715.302H717.278V705.613L718.565 696.833L717.278 688.129V661.259H724.166V715.302ZM734.159 715.302V679.349H740.971V715.302H734.159ZM737.565 672.158C736.304 672.158 735.269 671.755 734.462 670.947C733.655 670.089 733.251 669.03 733.251 667.768C733.251 666.557 733.655 665.548 734.462 664.741C735.269 663.883 736.304 663.454 737.565 663.454C738.827 663.454 739.861 663.883 740.668 664.741C741.476 665.548 741.88 666.557 741.88 667.768C741.88 669.03 741.476 670.089 740.668 670.947C739.861 671.755 738.827 672.158 737.565 672.158ZM767.435 716.059C763.903 716.059 760.699 715.226 757.822 713.561C754.997 711.896 752.751 709.65 751.086 706.824C749.471 703.948 748.664 700.769 748.664 697.287C748.664 693.755 749.471 690.576 751.086 687.75C752.751 684.925 754.997 682.704 757.822 681.09C760.699 679.425 763.903 678.592 767.435 678.592C770.21 678.592 772.784 679.122 775.155 680.181C777.527 681.191 779.571 682.679 781.286 684.647L776.745 689.189C775.635 687.877 774.272 686.893 772.658 686.237C771.093 685.53 769.353 685.177 767.435 685.177C765.164 685.177 763.146 685.707 761.38 686.767C759.614 687.776 758.226 689.189 757.217 691.005C756.208 692.822 755.703 694.916 755.703 697.287C755.703 699.659 756.208 701.753 757.217 703.57C758.226 705.386 759.614 706.824 761.38 707.884C763.146 708.944 765.164 709.474 767.435 709.474C769.353 709.474 771.093 709.146 772.658 708.49C774.272 707.783 775.66 706.774 776.821 705.462L781.286 710.003C779.621 711.921 777.578 713.409 775.155 714.469C772.784 715.529 770.21 716.059 767.435 716.059ZM817.742 715.302V664.287H824.857V715.302H817.742ZM799.879 669.282V662.773H842.644V669.282H799.879ZM855.221 716.059C851.941 716.059 848.964 715.251 846.289 713.637C843.615 711.971 841.496 709.726 839.931 706.9C838.418 704.074 837.661 700.895 837.661 697.363C837.661 693.831 838.418 690.652 839.931 687.826C841.496 685 843.59 682.755 846.214 681.09C848.888 679.425 851.89 678.592 855.221 678.592C857.946 678.592 860.368 679.172 862.487 680.333C864.657 681.443 866.398 683.007 867.71 685.026C869.022 686.994 869.753 689.29 869.905 691.913V702.737C869.753 705.311 869.022 707.607 867.71 709.625C866.448 711.643 864.733 713.233 862.563 714.393C860.443 715.504 857.996 716.059 855.221 716.059ZM856.356 709.625C859.737 709.625 862.462 708.49 864.531 706.219C866.6 703.898 867.634 700.946 867.634 697.363C867.634 694.891 867.155 692.746 866.196 690.929C865.288 689.062 863.976 687.624 862.26 686.615C860.544 685.555 858.551 685.026 856.28 685.026C854.01 685.026 851.991 685.555 850.225 686.615C848.51 687.675 847.147 689.138 846.138 691.005C845.179 692.822 844.7 694.916 844.7 697.287C844.7 699.71 845.179 701.854 846.138 703.721C847.147 705.538 848.535 706.976 850.301 708.035C852.067 709.095 854.085 709.625 856.356 709.625ZM867.18 715.302V705.613L868.467 696.833L867.18 688.129V679.349H874.068V715.302H867.18ZM902.908 716.059C900.183 716.059 897.711 715.504 895.49 714.393C893.321 713.233 891.58 711.643 890.268 709.625C888.956 707.607 888.224 705.311 888.073 702.737V691.913C888.224 689.29 888.956 686.994 890.268 685.026C891.63 683.007 893.396 681.443 895.566 680.333C897.786 679.172 900.234 678.592 902.908 678.592C906.188 678.592 909.14 679.425 911.764 681.09C914.438 682.755 916.532 685 918.046 687.826C919.56 690.652 920.317 693.831 920.317 697.363C920.317 700.895 919.56 704.074 918.046 706.9C916.532 709.726 914.438 711.971 911.764 713.637C909.14 715.251 906.188 716.059 902.908 716.059ZM901.773 709.625C904.043 709.625 906.036 709.095 907.752 708.035C909.468 706.976 910.83 705.538 911.839 703.721C912.849 701.854 913.353 699.71 913.353 697.287C913.353 694.916 912.849 692.796 911.839 690.929C910.83 689.062 909.468 687.624 907.752 686.615C906.036 685.555 904.069 685.026 901.848 685.026C899.578 685.026 897.584 685.555 895.869 686.615C894.153 687.624 892.816 689.062 891.857 690.929C890.898 692.796 890.419 694.941 890.419 697.363C890.419 699.735 890.873 701.854 891.782 703.721C892.74 705.538 894.077 706.976 895.793 708.035C897.559 709.095 899.552 709.625 901.773 709.625ZM883.985 715.302V661.259H890.798V688.129L889.511 696.833L890.798 705.613V715.302H883.985ZM928.039 715.302V661.259H934.852V715.302H928.039ZM961.47 716.059C957.888 716.059 954.658 715.251 951.782 713.637C948.906 711.971 946.635 709.726 944.97 706.9C943.305 704.074 942.472 700.87 942.472 697.287C942.472 693.755 943.279 690.576 944.894 687.75C946.559 684.925 948.78 682.704 951.555 681.09C954.381 679.425 957.534 678.592 961.016 678.592C964.346 678.592 967.273 679.349 969.796 680.863C972.37 682.376 974.363 684.471 975.776 687.145C977.239 689.819 977.971 692.847 977.971 696.228C977.971 696.732 977.945 697.287 977.895 697.893C977.845 698.448 977.744 699.104 977.592 699.861H947.241V694.184H973.959L971.461 696.379C971.461 693.957 971.032 691.913 970.175 690.248C969.317 688.533 968.106 687.221 966.542 686.312C964.977 685.354 963.085 684.874 960.865 684.874C958.544 684.874 956.5 685.379 954.734 686.388C952.968 687.397 951.605 688.81 950.647 690.627C949.688 692.443 949.208 694.588 949.208 697.06C949.208 699.583 949.713 701.804 950.722 703.721C951.731 705.588 953.17 707.051 955.037 708.111C956.904 709.12 959.048 709.625 961.47 709.625C963.489 709.625 965.33 709.272 966.996 708.565C968.711 707.859 970.175 706.799 971.386 705.386L975.776 709.852C974.06 711.87 971.941 713.409 969.418 714.469C966.945 715.529 964.296 716.059 961.47 716.059ZM1015.1 715.302V664.287H1022.21V715.302H1015.1ZM997.235 669.282V662.773H1040V669.282H997.235ZM1053.94 716.059C1050.36 716.059 1047.13 715.251 1044.25 713.637C1041.37 711.971 1039.1 709.726 1037.44 706.9C1035.77 704.074 1034.94 700.87 1034.94 697.287C1034.94 693.755 1035.75 690.576 1037.36 687.75C1039.03 684.925 1041.25 682.704 1044.02 681.09C1046.85 679.425 1050 678.592 1053.49 678.592C1056.82 678.592 1059.74 679.349 1062.27 680.863C1064.84 682.376 1066.83 684.471 1068.24 687.145C1069.71 689.819 1070.44 692.847 1070.44 696.228C1070.44 696.732 1070.41 697.287 1070.36 697.893C1070.31 698.448 1070.21 699.104 1070.06 699.861H1039.71V694.184H1066.43L1063.93 696.379C1063.93 693.957 1063.5 691.913 1062.64 690.248C1061.79 688.533 1060.57 687.221 1059.01 686.312C1057.45 685.354 1055.55 684.874 1053.33 684.874C1051.01 684.874 1048.97 685.379 1047.2 686.388C1045.44 687.397 1044.07 688.81 1043.12 690.627C1042.16 692.443 1041.68 694.588 1041.68 697.06C1041.68 699.583 1042.18 701.804 1043.19 703.721C1044.2 705.588 1045.64 707.051 1047.51 708.111C1049.37 709.12 1051.52 709.625 1053.94 709.625C1055.96 709.625 1057.8 709.272 1059.46 708.565C1061.18 707.859 1062.64 706.799 1063.85 705.386L1068.24 709.852C1066.53 711.87 1064.41 713.409 1061.89 714.469C1059.41 715.529 1056.77 716.059 1053.94 716.059ZM1103.3 715.302V694.336C1103.3 691.611 1102.44 689.365 1100.73 687.599C1099.01 685.833 1096.79 684.95 1094.07 684.95C1092.25 684.95 1090.63 685.354 1089.22 686.161C1087.81 686.968 1086.7 688.078 1085.89 689.491C1085.08 690.904 1084.68 692.519 1084.68 694.336L1081.88 692.746C1081.88 690.021 1082.48 687.599 1083.7 685.48C1084.91 683.36 1086.6 681.695 1088.77 680.484C1090.94 679.223 1093.38 678.592 1096.11 678.592C1098.83 678.592 1101.23 679.273 1103.3 680.636C1105.42 681.998 1107.08 683.789 1108.29 686.01C1109.51 688.179 1110.11 690.501 1110.11 692.973V715.302H1103.3ZM1077.87 715.302V679.349H1084.68V715.302H1077.87ZM1144.77 715.302V694.336C1144.77 691.611 1143.91 689.365 1142.19 687.599C1140.48 685.833 1138.26 684.95 1135.53 684.95C1133.72 684.95 1132.1 685.354 1130.69 686.161C1129.28 686.968 1128.17 688.078 1127.36 689.491C1126.55 690.904 1126.15 692.519 1126.15 694.336L1123.35 692.746C1123.35 690.021 1123.95 687.599 1125.16 685.48C1126.37 683.36 1128.06 681.695 1130.23 680.484C1132.4 679.223 1134.85 678.592 1137.58 678.592C1140.3 678.592 1142.7 679.273 1144.77 680.636C1146.89 681.998 1148.55 683.789 1149.76 686.01C1150.97 688.179 1151.58 690.501 1151.58 692.973V715.302H1144.77ZM1119.33 715.302V679.349H1126.15V715.302H1119.33ZM1160.88 715.302V679.349H1167.69V715.302H1160.88ZM1164.28 672.158C1163.02 672.158 1161.99 671.755 1161.18 670.947C1160.37 670.089 1159.97 669.03 1159.97 667.768C1159.97 666.557 1160.37 665.548 1161.18 664.741C1161.99 663.883 1163.02 663.454 1164.28 663.454C1165.54 663.454 1166.58 663.883 1167.39 664.741C1168.19 665.548 1168.6 666.557 1168.6 667.768C1168.6 669.03 1168.19 670.089 1167.39 670.947C1166.58 671.755 1165.54 672.158 1164.28 672.158ZM1189.16 716.059C1187.14 716.059 1185.22 715.806 1183.4 715.302C1181.64 714.747 1180 713.99 1178.49 713.031C1176.97 712.022 1175.66 710.836 1174.55 709.474L1178.94 705.084C1180.25 706.698 1181.77 707.909 1183.48 708.717C1185.2 709.474 1187.11 709.852 1189.23 709.852C1191.35 709.852 1192.99 709.499 1194.15 708.792C1195.31 708.035 1195.89 707.001 1195.89 705.689C1195.89 704.377 1195.41 703.368 1194.46 702.661C1193.55 701.905 1192.36 701.299 1190.9 700.845C1189.43 700.34 1187.87 699.861 1186.21 699.407C1184.59 698.902 1183.05 698.271 1181.59 697.515C1180.13 696.758 1178.91 695.723 1177.96 694.411C1177.05 693.099 1176.59 691.358 1176.59 689.189C1176.59 687.019 1177.12 685.152 1178.18 683.588C1179.24 681.973 1180.71 680.737 1182.57 679.879C1184.49 679.021 1186.79 678.592 1189.46 678.592C1192.29 678.592 1194.78 679.097 1196.95 680.106C1199.17 681.065 1200.99 682.528 1202.4 684.496L1198.01 688.886C1197 687.574 1195.74 686.565 1194.23 685.858C1192.77 685.152 1191.1 684.799 1189.23 684.799C1187.27 684.799 1185.75 685.152 1184.69 685.858C1183.68 686.514 1183.18 687.448 1183.18 688.659C1183.18 689.87 1183.63 690.803 1184.54 691.459C1185.45 692.115 1186.63 692.67 1188.1 693.124C1189.61 693.579 1191.18 694.058 1192.79 694.563C1194.41 695.017 1195.94 695.647 1197.41 696.455C1198.87 697.262 1200.06 698.347 1200.97 699.71C1201.92 701.072 1202.4 702.863 1202.4 705.084C1202.4 708.464 1201.19 711.139 1198.77 713.107C1196.4 715.075 1193.19 716.059 1189.16 716.059Z" fill="#333333"/>
<path d="M693.676 191.414L661.151 119.971C661.151 119.971 606.942 0.900124 487.876 42.3195C368.81 83.7388 364.55 195.564 391.654 255.099C418.759 314.635 509.752 393.324 628.818 351.905C747.884 310.485 693.676 191.414 693.676 191.414Z" fill="#333333"/>
<path d="M120.003 373.246C128.893 373.246 137.722 373.907 146.491 375.228C155.26 376.55 163.668 378.712 171.717 381.715C179.765 384.718 187.212 388.622 194.059 393.427C200.907 398.232 206.853 404.178 211.898 411.265C216.943 418.353 220.907 426.641 223.79 436.131C226.673 445.5 228.114 456.312 228.114 468.564C228.114 483.7 225.952 496.793 221.628 507.845C217.303 518.776 211.537 527.965 204.33 535.413C197.123 542.861 188.774 548.747 179.284 553.071C169.795 557.275 159.824 560.218 149.374 561.9V610.911C149.374 615.235 149.013 618.959 148.292 622.082C147.572 625.205 146.25 627.788 144.328 629.83C142.527 631.992 139.884 633.554 136.4 634.515C133.037 635.596 128.652 636.136 123.247 636.136H44.3256C38.5596 636.136 33.8748 635.596 30.2711 634.515C26.6674 633.434 23.8445 631.812 21.8024 629.65C19.7603 627.608 18.3789 625.025 17.6582 621.902C16.9374 618.779 16.577 615.115 16.577 610.911V466.762C16.577 451.867 18.8594 438.593 23.4241 426.941C28.1089 415.289 34.8358 405.499 43.6048 397.571C52.494 389.643 63.3051 383.637 76.0382 379.553C88.8914 375.348 103.546 373.246 120.003 373.246ZM202.528 468.384C202.528 459.135 201.507 450.546 199.465 442.618C197.423 434.689 194.24 427.662 189.915 421.536C185.591 415.41 180.065 410.424 173.338 406.58C166.731 402.616 158.743 400.094 149.374 399.013V538.836C158.743 537.635 166.731 535.053 173.338 531.088C180.065 527.124 185.591 522.019 189.915 515.773C194.24 509.526 197.423 502.379 199.465 494.331C201.507 486.282 202.528 477.634 202.528 468.384ZM134.238 397.031C133.277 396.911 132.136 396.79 130.814 396.67C129.493 396.55 128.112 396.43 126.67 396.31C125.349 396.19 124.088 396.13 122.886 396.13C121.685 396.13 120.784 396.13 120.184 396.13L120.003 621.001C122.886 621.001 125.229 620.881 127.031 620.641C128.832 620.52 130.274 620.04 131.355 619.199C132.436 618.478 133.157 617.337 133.517 615.776C133.878 614.334 134.058 612.232 134.058 609.469L134.238 397.031ZM254.422 402.436C254.422 398.352 254.782 394.748 255.503 391.625C256.223 388.382 257.605 385.739 259.647 383.697C261.689 381.655 264.512 380.093 268.116 379.012C271.719 377.931 276.404 377.39 282.17 377.39H361.091C366.617 377.39 371.061 377.931 374.425 379.012C377.908 379.973 380.611 381.475 382.533 383.517C384.455 385.559 385.717 388.142 386.317 391.265C386.918 394.388 387.218 398.112 387.218 402.436V537.215C387.218 541.299 386.918 544.903 386.317 548.026C385.717 551.029 384.455 553.612 382.533 555.774C380.611 557.816 377.908 559.378 374.425 560.459C371.061 561.42 366.617 561.9 361.091 561.9H282.17C276.404 561.9 271.719 561.36 268.116 560.278C264.512 559.197 261.689 557.636 259.647 555.594C257.605 553.552 256.223 550.969 255.503 547.846C254.782 544.722 254.422 541.059 254.422 536.854V402.436ZM261.088 300.271C261.088 291.983 262.65 284.175 265.773 276.847C269.017 269.52 273.341 263.153 278.747 257.747C284.152 252.342 290.519 248.078 297.846 244.954C305.174 241.711 312.982 240.089 321.27 240.089C329.439 240.089 337.127 241.711 344.334 244.954C351.662 248.078 358.028 252.342 363.434 257.747C368.839 263.153 373.104 269.52 376.227 276.847C379.47 284.175 381.092 291.983 381.092 300.271C381.092 308.44 379.47 316.188 376.227 323.515C373.104 330.722 368.839 337.029 363.434 342.435C358.028 347.84 351.662 352.165 344.334 355.408C337.127 358.531 329.439 360.093 321.27 360.093C312.982 360.093 305.174 358.531 297.846 355.408C290.519 352.165 284.152 347.84 278.747 342.435C273.341 337.029 269.017 330.722 265.773 323.515C262.65 316.188 261.088 308.44 261.088 300.271ZM371.902 404.058C371.902 401.415 371.722 399.313 371.362 397.751C371.001 396.19 370.281 395.049 369.2 394.328C368.118 393.487 366.677 393.007 364.875 392.886C363.073 392.646 360.731 392.526 357.848 392.526V546.765C360.731 546.765 363.073 546.705 364.875 546.584C366.677 546.344 368.118 545.864 369.2 545.143C370.281 544.302 371.001 543.161 371.362 541.719C371.722 540.158 371.902 537.996 371.902 535.233V404.058ZM351.001 300.271C351.001 308.68 349.319 316.608 345.956 324.056C342.712 331.503 338.268 337.99 332.622 343.516C337.427 342.314 341.811 340.332 345.775 337.57C349.86 334.807 353.343 331.563 356.226 327.84C359.229 323.996 361.572 319.731 363.253 315.046C364.935 310.362 365.776 305.437 365.776 300.271C365.776 295.106 364.935 290.181 363.253 285.496C361.572 280.811 359.229 276.607 356.226 272.883C353.343 269.039 349.86 265.796 345.775 263.153C341.811 260.39 337.427 258.348 332.622 257.027C338.268 262.552 342.712 269.039 345.956 276.487C349.319 283.934 351.001 291.863 351.001 300.271ZM420.552 402.436C420.552 398.352 420.913 394.748 421.633 391.625C422.354 388.382 423.736 385.739 425.778 383.697C427.82 381.655 430.643 380.093 434.246 379.012C437.85 377.931 442.535 377.39 448.301 377.39H521.997C527.402 377.39 532.027 377.931 535.871 379.012C539.835 380.093 542.658 381.955 544.34 384.598C545.901 383.517 547.763 382.376 549.925 381.174C552.208 379.853 554.67 378.652 557.313 377.571C559.956 376.49 562.779 375.589 565.782 374.868C568.785 374.147 571.908 373.787 575.151 373.787C586.683 373.787 595.632 377.751 601.999 385.679C608.486 393.607 611.729 405.259 611.729 420.635V553.431C611.729 555.474 611.429 557.095 610.828 558.296C610.347 559.378 609.687 560.218 608.846 560.819C608.125 561.3 607.224 561.6 606.143 561.72C605.062 561.84 603.981 561.9 602.9 561.9H591.368C588.245 561.9 586.203 560.999 585.242 559.197C584.401 557.396 583.98 555.474 583.98 553.431V418.833C583.98 411.986 582.719 406.761 580.196 403.157C577.794 399.553 573.89 397.751 568.484 397.751C565.722 397.751 562.899 398.532 560.016 400.094C557.253 401.535 555.031 403.097 553.349 404.779V536.674C553.349 540.879 552.988 544.542 552.268 547.666C551.547 550.789 550.166 553.431 548.123 555.594C546.081 557.636 543.258 559.197 539.655 560.278C536.051 561.36 531.366 561.9 525.6 561.9H448.301C442.535 561.9 437.85 561.36 434.246 560.278C430.643 559.197 427.82 557.636 425.778 555.594C423.736 553.552 422.354 550.969 421.633 547.846C420.913 544.722 420.552 541.059 420.552 536.854V402.436ZM538.033 404.058C538.033 399.854 536.892 396.911 534.61 395.229C532.447 393.427 528.904 392.526 523.979 392.526V546.765C526.862 546.765 529.204 546.705 531.006 546.584C532.808 546.344 534.249 545.864 535.33 545.143C536.411 544.302 537.132 543.161 537.493 541.719C537.853 540.158 538.033 537.996 538.033 535.233V404.058ZM749.21 543.882C740.081 543.882 731.011 543.281 722.002 542.08C712.993 540.758 704.344 538.716 696.056 535.953C695.935 536.554 695.875 537.155 695.875 537.755C695.875 538.236 695.875 538.776 695.875 539.377C695.875 542.981 696.476 546.344 697.677 549.467C698.878 552.47 700.74 555.113 703.263 557.396C705.906 559.678 709.329 561.48 713.534 562.801C717.738 564.122 722.843 564.783 728.849 564.783C735.456 564.783 741.582 564.363 747.228 563.522C752.874 562.801 758.4 562.02 763.805 561.179C769.211 560.218 774.616 559.378 780.022 558.657C785.548 557.816 791.374 557.396 797.5 557.396C803.386 557.396 809.152 558.477 814.798 560.639C820.443 562.681 825.429 565.684 829.753 569.648C834.198 573.732 837.741 578.717 840.384 584.603C843.027 590.49 844.348 597.216 844.348 604.784C844.348 611.511 843.687 617.397 842.366 622.442C841.165 627.488 839.903 632.293 838.582 636.857C838.342 637.458 837.861 638.179 837.141 639.019C836.54 639.86 835.339 640.281 833.537 640.281H820.203C818.521 640.281 817.44 639.86 816.96 639.019C816.479 638.299 816.119 637.698 815.879 637.218C813.596 631.572 804.767 628.749 789.391 628.749C782.785 628.749 776.238 629.109 769.751 629.83C763.265 630.671 756.658 631.512 749.931 632.353C743.204 633.314 736.177 634.154 728.849 634.875C721.642 635.716 714.014 636.136 705.966 636.136C694.794 636.136 685.304 634.275 677.496 630.551C669.809 626.827 663.562 622.082 658.757 616.316C653.952 610.67 650.469 604.424 648.306 597.577C646.144 590.73 645.063 584.243 645.063 578.117C645.063 571.51 645.784 565.504 647.225 560.098C648.787 554.573 650.769 549.587 653.171 545.143C655.574 540.698 658.337 536.734 661.46 533.251C664.583 529.647 667.706 526.404 670.83 523.521C660.979 516.794 653.051 508.025 647.045 497.214C641.039 486.403 638.036 473.129 638.036 457.393C638.036 446.702 639.537 437.152 642.541 428.743C645.544 420.214 649.628 412.767 654.793 406.4C660.079 399.914 666.265 394.448 673.352 390.003C680.439 385.559 688.067 381.955 696.236 379.192C704.524 376.309 713.173 374.267 722.182 373.066C731.192 371.745 740.201 371.084 749.21 371.084C757.258 371.084 765.487 371.504 773.896 372.345C782.304 373.186 790.473 374.748 798.401 377.03C806.449 379.192 814.017 382.135 821.104 385.859C828.312 389.583 834.678 394.328 840.204 400.094L859.844 380.093C861.165 378.772 862.427 377.811 863.628 377.21C864.949 376.61 866.15 376.309 867.232 376.309C869.153 376.309 870.895 377.09 872.457 378.652L881.286 388.021C882.727 389.703 883.448 391.445 883.448 393.247C883.448 395.889 881.947 398.292 878.944 400.454L852.817 418.833C855.219 423.998 857.021 429.644 858.222 435.77C859.544 441.897 860.204 448.624 860.204 455.951C860.204 468.204 858.643 478.895 855.519 488.024C852.396 497.154 848.072 504.962 842.546 511.448C837.141 517.935 830.834 523.28 823.627 527.485C816.419 531.689 808.671 534.992 800.383 537.395C792.214 539.797 783.746 541.479 774.977 542.44C766.208 543.401 757.619 543.882 749.21 543.882ZM809.392 437.572C808.791 436.972 808.491 436.071 808.491 434.87C808.491 433.428 809.032 432.167 810.113 431.086L821.645 419.193C819.242 417.392 816.599 416.13 813.716 415.41C810.954 414.689 808.131 414.328 805.248 414.328C802.365 414.328 799.121 414.809 795.518 415.77C792.034 416.611 788.671 418.533 785.427 421.536C782.304 424.539 779.661 428.923 777.499 434.689C775.337 440.335 774.256 447.903 774.256 457.393C774.256 466.882 775.097 474.51 776.779 480.276C778.58 485.922 780.923 490.246 783.806 493.25C786.689 496.253 789.992 498.235 793.716 499.196C797.44 500.157 801.284 500.637 805.248 500.637C808.972 500.637 812.635 500.037 816.239 498.835C819.843 497.514 822.966 495.232 825.609 491.988C828.372 488.625 830.594 484.12 832.276 478.474C833.957 472.708 834.798 465.321 834.798 456.312C834.798 447.302 833.777 439.855 831.735 433.969L819.663 442.437C818.702 443.038 817.741 443.338 816.78 443.338C815.218 443.338 813.957 442.738 812.996 441.536L809.392 437.572ZM789.932 510.367C786.448 509.887 782.845 508.565 779.121 506.403C775.517 504.241 772.214 501.058 769.211 496.853C766.208 492.529 763.745 487.123 761.823 480.637C759.901 474.15 758.94 466.402 758.94 457.393C758.94 448.383 760.081 440.696 762.364 434.329C764.766 427.842 767.589 422.557 770.832 418.473C774.076 414.268 777.439 411.145 780.923 409.103C784.526 407.061 787.53 405.8 789.932 405.319C785.247 405.319 780.262 406.28 774.977 408.202C769.691 410.004 764.766 413.007 760.201 417.211C755.757 421.296 752.033 426.641 749.03 433.248C746.027 439.855 744.525 447.903 744.525 457.393C744.525 466.882 745.787 474.991 748.309 481.718C750.952 488.445 754.375 493.91 758.58 498.115C762.784 502.319 767.589 505.442 772.995 507.484C778.52 509.406 784.166 510.367 789.932 510.367ZM802.365 572.171C806.209 576.135 809.212 580.82 811.374 586.225C813.536 591.631 814.617 597.817 814.617 604.784C814.617 607.787 814.437 610.31 814.077 612.352C813.716 614.394 813.416 616.016 813.176 617.217C815.699 617.577 818.221 618.598 820.744 620.28C823.266 621.962 825.008 623.584 825.969 625.145C826.69 623.584 827.351 621.001 827.951 617.397C828.672 613.793 829.032 609.589 829.032 604.784C829.032 595.895 826.63 588.507 821.825 582.621C817.14 576.735 810.653 573.252 802.365 572.171ZM892.277 402.436C892.277 398.352 892.638 394.748 893.358 391.625C894.079 388.382 895.461 385.739 897.503 383.697C899.545 381.655 902.368 380.093 905.971 379.012C909.575 377.931 914.26 377.39 920.026 377.39H998.947C1004.47 377.39 1008.92 377.931 1012.28 379.012C1015.76 379.973 1018.47 381.475 1020.39 383.517C1022.31 385.559 1023.57 388.142 1024.17 391.265C1024.77 394.388 1025.07 398.112 1025.07 402.436V537.215C1025.07 541.299 1024.77 544.903 1024.17 548.026C1023.57 551.029 1022.31 553.612 1020.39 555.774C1018.47 557.816 1015.76 559.378 1012.28 560.459C1008.92 561.42 1004.47 561.9 998.947 561.9H920.026C914.26 561.9 909.575 561.36 905.971 560.278C902.368 559.197 899.545 557.636 897.503 555.594C895.461 553.552 894.079 550.969 893.358 547.846C892.638 544.722 892.277 541.059 892.277 536.854V402.436ZM898.944 300.271C898.944 291.983 900.506 284.175 903.629 276.847C906.872 269.52 911.197 263.153 916.602 257.747C922.008 252.342 928.374 248.078 935.702 244.954C943.029 241.711 950.837 240.089 959.126 240.089C967.294 240.089 974.982 241.711 982.19 244.954C989.517 248.078 995.884 252.342 1001.29 257.747C1006.69 263.153 1010.96 269.52 1014.08 276.847C1017.33 284.175 1018.95 291.983 1018.95 300.271C1018.95 308.44 1017.33 316.188 1014.08 323.515C1010.96 330.722 1006.69 337.029 1001.29 342.435C995.884 347.84 989.517 352.165 982.19 355.408C974.982 358.531 967.294 360.093 959.126 360.093C950.837 360.093 943.029 358.531 935.702 355.408C928.374 352.165 922.008 347.84 916.602 342.435C911.197 337.029 906.872 330.722 903.629 323.515C900.506 316.188 898.944 308.44 898.944 300.271ZM1009.76 404.058C1009.76 401.415 1009.58 399.313 1009.22 397.751C1008.86 396.19 1008.14 395.049 1007.06 394.328C1005.97 393.487 1004.53 393.007 1002.73 392.886C1000.93 392.646 998.587 392.526 995.704 392.526V546.765C998.587 546.765 1000.93 546.705 1002.73 546.584C1004.53 546.344 1005.97 545.864 1007.06 545.143C1008.14 544.302 1008.86 543.161 1009.22 541.719C1009.58 540.158 1009.76 537.996 1009.76 535.233V404.058ZM988.857 300.271C988.857 308.68 987.175 316.608 983.811 324.056C980.568 331.503 976.123 337.99 970.478 343.516C975.283 342.314 979.667 340.332 983.631 337.57C987.715 334.807 991.199 331.563 994.082 327.84C997.085 323.996 999.427 319.731 1001.11 315.046C1002.79 310.362 1003.63 305.437 1003.63 300.271C1003.63 295.106 1002.79 290.181 1001.11 285.496C999.427 280.811 997.085 276.607 994.082 272.883C991.199 269.039 987.715 265.796 983.631 263.153C979.667 260.39 975.283 258.348 970.478 257.027C976.123 262.552 980.568 269.039 983.811 276.487C987.175 283.934 988.857 291.863 988.857 300.271ZM1186.88 371.084C1194.57 371.084 1202.26 371.564 1209.94 372.525C1217.63 373.366 1224.9 374.508 1231.75 375.949C1238.71 377.39 1245.02 379.012 1250.67 380.814C1256.43 382.496 1261.12 384.177 1264.72 385.859C1265.32 386.099 1265.92 386.46 1266.52 386.94C1267.24 387.421 1267.6 388.322 1267.6 389.643C1267.6 390.003 1267.54 390.484 1267.42 391.085C1267.3 391.685 1267.18 392.286 1267.06 392.886L1264.9 403.517C1264.66 404.959 1264.3 405.86 1263.82 406.22C1263.46 406.46 1263.1 406.58 1262.74 406.58C1262.14 406.58 1261 406.4 1259.31 406.04C1257.63 405.68 1255.83 405.499 1253.91 405.499C1247.06 405.499 1241.66 407.361 1237.69 411.085C1233.73 414.689 1231.21 421.055 1230.12 430.185L1220.03 514.331C1219.07 521.779 1216.55 528.746 1212.47 535.233C1208.5 541.719 1202.74 547.425 1195.17 552.35C1187.6 557.275 1178.23 561.119 1167.06 563.882C1156.01 566.765 1143.03 568.207 1128.14 568.207C1118.77 568.207 1109.64 567.606 1100.75 566.405C1091.86 565.324 1083.63 563.942 1076.07 562.261C1068.62 560.699 1062.07 559.137 1056.43 557.576C1050.9 555.894 1046.76 554.573 1043.99 553.612C1043.03 553.371 1042.31 553.071 1041.83 552.711C1041.23 552.23 1040.93 551.509 1040.93 550.548C1040.93 550.068 1040.99 549.527 1041.11 548.927C1041.23 548.326 1041.41 547.605 1041.65 546.765L1043.81 536.674C1044.05 535.713 1044.47 534.932 1045.07 534.332C1045.67 533.731 1046.76 533.431 1048.32 533.431C1052.28 533.431 1056.25 533.251 1060.21 532.89C1064.29 532.41 1068.02 531.269 1071.38 529.467C1074.86 527.665 1077.87 524.902 1080.39 521.178C1083.03 517.454 1084.84 512.229 1085.8 505.502L1098.41 418.653C1099.73 409.524 1103.09 401.896 1108.5 395.769C1113.91 389.643 1120.57 384.778 1128.5 381.174C1136.55 377.451 1145.62 374.868 1155.71 373.426C1165.8 371.865 1176.19 371.084 1186.88 371.084ZM1152.64 551.449C1169.22 549.527 1181.77 544.903 1190.3 537.575C1198.95 530.127 1203.94 520.878 1205.26 509.827L1214.81 430.185C1215.89 421.055 1218.53 413.488 1222.74 407.481C1227.06 401.475 1232.95 397.811 1240.4 396.49C1233.67 396.49 1227.9 397.391 1223.1 399.193C1218.41 400.995 1214.45 403.457 1211.21 406.58C1207.96 409.584 1205.44 413.127 1203.64 417.211C1201.96 421.296 1200.87 425.62 1200.39 430.185L1190.84 509.827C1190.24 514.511 1188.98 519.016 1187.06 523.341C1185.26 527.665 1182.8 531.689 1179.67 535.413C1176.55 539.017 1172.71 542.26 1168.14 545.143C1163.7 547.906 1158.53 550.008 1152.64 551.449Z" fill="#333333"/>
<path d="M724.037 187.906C721.001 189.075 718.22 189.838 715.694 190.195C713.078 190.587 710.721 190.315 708.623 189.38C706.524 188.445 704.561 186.791 702.733 184.42C700.905 182.048 699.171 178.717 697.532 174.427L675.095 115.711C673.524 111.6 672.663 108.139 672.51 105.327C672.234 102.46 672.582 100.02 673.553 98.0057C674.525 95.9915 676.086 94.3142 678.236 92.9738C680.387 91.6334 683.07 90.3445 686.284 89.1072L786.463 50.5456C789.499 49.3771 792.263 48.5695 794.755 48.1227C797.158 47.7104 799.436 47.9098 801.59 48.7211C803.654 49.5668 805.583 51.1308 807.377 53.4132C809.048 55.6407 810.668 58.8099 812.239 62.9209L834.676 121.637C836.315 125.927 837.245 129.567 837.466 132.557C837.687 135.548 837.329 138.095 836.391 140.198C835.454 142.302 833.927 144.069 831.81 145.498C829.694 146.928 827.073 148.245 823.948 149.448L724.037 187.906ZM646.203 212.176C640.043 214.548 633.795 215.62 627.461 215.393C621.092 215.076 615.131 213.681 609.576 211.206C604.021 208.73 599.042 205.214 594.637 200.656C590.143 196.132 586.718 190.787 584.362 184.621C582.04 178.544 581.059 172.36 581.421 166.07C581.659 159.724 583.019 153.768 585.5 148.2C587.981 142.631 591.501 137.637 596.06 133.217C600.584 128.708 605.927 125.267 612.088 122.896C618.159 120.559 624.379 119.548 630.748 119.865C636.993 120.126 642.892 121.495 648.447 123.97C654.002 126.445 659.026 129.944 663.52 134.468C667.89 138.936 671.237 144.209 673.559 150.286C675.915 156.453 676.974 162.709 676.736 169.054C676.408 175.434 675.004 181.407 672.523 186.976C670.042 192.544 666.584 197.566 662.148 202.041C657.59 206.461 652.275 209.839 646.203 212.176ZM691.843 100.038C689.879 100.794 688.368 101.53 687.31 102.244C686.251 102.959 685.608 103.822 685.38 104.833C685.062 105.878 685.115 107.087 685.538 108.462C685.871 109.872 686.448 111.649 687.267 113.794L801.911 69.6644C801.092 67.5195 800.381 65.7939 799.779 64.4877C799.089 63.2159 798.322 62.281 797.479 61.6828C796.546 61.1191 795.493 60.9094 794.319 61.0537C793.056 61.2324 791.398 61.7169 789.344 62.5074L691.843 100.038ZM620.642 145.283C626.892 142.877 633.263 141.86 639.755 142.231C646.213 142.514 652.298 143.964 658.01 146.584C655.751 143.353 653.032 140.658 649.851 138.499C646.636 136.251 643.235 134.587 639.648 133.508C635.937 132.373 632.101 131.851 628.141 131.94C624.181 132.029 620.281 132.812 616.442 134.29C612.602 135.768 609.181 137.803 606.177 140.394C603.173 142.986 600.713 145.932 598.799 149.231C596.762 152.476 595.341 155.996 594.538 159.79C593.612 163.53 593.34 167.376 593.724 171.329C596.226 165.548 599.784 160.385 604.398 155.841C608.977 151.208 614.392 147.689 620.642 145.283Z" fill="#333333"/>
<path d="M361.88 326.622C347.267 349.272 317.989 355.586 295.339 340.972C272.69 326.359 266.376 297.081 280.989 274.432C295.603 251.782 324.881 245.468 347.53 260.082C370.179 274.695 376.493 303.973 361.88 326.622Z" fill="white"/>
</svg>
