<svg width="727" height="421" viewBox="0 0 727 421" fill="none" xmlns="http://www.w3.org/2000/svg">
<path d="M17.2454 410V406.27H25.616C27.8424 406.27 29.7941 405.793 31.4711 404.839C33.1481 403.856 34.4493 402.511 35.3745 400.805C36.3287 399.099 36.8057 397.133 36.8057 394.907C36.8057 392.709 36.3287 390.758 35.3745 389.052C34.4203 387.346 33.1048 386.016 31.4277 385.062C29.7507 384.108 27.8135 383.63 25.616 383.63H17.2888V379.901H25.7028C27.9002 379.901 29.9242 380.276 31.7747 381.028C33.6541 381.78 35.2733 382.835 36.6323 384.194C38.0201 385.553 39.09 387.143 39.8417 388.965C40.6224 390.787 41.0127 392.782 41.0127 394.95C41.0127 397.09 40.6224 399.085 39.8417 400.935C39.09 402.757 38.0346 404.347 36.6756 405.706C35.3167 407.065 33.6975 408.121 31.8181 408.872C29.9676 409.624 27.9581 410 25.7895 410H17.2454ZM14.5564 410V379.901H18.6333V410H14.5564ZM55.3787 410.434C53.3547 410.434 51.5331 409.957 49.9139 409.002C48.2948 408.048 47.0081 406.762 46.0539 405.142C45.0998 403.494 44.6227 401.658 44.6227 399.634C44.6227 397.639 45.0998 395.847 46.0539 394.256C47.0081 392.637 48.2948 391.35 49.9139 390.396C51.5331 389.442 53.3547 388.965 55.3787 388.965C57.3738 388.965 59.1809 389.442 60.8001 390.396C62.4482 391.322 63.7493 392.594 64.7035 394.213C65.6576 395.832 66.1347 397.639 66.1347 399.634C66.1347 401.658 65.6576 403.494 64.7035 405.142C63.7493 406.762 62.4482 408.048 60.8001 409.002C59.1809 409.957 57.3738 410.434 55.3787 410.434ZM55.3787 406.66C56.6798 406.66 57.8364 406.357 58.8484 405.75C59.8604 405.142 60.6555 404.318 61.2338 403.277C61.8121 402.208 62.1012 400.993 62.1012 399.634C62.1012 398.304 61.7976 397.119 61.1904 396.078C60.6121 395.037 59.817 394.227 58.805 393.649C57.8219 393.042 56.6798 392.738 55.3787 392.738C54.0776 392.738 52.921 393.042 51.909 393.649C50.897 394.227 50.1019 395.037 49.5236 396.078C48.9453 397.119 48.6562 398.304 48.6562 399.634C48.6562 400.993 48.9453 402.208 49.5236 403.277C50.1019 404.318 50.897 405.142 51.909 405.75C52.921 406.357 54.0776 406.66 55.3787 406.66ZM79.9443 410.434C77.9203 410.434 76.0843 409.957 74.4362 409.002C72.817 408.048 71.5303 406.762 70.5762 405.142C69.6509 403.494 69.1883 401.673 69.1883 399.678C69.1883 397.654 69.6509 395.832 70.5762 394.213C71.5303 392.594 72.817 391.322 74.4362 390.396C76.0843 389.442 77.9203 388.965 79.9443 388.965C81.5346 388.965 83.0092 389.269 84.3681 389.876C85.7271 390.454 86.8981 391.307 87.8812 392.435L85.2789 395.037C84.6428 394.285 83.8621 393.721 82.9369 393.346C82.0406 392.941 81.043 392.738 79.9443 392.738C78.6432 392.738 77.4866 393.042 76.4746 393.649C75.4626 394.227 74.6675 395.037 74.0892 396.078C73.5109 397.119 73.2218 398.319 73.2218 399.678C73.2218 401.037 73.5109 402.237 74.0892 403.277C74.6675 404.318 75.4626 405.142 76.4746 405.75C77.4866 406.357 78.6432 406.66 79.9443 406.66C81.043 406.66 82.0406 406.472 82.9369 406.097C83.8621 405.692 84.6573 405.114 85.3223 404.362L87.8812 406.964C86.927 408.063 85.756 408.916 84.3681 409.523C83.0092 410.13 81.5346 410.434 79.9443 410.434ZM100.036 410.434C98.3592 410.434 96.8413 410.058 95.4823 409.306C94.1523 408.525 93.1114 407.456 92.3596 406.097C91.6078 404.738 91.2319 403.162 91.2319 401.369V389.399H95.1353V401.196C95.1353 402.323 95.3233 403.306 95.6992 404.145C96.104 404.955 96.6822 405.576 97.434 406.01C98.1858 406.444 99.0676 406.66 100.08 406.66C101.612 406.66 102.812 406.183 103.679 405.229C104.547 404.246 104.981 402.902 104.981 401.196V389.399H108.884V401.369C108.884 403.162 108.508 404.738 107.756 406.097C107.005 407.456 105.964 408.525 104.634 409.306C103.332 410.058 101.8 410.434 100.036 410.434ZM114.116 410V389.399H118.019V410H114.116ZM128.038 410V397.553C128.038 396.02 127.561 394.82 126.606 393.953C125.681 393.056 124.51 392.608 123.093 392.608C122.139 392.608 121.286 392.811 120.534 393.215C119.783 393.62 119.176 394.184 118.713 394.907C118.25 395.63 118.019 396.497 118.019 397.509L116.414 396.728C116.414 395.167 116.747 393.808 117.412 392.652C118.106 391.495 119.045 390.599 120.231 389.963C121.416 389.298 122.746 388.965 124.221 388.965C125.667 388.965 126.968 389.283 128.124 389.919C129.31 390.555 130.235 391.452 130.9 392.608C131.594 393.765 131.941 395.138 131.941 396.728V410H128.038ZM141.96 410V397.553C141.96 396.02 141.483 394.82 140.529 393.953C139.603 393.056 138.447 392.608 137.059 392.608C136.105 392.608 135.237 392.811 134.457 393.215C133.705 393.62 133.098 394.184 132.635 394.907C132.172 395.63 131.941 396.497 131.941 397.509L129.729 396.728C129.816 395.138 130.235 393.779 130.987 392.652C131.768 391.495 132.765 390.599 133.979 389.963C135.194 389.298 136.524 388.965 137.97 388.965C139.473 388.965 140.818 389.283 142.003 389.919C143.189 390.555 144.128 391.452 144.822 392.608C145.545 393.765 145.907 395.153 145.907 396.772V410H141.96ZM160.76 410.434C158.707 410.434 156.856 409.971 155.208 409.046C153.56 408.092 152.259 406.805 151.305 405.186C150.351 403.567 149.874 401.731 149.874 399.678C149.874 397.654 150.336 395.832 151.261 394.213C152.216 392.594 153.488 391.322 155.078 390.396C156.697 389.442 158.504 388.965 160.5 388.965C162.408 388.965 164.085 389.399 165.531 390.266C167.005 391.134 168.147 392.334 168.957 393.866C169.795 395.398 170.215 397.133 170.215 399.071C170.215 399.36 170.2 399.678 170.171 400.025C170.142 400.343 170.084 400.719 169.998 401.152H152.606V397.899H167.916L166.485 399.157C166.485 397.769 166.239 396.598 165.747 395.644C165.256 394.661 164.562 393.909 163.666 393.389C162.769 392.84 161.685 392.565 160.413 392.565C159.083 392.565 157.912 392.854 156.9 393.432C155.888 394.011 155.107 394.82 154.558 395.861C154.008 396.902 153.734 398.131 153.734 399.548C153.734 400.993 154.023 402.266 154.601 403.364C155.179 404.434 156.003 405.273 157.073 405.88C158.143 406.458 159.372 406.747 160.76 406.747C161.916 406.747 162.972 406.545 163.926 406.14C164.909 405.735 165.747 405.128 166.441 404.318L168.957 406.877C167.974 408.034 166.759 408.916 165.314 409.523C163.897 410.13 162.379 410.434 160.76 410.434ZM189.043 410V397.986C189.043 396.425 188.552 395.138 187.569 394.126C186.586 393.114 185.313 392.608 183.752 392.608C182.711 392.608 181.786 392.84 180.976 393.302C180.167 393.765 179.531 394.401 179.068 395.21C178.605 396.02 178.374 396.945 178.374 397.986L176.769 397.075C176.769 395.514 177.116 394.126 177.81 392.912C178.504 391.697 179.473 390.743 180.716 390.049C181.959 389.326 183.362 388.965 184.923 388.965C186.484 388.965 187.858 389.355 189.043 390.136C190.258 390.917 191.212 391.943 191.906 393.215C192.6 394.459 192.947 395.789 192.947 397.206V410H189.043ZM174.471 410V389.399H178.374V410H174.471ZM201.144 410V380.768H205.047V410H201.144ZM196.069 392.955V389.399H210.121V392.955H196.069ZM213.988 410V389.399H217.892V410H213.988ZM215.94 385.279C215.217 385.279 214.625 385.047 214.162 384.585C213.699 384.093 213.468 383.486 213.468 382.763C213.468 382.069 213.699 381.491 214.162 381.028C214.625 380.537 215.217 380.291 215.94 380.291C216.663 380.291 217.256 380.537 217.718 381.028C218.181 381.491 218.412 382.069 218.412 382.763C218.412 383.486 218.181 384.093 217.718 384.585C217.256 385.047 216.663 385.279 215.94 385.279ZM238.217 410V397.986C238.217 396.425 237.725 395.138 236.742 394.126C235.759 393.114 234.487 392.608 232.926 392.608C231.885 392.608 230.96 392.84 230.15 393.302C229.34 393.765 228.704 394.401 228.242 395.21C227.779 396.02 227.548 396.945 227.548 397.986L225.943 397.075C225.943 395.514 226.29 394.126 226.984 392.912C227.678 391.697 228.646 390.743 229.89 390.049C231.133 389.326 232.535 388.965 234.097 388.965C235.658 388.965 237.031 389.355 238.217 390.136C239.431 390.917 240.385 391.943 241.079 393.215C241.773 394.459 242.12 395.789 242.12 397.206V410H238.217ZM223.644 410V389.399H227.548V410H223.644ZM255.949 419.065C253.839 419.065 251.959 418.674 250.311 417.894C248.692 417.113 247.391 416.014 246.408 414.597L248.923 412.038C249.762 413.108 250.759 413.918 251.916 414.467C253.072 415.045 254.446 415.335 256.036 415.335C258.147 415.335 259.809 414.771 261.024 413.643C262.267 412.544 262.889 411.055 262.889 409.176V404.058L263.583 399.417L262.889 394.82V389.399H266.792V409.176C266.792 411.142 266.329 412.862 265.404 414.337C264.508 415.812 263.236 416.968 261.587 417.807C259.968 418.645 258.089 419.065 255.949 419.065ZM255.949 409.653C254.07 409.653 252.378 409.205 250.875 408.309C249.4 407.412 248.229 406.183 247.362 404.622C246.494 403.032 246.061 401.254 246.061 399.287C246.061 397.321 246.494 395.572 247.362 394.039C248.229 392.478 249.4 391.249 250.875 390.353C252.378 389.428 254.07 388.965 255.949 388.965C257.568 388.965 259 389.283 260.243 389.919C261.486 390.555 262.469 391.452 263.192 392.608C263.944 393.736 264.349 395.066 264.407 396.598V402.063C264.32 403.567 263.901 404.897 263.149 406.053C262.426 407.181 261.443 408.063 260.2 408.699C258.956 409.335 257.54 409.653 255.949 409.653ZM256.73 405.966C258.002 405.966 259.115 405.692 260.069 405.142C261.053 404.593 261.804 403.827 262.325 402.844C262.845 401.832 263.105 400.661 263.105 399.331C263.105 398.001 262.831 396.844 262.281 395.861C261.761 394.849 261.024 394.068 260.069 393.519C259.115 392.941 257.988 392.652 256.687 392.652C255.385 392.652 254.243 392.941 253.26 393.519C252.277 394.068 251.496 394.849 250.918 395.861C250.369 396.844 250.094 397.986 250.094 399.287C250.094 400.588 250.369 401.745 250.918 402.757C251.496 403.769 252.277 404.564 253.26 405.142C254.272 405.692 255.429 405.966 256.73 405.966ZM282.237 410V379.901H286.314V410H282.237ZM302.136 410.434C300.112 410.434 298.276 409.957 296.628 409.002C295.009 408.048 293.722 406.762 292.768 405.142C291.843 403.494 291.38 401.673 291.38 399.678C291.38 397.654 291.843 395.832 292.768 394.213C293.722 392.594 295.009 391.322 296.628 390.396C298.276 389.442 300.112 388.965 302.136 388.965C303.726 388.965 305.201 389.269 306.56 389.876C307.919 390.454 309.09 391.307 310.073 392.435L307.471 395.037C306.834 394.285 306.054 393.721 305.129 393.346C304.232 392.941 303.235 392.738 302.136 392.738C300.835 392.738 299.678 393.042 298.666 393.649C297.654 394.227 296.859 395.037 296.281 396.078C295.703 397.119 295.413 398.319 295.413 399.678C295.413 401.037 295.703 402.237 296.281 403.277C296.859 404.318 297.654 405.142 298.666 405.75C299.678 406.357 300.835 406.66 302.136 406.66C303.235 406.66 304.232 406.472 305.129 406.097C306.054 405.692 306.849 405.114 307.514 404.362L310.073 406.964C309.119 408.063 307.948 408.916 306.56 409.523C305.201 410.13 303.726 410.434 302.136 410.434ZM323.062 410.434C321.009 410.434 319.159 409.971 317.511 409.046C315.863 408.092 314.561 406.805 313.607 405.186C312.653 403.567 312.176 401.731 312.176 399.678C312.176 397.654 312.639 395.832 313.564 394.213C314.518 392.594 315.79 391.322 317.381 390.396C319 389.442 320.807 388.965 322.802 388.965C324.71 388.965 326.387 389.399 327.833 390.266C329.308 391.134 330.45 392.334 331.259 393.866C332.098 395.398 332.517 397.133 332.517 399.071C332.517 399.36 332.503 399.678 332.474 400.025C332.445 400.343 332.387 400.719 332.3 401.152H314.908V397.899H330.218L328.787 399.157C328.787 397.769 328.541 396.598 328.05 395.644C327.558 394.661 326.864 393.909 325.968 393.389C325.072 392.84 323.987 392.565 322.715 392.565C321.385 392.565 320.214 392.854 319.202 393.432C318.19 394.011 317.409 394.82 316.86 395.861C316.311 396.902 316.036 398.131 316.036 399.548C316.036 400.993 316.325 402.266 316.903 403.364C317.482 404.434 318.306 405.273 319.376 405.88C320.445 406.458 321.674 406.747 323.062 406.747C324.219 406.747 325.274 406.545 326.228 406.14C327.211 405.735 328.05 405.128 328.744 404.318L331.259 406.877C330.276 408.034 329.062 408.916 327.616 409.523C326.199 410.13 324.681 410.434 323.062 410.434ZM336.773 410V379.033H340.677V410H336.773ZM355.149 410.434C353.269 410.434 351.563 409.971 350.031 409.046C348.498 408.092 347.284 406.805 346.388 405.186C345.52 403.567 345.086 401.745 345.086 399.721C345.086 397.697 345.52 395.876 346.388 394.256C347.284 392.637 348.484 391.35 349.987 390.396C351.52 389.442 353.24 388.965 355.149 388.965C356.71 388.965 358.098 389.298 359.312 389.963C360.555 390.599 361.553 391.495 362.305 392.652C363.057 393.779 363.476 395.095 363.563 396.598V402.8C363.476 404.275 363.057 405.591 362.305 406.747C361.582 407.904 360.599 408.815 359.356 409.48C358.141 410.116 356.739 410.434 355.149 410.434ZM355.799 406.747C357.736 406.747 359.298 406.097 360.483 404.795C361.669 403.465 362.261 401.774 362.261 399.721C362.261 398.304 361.987 397.075 361.437 396.035C360.917 394.965 360.165 394.141 359.182 393.562C358.199 392.955 357.057 392.652 355.756 392.652C354.455 392.652 353.298 392.955 352.286 393.562C351.303 394.17 350.522 395.008 349.944 396.078C349.395 397.119 349.12 398.319 349.12 399.678C349.12 401.066 349.395 402.294 349.944 403.364C350.522 404.405 351.317 405.229 352.329 405.836C353.341 406.444 354.498 406.747 355.799 406.747ZM362.001 410V404.449L362.738 399.417L362.001 394.43V389.399H365.948V410H362.001ZM386.204 410V397.986C386.204 396.425 385.712 395.138 384.729 394.126C383.746 393.114 382.474 392.608 380.912 392.608C379.871 392.608 378.946 392.84 378.137 393.302C377.327 393.765 376.691 394.401 376.228 395.21C375.766 396.02 375.534 396.945 375.534 397.986L373.93 397.075C373.93 395.514 374.276 394.126 374.97 392.912C375.664 391.697 376.633 390.743 377.876 390.049C379.12 389.326 380.522 388.965 382.083 388.965C383.645 388.965 385.018 389.355 386.204 390.136C387.418 390.917 388.372 391.943 389.066 393.215C389.76 394.459 390.107 395.789 390.107 397.206V410H386.204ZM371.631 410V389.399H375.534V410H371.631ZM404.109 410.434C402.201 410.434 400.495 409.971 398.992 409.046C397.488 408.092 396.288 406.805 395.392 405.186C394.524 403.567 394.091 401.745 394.091 399.721C394.091 397.697 394.524 395.876 395.392 394.256C396.288 392.637 397.488 391.35 398.992 390.396C400.495 389.442 402.201 388.965 404.109 388.965C405.642 388.965 407.03 389.298 408.273 389.963C409.516 390.599 410.514 391.495 411.266 392.652C412.046 393.779 412.48 395.095 412.567 396.598V402.8C412.48 404.275 412.061 405.591 411.309 406.747C410.557 407.904 409.56 408.815 408.316 409.48C407.073 410.116 405.671 410.434 404.109 410.434ZM404.76 406.747C406.061 406.747 407.189 406.444 408.143 405.836C409.126 405.229 409.892 404.405 410.441 403.364C410.991 402.294 411.266 401.08 411.266 399.721C411.266 398.304 410.976 397.075 410.398 396.035C409.849 394.994 409.083 394.17 408.099 393.562C407.145 392.955 406.018 392.652 404.717 392.652C403.415 392.652 402.273 392.955 401.29 393.562C400.307 394.17 399.526 395.008 398.948 396.078C398.399 397.119 398.124 398.319 398.124 399.678C398.124 401.066 398.399 402.294 398.948 403.364C399.526 404.405 400.307 405.229 401.29 405.836C402.302 406.444 403.459 406.747 404.76 406.747ZM414.952 410H411.005V404.449L411.743 399.417L411.005 394.43V379.033H414.952V410ZM420.678 410V389.399H424.582V410H420.678ZM422.63 385.279C421.907 385.279 421.314 385.047 420.852 384.585C420.389 384.093 420.158 383.486 420.158 382.763C420.158 382.069 420.389 381.491 420.852 381.028C421.314 380.537 421.907 380.291 422.63 380.291C423.353 380.291 423.946 380.537 424.408 381.028C424.871 381.491 425.102 382.069 425.102 382.763C425.102 383.486 424.871 384.093 424.408 384.585C423.946 385.047 423.353 385.279 422.63 385.279ZM439.746 410.434C437.722 410.434 435.886 409.957 434.238 409.002C432.618 408.048 431.332 406.762 430.378 405.142C429.452 403.494 428.99 401.673 428.99 399.678C428.99 397.654 429.452 395.832 430.378 394.213C431.332 392.594 432.618 391.322 434.238 390.396C435.886 389.442 437.722 388.965 439.746 388.965C441.336 388.965 442.811 389.269 444.17 389.876C445.529 390.454 446.7 391.307 447.683 392.435L445.08 395.037C444.444 394.285 443.664 393.721 442.738 393.346C441.842 392.941 440.844 392.738 439.746 392.738C438.445 392.738 437.288 393.042 436.276 393.649C435.264 394.227 434.469 395.037 433.891 396.078C433.312 397.119 433.023 398.319 433.023 399.678C433.023 401.037 433.312 402.237 433.891 403.277C434.469 404.318 435.264 405.142 436.276 405.75C437.288 406.357 438.445 406.66 439.746 406.66C440.844 406.66 441.842 406.472 442.738 406.097C443.664 405.692 444.459 405.114 445.124 404.362L447.683 406.964C446.728 408.063 445.557 408.916 444.17 409.523C442.811 410.13 441.336 410.434 439.746 410.434ZM468.572 410V380.768H472.649V410H468.572ZM458.336 383.63V379.901H482.841V383.63H458.336ZM490.048 410.434C488.168 410.434 486.462 409.971 484.93 409.046C483.397 408.092 482.183 406.805 481.287 405.186C480.419 403.567 479.986 401.745 479.986 399.721C479.986 397.697 480.419 395.876 481.287 394.256C482.183 392.637 483.383 391.35 484.886 390.396C486.419 389.442 488.139 388.965 490.048 388.965C491.609 388.965 492.997 389.298 494.211 389.963C495.455 390.599 496.452 391.495 497.204 392.652C497.956 393.779 498.375 395.095 498.462 396.598V402.8C498.375 404.275 497.956 405.591 497.204 406.747C496.481 407.904 495.498 408.815 494.255 409.48C493.04 410.116 491.638 410.434 490.048 410.434ZM490.698 406.747C492.635 406.747 494.197 406.097 495.382 404.795C496.568 403.465 497.16 401.774 497.16 399.721C497.16 398.304 496.886 397.075 496.336 396.035C495.816 394.965 495.064 394.141 494.081 393.562C493.098 392.955 491.956 392.652 490.655 392.652C489.354 392.652 488.197 392.955 487.185 393.562C486.202 394.17 485.421 395.008 484.843 396.078C484.294 397.119 484.019 398.319 484.019 399.678C484.019 401.066 484.294 402.294 484.843 403.364C485.421 404.405 486.216 405.229 487.228 405.836C488.24 406.444 489.397 406.747 490.698 406.747ZM496.9 410V404.449L497.638 399.417L496.9 394.43V389.399H500.847V410H496.9ZM517.373 410.434C515.811 410.434 514.395 410.116 513.122 409.48C511.879 408.815 510.881 407.904 510.13 406.747C509.378 405.591 508.959 404.275 508.872 402.8V396.598C508.959 395.095 509.378 393.779 510.13 392.652C510.91 391.495 511.922 390.599 513.166 389.963C514.438 389.298 515.84 388.965 517.373 388.965C519.252 388.965 520.944 389.442 522.447 390.396C523.98 391.35 525.179 392.637 526.047 394.256C526.914 395.876 527.348 397.697 527.348 399.721C527.348 401.745 526.914 403.567 526.047 405.186C525.179 406.805 523.98 408.092 522.447 409.046C520.944 409.971 519.252 410.434 517.373 410.434ZM516.722 406.747C518.023 406.747 519.165 406.444 520.148 405.836C521.132 405.229 521.912 404.405 522.49 403.364C523.069 402.294 523.358 401.066 523.358 399.678C523.358 398.319 523.069 397.104 522.49 396.035C521.912 394.965 521.132 394.141 520.148 393.562C519.165 392.955 518.038 392.652 516.765 392.652C515.464 392.652 514.322 392.955 513.339 393.562C512.356 394.141 511.59 394.965 511.041 396.035C510.491 397.104 510.216 398.333 510.216 399.721C510.216 401.08 510.477 402.294 510.997 403.364C511.547 404.405 512.313 405.229 513.296 405.836C514.308 406.444 515.45 406.747 516.722 406.747ZM506.53 410V379.033H510.433V394.43L509.696 399.417L510.433 404.449V410H506.53ZM531.773 410V379.033H535.677V410H531.773ZM550.929 410.434C548.876 410.434 547.026 409.971 545.378 409.046C543.73 408.092 542.429 406.805 541.474 405.186C540.52 403.567 540.043 401.731 540.043 399.678C540.043 397.654 540.506 395.832 541.431 394.213C542.385 392.594 543.657 391.322 545.248 390.396C546.867 389.442 548.674 388.965 550.669 388.965C552.577 388.965 554.254 389.399 555.7 390.266C557.175 391.134 558.317 392.334 559.126 393.866C559.965 395.398 560.384 397.133 560.384 399.071C560.384 399.36 560.37 399.678 560.341 400.025C560.312 400.343 560.254 400.719 560.167 401.152H542.776V397.899H558.086L556.654 399.157C556.654 397.769 556.409 396.598 555.917 395.644C555.425 394.661 554.732 393.909 553.835 393.389C552.939 392.84 551.855 392.565 550.582 392.565C549.252 392.565 548.081 392.854 547.069 393.432C546.057 394.011 545.277 394.82 544.727 395.861C544.178 396.902 543.903 398.131 543.903 399.548C543.903 400.993 544.192 402.266 544.771 403.364C545.349 404.434 546.173 405.273 547.243 405.88C548.313 406.458 549.541 406.747 550.929 406.747C552.086 406.747 553.141 406.545 554.095 406.14C555.078 405.735 555.917 405.128 556.611 404.318L559.126 406.877C558.143 408.034 556.929 408.916 555.483 409.523C554.066 410.13 552.548 410.434 550.929 410.434ZM581.658 410V380.768H585.735V410H581.658ZM571.423 383.63V379.901H595.927V383.63H571.423ZM603.915 410.434C601.862 410.434 600.011 409.971 598.363 409.046C596.715 408.092 595.414 406.805 594.46 405.186C593.506 403.567 593.029 401.731 593.029 399.678C593.029 397.654 593.491 395.832 594.416 394.213C595.371 392.594 596.643 391.322 598.233 390.396C599.852 389.442 601.659 388.965 603.654 388.965C605.563 388.965 607.24 389.399 608.686 390.266C610.16 391.134 611.302 392.334 612.112 393.866C612.95 395.398 613.37 397.133 613.37 399.071C613.37 399.36 613.355 399.678 613.326 400.025C613.297 400.343 613.239 400.719 613.153 401.152H595.761V397.899H611.071L609.64 399.157C609.64 397.769 609.394 396.598 608.902 395.644C608.411 394.661 607.717 393.909 606.821 393.389C605.924 392.84 604.84 392.565 603.568 392.565C602.238 392.565 601.067 392.854 600.055 393.432C599.043 394.011 598.262 394.82 597.713 395.861C597.163 396.902 596.889 398.131 596.889 399.548C596.889 400.993 597.178 402.266 597.756 403.364C598.334 404.434 599.158 405.273 600.228 405.88C601.298 406.458 602.527 406.747 603.915 406.747C605.071 406.747 606.127 406.545 607.081 406.14C608.064 405.735 608.902 405.128 609.596 404.318L612.112 406.877C611.129 408.034 609.914 408.916 608.469 409.523C607.052 410.13 605.534 410.434 603.915 410.434ZM632.198 410V397.986C632.198 396.425 631.707 395.138 630.724 394.126C629.741 393.114 628.468 392.608 626.907 392.608C625.866 392.608 624.941 392.84 624.131 393.302C623.322 393.765 622.686 394.401 622.223 395.21C621.76 396.02 621.529 396.945 621.529 397.986L619.924 397.075C619.924 395.514 620.271 394.126 620.965 392.912C621.659 391.697 622.628 390.743 623.871 390.049C625.114 389.326 626.517 388.965 628.078 388.965C629.639 388.965 631.013 389.355 632.198 390.136C633.413 390.917 634.367 391.943 635.061 393.215C635.755 394.459 636.102 395.789 636.102 397.206V410H632.198ZM617.626 410V389.399H621.529V410H617.626ZM655.959 410V397.986C655.959 396.425 655.468 395.138 654.485 394.126C653.502 393.114 652.229 392.608 650.668 392.608C649.627 392.608 648.702 392.84 647.892 393.302C647.083 393.765 646.447 394.401 645.984 395.21C645.521 396.02 645.29 396.945 645.29 397.986L643.685 397.075C643.685 395.514 644.032 394.126 644.726 392.912C645.42 391.697 646.389 390.743 647.632 390.049C648.875 389.326 650.278 388.965 651.839 388.965C653.4 388.965 654.774 389.355 655.959 390.136C657.174 390.917 658.128 391.943 658.822 393.215C659.516 394.459 659.863 395.789 659.863 397.206V410H655.959ZM641.387 410V389.399H645.29V410H641.387ZM665.191 410V389.399H669.094V410H665.191ZM667.143 385.279C666.42 385.279 665.827 385.047 665.364 384.585C664.902 384.093 664.67 383.486 664.67 382.763C664.67 382.069 664.902 381.491 665.364 381.028C665.827 380.537 666.42 380.291 667.143 380.291C667.865 380.291 668.458 380.537 668.921 381.028C669.383 381.491 669.615 382.069 669.615 382.763C669.615 383.486 669.383 384.093 668.921 384.585C668.458 385.047 667.865 385.279 667.143 385.279ZM681.396 410.434C680.239 410.434 679.14 410.289 678.1 410C677.088 409.682 676.148 409.248 675.28 408.699C674.413 408.121 673.661 407.441 673.025 406.66L675.541 404.145C676.292 405.07 677.16 405.764 678.143 406.227C679.126 406.66 680.225 406.877 681.439 406.877C682.653 406.877 683.593 406.675 684.258 406.27C684.923 405.836 685.256 405.244 685.256 404.492C685.256 403.74 684.981 403.162 684.432 402.757C683.911 402.323 683.232 401.976 682.393 401.716C681.555 401.427 680.658 401.152 679.704 400.892C678.779 400.603 677.897 400.242 677.059 399.808C676.22 399.374 675.526 398.781 674.977 398.03C674.456 397.278 674.196 396.28 674.196 395.037C674.196 393.794 674.5 392.724 675.107 391.828C675.714 390.902 676.553 390.194 677.622 389.702C678.721 389.211 680.037 388.965 681.569 388.965C683.188 388.965 684.62 389.254 685.863 389.832C687.135 390.382 688.176 391.22 688.986 392.348L686.47 394.864C685.892 394.112 685.169 393.533 684.302 393.129C683.463 392.724 682.509 392.521 681.439 392.521C680.311 392.521 679.444 392.724 678.837 393.129C678.259 393.505 677.969 394.039 677.969 394.733C677.969 395.427 678.23 395.962 678.75 396.338C679.271 396.714 679.95 397.032 680.789 397.292C681.656 397.553 682.552 397.827 683.478 398.116C684.403 398.377 685.285 398.738 686.123 399.201C686.962 399.663 687.641 400.285 688.162 401.066C688.711 401.846 688.986 402.873 688.986 404.145C688.986 406.082 688.292 407.615 686.904 408.742C685.545 409.87 683.709 410.434 681.396 410.434Z" fill="#333333"/>
<path d="M397.481 109.357L378.844 68.42C378.844 68.42 347.782 0.191396 279.556 23.925C211.331 47.6586 208.89 111.735 224.421 145.849C239.952 179.964 292.092 225.053 360.317 201.319C428.543 177.586 397.481 109.357 397.481 109.357Z" fill="#333333"/>
<path d="M68.7628 213.087C73.8563 213.087 78.9154 213.465 83.9401 214.222C88.9649 214.98 93.7831 216.219 98.3948 217.939C103.007 219.66 107.274 221.897 111.197 224.65C115.121 227.404 118.528 230.811 121.419 234.872C124.31 238.933 126.581 243.682 128.233 249.12C129.885 254.489 130.711 260.684 130.711 267.705C130.711 276.377 129.472 283.88 126.994 290.212C124.516 296.476 121.212 301.742 117.083 306.009C112.953 310.277 108.169 313.65 102.731 316.128C97.2935 318.537 91.5805 320.223 85.5921 321.187V349.27C85.5921 351.748 85.3856 353.882 84.9726 355.671C84.5596 357.461 83.8025 358.941 82.7012 360.111C81.6687 361.35 80.1544 362.245 78.1583 362.795C76.231 363.415 73.7187 363.725 70.6212 363.725H25.3989C22.0949 363.725 19.4105 363.415 17.3456 362.795C15.2806 362.176 13.6631 361.247 12.4929 360.008C11.3228 358.838 10.5312 357.358 10.1182 355.568C9.70526 353.778 9.49876 351.679 9.49876 349.27V266.672C9.49876 258.137 10.8066 250.531 13.4222 243.854C16.1066 237.178 19.9612 231.568 24.9859 227.025C30.0794 222.482 36.2743 219.041 43.5704 216.7C50.9354 214.291 59.3328 213.087 68.7628 213.087ZM116.05 267.601C116.05 262.301 115.465 257.38 114.295 252.837C113.125 248.294 111.301 244.267 108.823 240.757C106.345 237.247 103.179 234.39 99.324 232.187C95.5383 229.916 90.961 228.471 85.5921 227.851V307.971C90.961 307.283 95.5383 305.803 99.324 303.531C103.179 301.26 106.345 298.335 108.823 294.755C111.301 291.176 113.125 287.081 114.295 282.469C115.465 277.857 116.05 272.901 116.05 267.601ZM76.9193 226.715C76.3687 226.646 75.7148 226.578 74.9576 226.509C74.2005 226.44 73.4089 226.371 72.5829 226.302C71.8258 226.234 71.1031 226.199 70.4147 226.199C69.7264 226.199 69.2102 226.199 68.866 226.199L68.7628 355.052C70.4147 355.052 71.757 354.983 72.7894 354.845C73.8219 354.777 74.6479 354.501 75.2674 354.019C75.8868 353.606 76.2998 352.952 76.5063 352.058C76.7128 351.232 76.8161 350.027 76.8161 348.444L76.9193 226.715ZM145.785 229.813C145.785 227.472 145.992 225.408 146.405 223.618C146.818 221.759 147.609 220.245 148.78 219.075C149.95 217.905 151.567 217.01 153.632 216.391C155.697 215.771 158.382 215.461 161.685 215.461H206.908C210.074 215.461 212.621 215.771 214.548 216.391C216.544 216.941 218.093 217.802 219.194 218.972C220.296 220.142 221.018 221.622 221.362 223.411C221.707 225.201 221.879 227.335 221.879 229.813V307.042C221.879 309.382 221.707 311.447 221.362 313.237C221.018 314.957 220.296 316.437 219.194 317.676C218.093 318.846 216.544 319.741 214.548 320.361C212.621 320.911 210.074 321.187 206.908 321.187H161.685C158.382 321.187 155.697 320.877 153.632 320.257C151.567 319.638 149.95 318.743 148.78 317.573C147.609 316.403 146.818 314.923 146.405 313.133C145.992 311.344 145.785 309.244 145.785 306.835V229.813ZM149.606 171.271C149.606 166.522 150.5 162.048 152.29 157.849C154.148 153.651 156.626 150.002 159.724 146.905C162.821 143.808 166.469 141.364 170.668 139.575C174.867 137.716 179.341 136.787 184.09 136.787C188.771 136.787 193.176 137.716 197.306 139.575C201.505 141.364 205.153 143.808 208.25 146.905C211.347 150.002 213.791 153.651 215.581 157.849C217.439 162.048 218.368 166.522 218.368 171.271C218.368 175.952 217.439 180.392 215.581 184.59C213.791 188.72 211.347 192.334 208.25 195.431C205.153 198.529 201.505 201.007 197.306 202.865C193.176 204.655 188.771 205.55 184.09 205.55C179.341 205.55 174.867 204.655 170.668 202.865C166.469 201.007 162.821 198.529 159.724 195.431C156.626 192.334 154.148 188.72 152.29 184.59C150.5 180.392 149.606 175.952 149.606 171.271ZM213.103 230.742C213.103 229.228 212.999 228.023 212.793 227.128C212.586 226.234 212.173 225.58 211.554 225.167C210.934 224.685 210.108 224.409 209.076 224.341C208.044 224.203 206.701 224.134 205.049 224.134V312.514C206.701 312.514 208.044 312.48 209.076 312.411C210.108 312.273 210.934 311.998 211.554 311.585C212.173 311.103 212.586 310.449 212.793 309.623C212.999 308.728 213.103 307.489 213.103 305.906V230.742ZM201.126 171.271C201.126 176.09 200.162 180.633 198.235 184.9C196.377 189.168 193.83 192.885 190.595 196.051C193.348 195.363 195.86 194.227 198.132 192.644C200.472 191.061 202.468 189.202 204.12 187.068C205.841 184.866 207.183 182.422 208.147 179.738C209.11 177.053 209.592 174.231 209.592 171.271C209.592 168.312 209.11 165.49 208.147 162.805C207.183 160.121 205.841 157.712 204.12 155.578C202.468 153.375 200.472 151.517 198.132 150.002C195.86 148.419 193.348 147.249 190.595 146.492C193.83 149.658 196.377 153.375 198.235 157.643C200.162 161.91 201.126 166.453 201.126 171.271ZM240.979 229.813C240.979 227.472 241.186 225.408 241.599 223.618C242.012 221.759 242.804 220.245 243.974 219.075C245.144 217.905 246.761 217.01 248.826 216.391C250.891 215.771 253.576 215.461 256.88 215.461H299.108C302.205 215.461 304.855 215.771 307.058 216.391C309.329 217.01 310.947 218.077 311.91 219.591C312.805 218.972 313.872 218.318 315.111 217.63C316.419 216.872 317.83 216.184 319.344 215.565C320.859 214.945 322.476 214.429 324.197 214.016C325.918 213.603 327.707 213.396 329.566 213.396C336.174 213.396 341.302 215.668 344.95 220.211C348.667 224.754 350.525 231.43 350.525 240.241V316.334C350.525 317.504 350.353 318.433 350.009 319.122C349.733 319.741 349.355 320.223 348.873 320.567C348.46 320.843 347.944 321.015 347.324 321.083C346.705 321.152 346.085 321.187 345.466 321.187H338.858C337.068 321.187 335.898 320.67 335.348 319.638C334.866 318.606 334.625 317.504 334.625 316.334V239.208C334.625 235.285 333.902 232.291 332.457 230.226C331.08 228.161 328.843 227.128 325.746 227.128C324.162 227.128 322.545 227.576 320.893 228.471C319.31 229.297 318.036 230.191 317.073 231.155V306.732C317.073 309.141 316.866 311.241 316.453 313.03C316.04 314.82 315.249 316.334 314.079 317.573C312.909 318.743 311.291 319.638 309.226 320.257C307.161 320.877 304.477 321.187 301.173 321.187H256.88C253.576 321.187 250.891 320.877 248.826 320.257C246.761 319.638 245.144 318.743 243.974 317.573C242.804 316.403 242.012 314.923 241.599 313.133C241.186 311.344 240.979 309.244 240.979 306.835V229.813ZM308.297 230.742C308.297 228.333 307.643 226.646 306.335 225.683C305.096 224.65 303.066 224.134 300.243 224.134V312.514C301.895 312.514 303.238 312.48 304.27 312.411C305.303 312.273 306.129 311.998 306.748 311.585C307.368 311.103 307.781 310.449 307.987 309.623C308.194 308.728 308.297 307.489 308.297 305.906V230.742ZM429.303 310.862C424.072 310.862 418.875 310.518 413.712 309.829C408.55 309.072 403.594 307.902 398.845 306.319C398.776 306.663 398.742 307.007 398.742 307.352C398.742 307.627 398.742 307.937 398.742 308.281C398.742 310.346 399.086 312.273 399.774 314.063C400.462 315.783 401.529 317.298 402.975 318.606C404.489 319.913 406.451 320.946 408.86 321.703C411.269 322.46 414.194 322.839 417.636 322.839C421.422 322.839 424.932 322.598 428.167 322.116C431.402 321.703 434.568 321.256 437.666 320.774C440.763 320.223 443.861 319.741 446.958 319.328C450.124 318.846 453.463 318.606 456.973 318.606C460.346 318.606 463.65 319.225 466.885 320.464C470.12 321.634 472.976 323.355 475.454 325.626C478.001 327.967 480.032 330.823 481.546 334.196C483.06 337.569 483.817 341.423 483.817 345.76C483.817 349.614 483.439 352.987 482.682 355.878C481.993 358.769 481.271 361.522 480.513 364.138C480.376 364.482 480.1 364.895 479.687 365.377C479.343 365.858 478.655 366.099 477.623 366.099H469.982C469.019 366.099 468.399 365.858 468.124 365.377C467.848 364.964 467.642 364.619 467.504 364.344C466.196 361.109 461.137 359.491 452.327 359.491C448.541 359.491 444.79 359.698 441.073 360.111C437.356 360.593 433.57 361.075 429.716 361.556C425.861 362.107 421.835 362.589 417.636 363.002C413.506 363.484 409.135 363.725 404.523 363.725C398.122 363.725 392.684 362.658 388.21 360.524C383.805 358.39 380.226 355.671 377.473 352.367C374.719 349.132 372.723 345.553 371.484 341.63C370.245 337.706 369.626 333.989 369.626 330.479C369.626 326.693 370.039 323.252 370.865 320.154C371.76 316.988 372.895 314.131 374.272 311.585C375.649 309.038 377.232 306.766 379.021 304.77C380.811 302.705 382.601 300.847 384.39 299.195C378.746 295.34 374.203 290.316 370.761 284.121C367.32 277.926 365.599 270.32 365.599 261.303C365.599 255.177 366.459 249.705 368.18 244.887C369.901 240 372.241 235.732 375.201 232.084C378.23 228.367 381.775 225.235 385.836 222.689C389.897 220.142 394.267 218.077 398.948 216.494C403.697 214.842 408.653 213.672 413.816 212.983C418.978 212.226 424.14 211.848 429.303 211.848C433.914 211.848 438.629 212.089 443.448 212.57C448.266 213.052 452.946 213.947 457.489 215.255C462.101 216.494 466.437 218.18 470.498 220.314C474.628 222.448 478.276 225.167 481.443 228.471L492.697 217.01C493.454 216.253 494.177 215.702 494.865 215.358C495.622 215.014 496.31 214.842 496.93 214.842C498.031 214.842 499.029 215.289 499.924 216.184L504.983 221.553C505.809 222.517 506.222 223.515 506.222 224.547C506.222 226.061 505.362 227.438 503.641 228.677L488.67 239.208C490.047 242.168 491.079 245.403 491.767 248.914C492.525 252.424 492.903 256.279 492.903 260.477C492.903 267.498 492.008 273.624 490.219 278.855C488.429 284.086 485.951 288.561 482.785 292.277C479.687 295.994 476.074 299.057 471.944 301.466C467.814 303.876 463.374 305.768 458.625 307.145C453.944 308.522 449.092 309.485 444.067 310.036C439.042 310.587 434.121 310.862 429.303 310.862ZM463.787 249.946C463.443 249.602 463.271 249.086 463.271 248.397C463.271 247.571 463.581 246.849 464.2 246.229L470.808 239.415C469.432 238.382 467.917 237.66 466.265 237.247C464.682 236.834 463.065 236.627 461.413 236.627C459.761 236.627 457.902 236.902 455.837 237.453C453.841 237.935 451.914 239.036 450.055 240.757C448.266 242.478 446.752 244.99 445.513 248.294C444.274 251.529 443.654 255.866 443.654 261.303C443.654 266.741 444.136 271.112 445.1 274.416C446.132 277.651 447.474 280.129 449.126 281.849C450.778 283.57 452.671 284.706 454.805 285.257C456.939 285.807 459.141 286.083 461.413 286.083C463.546 286.083 465.646 285.738 467.711 285.05C469.776 284.293 471.565 282.985 473.08 281.127C474.663 279.199 475.936 276.618 476.9 273.383C477.863 270.079 478.345 265.846 478.345 260.684C478.345 255.521 477.76 251.254 476.59 247.881L469.672 252.734C469.122 253.078 468.571 253.25 468.021 253.25C467.126 253.25 466.403 252.906 465.852 252.217L463.787 249.946ZM452.637 291.658C450.641 291.383 448.576 290.625 446.442 289.387C444.377 288.148 442.484 286.323 440.763 283.914C439.042 281.436 437.631 278.339 436.53 274.622C435.429 270.905 434.878 266.466 434.878 261.303C434.878 256.141 435.532 251.736 436.84 248.088C438.216 244.371 439.834 241.342 441.692 239.002C443.551 236.593 445.478 234.803 447.474 233.633C449.539 232.463 451.26 231.74 452.637 231.465C449.952 231.465 447.096 232.015 444.067 233.117C441.039 234.149 438.216 235.87 435.601 238.279C433.054 240.619 430.92 243.682 429.2 247.468C427.479 251.254 426.618 255.866 426.618 261.303C426.618 266.741 427.341 271.387 428.787 275.242C430.301 279.096 432.263 282.228 434.672 284.637C437.081 287.046 439.834 288.836 442.931 290.006C446.098 291.107 449.333 291.658 452.637 291.658ZM459.761 327.072C461.963 329.343 463.684 332.028 464.923 335.125C466.162 338.223 466.782 341.767 466.782 345.76C466.782 347.48 466.678 348.926 466.472 350.096C466.265 351.266 466.093 352.195 465.956 352.884C467.401 353.09 468.847 353.675 470.292 354.639C471.737 355.603 472.735 356.532 473.286 357.427C473.699 356.532 474.078 355.052 474.422 352.987C474.835 350.922 475.041 348.513 475.041 345.76C475.041 340.666 473.665 336.433 470.911 333.06C468.227 329.687 464.51 327.691 459.761 327.072ZM511.281 229.813C511.281 227.472 511.488 225.408 511.901 223.618C512.314 221.759 513.105 220.245 514.275 219.075C515.445 217.905 517.063 217.01 519.128 216.391C521.193 215.771 523.877 215.461 527.181 215.461H572.404C575.57 215.461 578.117 215.771 580.044 216.391C582.04 216.941 583.589 217.802 584.69 218.972C585.791 220.142 586.514 221.622 586.858 223.411C587.202 225.201 587.375 227.335 587.375 229.813V307.042C587.375 309.382 587.202 311.447 586.858 313.237C586.514 314.957 585.791 316.437 584.69 317.676C583.589 318.846 582.04 319.741 580.044 320.361C578.117 320.911 575.57 321.187 572.404 321.187H527.181C523.877 321.187 521.193 320.877 519.128 320.257C517.063 319.638 515.445 318.743 514.275 317.573C513.105 316.403 512.314 314.923 511.901 313.133C511.488 311.344 511.281 309.244 511.281 306.835V229.813ZM515.101 171.271C515.101 166.522 515.996 162.048 517.786 157.849C519.644 153.651 522.122 150.002 525.22 146.905C528.317 143.808 531.965 141.364 536.164 139.575C540.363 137.716 544.837 136.787 549.586 136.787C554.267 136.787 558.672 137.716 562.802 139.575C567 141.364 570.648 143.808 573.746 146.905C576.843 150.002 579.287 153.651 581.076 157.849C582.935 162.048 583.864 166.522 583.864 171.271C583.864 175.952 582.935 180.392 581.076 184.59C579.287 188.72 576.843 192.334 573.746 195.431C570.648 198.529 567 201.007 562.802 202.865C558.672 204.655 554.267 205.55 549.586 205.55C544.837 205.55 540.363 204.655 536.164 202.865C531.965 201.007 528.317 198.529 525.22 195.431C522.122 192.334 519.644 188.72 517.786 184.59C515.996 180.392 515.101 175.952 515.101 171.271ZM578.598 230.742C578.598 229.228 578.495 228.023 578.289 227.128C578.082 226.234 577.669 225.58 577.05 225.167C576.43 224.685 575.604 224.409 574.572 224.341C573.539 224.203 572.197 224.134 570.545 224.134V312.514C572.197 312.514 573.539 312.48 574.572 312.411C575.604 312.273 576.43 311.998 577.05 311.585C577.669 311.103 578.082 310.449 578.289 309.623C578.495 308.728 578.598 307.489 578.598 305.906V230.742ZM566.622 171.271C566.622 176.09 565.658 180.633 563.731 184.9C561.872 189.168 559.326 192.885 556.091 196.051C558.844 195.363 561.356 194.227 563.628 192.644C565.968 191.061 567.964 189.202 569.616 187.068C571.337 184.866 572.679 182.422 573.643 179.738C574.606 177.053 575.088 174.231 575.088 171.271C575.088 168.312 574.606 165.49 573.643 162.805C572.679 160.121 571.337 157.712 569.616 155.578C567.964 153.375 565.968 151.517 563.628 150.002C561.356 148.419 558.844 147.249 556.091 146.492C559.326 149.658 561.872 153.375 563.731 157.643C565.658 161.91 566.622 166.453 566.622 171.271ZM680.091 211.848C684.496 211.848 688.901 212.123 693.306 212.674C697.712 213.155 701.876 213.809 705.799 214.635C709.792 215.461 713.405 216.391 716.64 217.423C719.944 218.387 722.629 219.35 724.694 220.314C725.038 220.452 725.382 220.658 725.726 220.933C726.139 221.209 726.346 221.725 726.346 222.482C726.346 222.689 726.311 222.964 726.242 223.308C726.173 223.652 726.105 223.996 726.036 224.341L724.797 230.432C724.659 231.258 724.453 231.774 724.177 231.981C723.971 232.119 723.764 232.187 723.558 232.187C723.214 232.187 722.56 232.084 721.596 231.878C720.633 231.671 719.6 231.568 718.499 231.568C714.575 231.568 711.478 232.635 709.206 234.769C706.935 236.834 705.49 240.482 704.87 245.713L699.088 293.929C698.538 298.197 697.092 302.189 694.752 305.906C692.48 309.623 689.177 312.892 684.84 315.715C680.504 318.537 675.135 320.739 668.734 322.322C662.401 323.974 654.967 324.8 646.432 324.8C641.063 324.8 635.832 324.456 630.738 323.768C625.645 323.148 620.93 322.357 616.594 321.393C612.326 320.498 608.575 319.604 605.34 318.709C602.173 317.745 599.799 316.988 598.216 316.437C597.665 316.3 597.252 316.128 596.977 315.921C596.632 315.646 596.46 315.233 596.46 314.682C596.46 314.407 596.495 314.097 596.564 313.753C596.632 313.409 596.736 312.996 596.873 312.514L598.112 306.732C598.25 306.181 598.491 305.734 598.835 305.39C599.179 305.046 599.799 304.874 600.693 304.874C602.965 304.874 605.236 304.77 607.508 304.564C609.848 304.289 611.982 303.635 613.909 302.602C615.905 301.57 617.626 299.987 619.072 297.853C620.586 295.719 621.618 292.725 622.169 288.87L629.396 239.105C630.153 233.874 632.081 229.503 635.178 225.993C638.276 222.482 642.096 219.695 646.639 217.63C651.25 215.496 656.447 214.016 662.229 213.19C668.011 212.295 673.965 211.848 680.091 211.848ZM660.474 315.198C669.972 314.097 677.165 311.447 682.052 307.248C687.008 302.981 689.865 297.681 690.622 291.348L696.094 245.713C696.714 240.482 698.228 236.145 700.637 232.704C703.115 229.262 706.488 227.163 710.755 226.406C706.901 226.406 703.597 226.922 700.843 227.954C698.159 228.987 695.888 230.398 694.029 232.187C692.171 233.908 690.725 235.939 689.693 238.279C688.729 240.619 688.11 243.097 687.834 245.713L682.362 291.348C682.018 294.033 681.295 296.614 680.194 299.092C679.162 301.57 677.75 303.876 675.961 306.009C674.171 308.074 671.969 309.933 669.353 311.585C666.806 313.168 663.846 314.372 660.474 315.198Z" fill="#333333"/>
<path d="M415.095 107.263C413.356 107.933 411.762 108.37 410.315 108.575C408.816 108.799 407.465 108.644 406.263 108.108C405.061 107.572 403.936 106.625 402.888 105.266C401.841 103.907 400.847 101.998 399.908 99.5401L387.052 65.8953C386.152 63.5396 385.658 61.5562 385.57 59.9451C385.412 58.3025 385.611 56.9041 386.168 55.75C386.725 54.5958 387.619 53.6347 388.852 52.8666C390.084 52.0985 391.621 51.36 393.463 50.6511L450.866 28.555C452.606 27.8854 454.19 27.4226 455.618 27.1667C456.994 26.9304 458.3 27.0447 459.534 27.5095C460.717 27.9941 461.822 28.8903 462.85 30.1982C463.807 31.4745 464.736 33.2905 465.636 35.6461L478.492 69.2909C479.432 71.749 479.965 73.8348 480.091 75.5484C480.218 77.2619 480.013 78.7213 479.475 79.9267C478.938 81.132 478.063 82.1444 476.851 82.9637C475.638 83.7829 474.136 84.5372 472.345 85.2265L415.095 107.263ZM370.496 121.171C366.966 122.529 363.386 123.144 359.757 123.014C356.107 122.832 352.691 122.033 349.509 120.614C346.326 119.196 343.472 117.181 340.949 114.569C338.374 111.977 336.411 108.914 335.061 105.381C333.73 101.899 333.168 98.3554 333.376 94.7511C333.512 91.1153 334.291 87.702 335.713 84.5114C337.135 81.3207 339.152 78.459 341.764 75.9263C344.356 73.3423 347.418 71.3709 350.948 70.0121C354.427 68.6729 357.991 68.094 361.64 68.2754C365.219 68.4252 368.599 69.2093 371.782 70.6275C374.965 72.0457 377.844 74.0509 380.419 76.6429C382.923 79.2035 384.841 82.2249 386.171 85.7072C387.521 89.2407 388.128 92.8253 387.992 96.4611C387.804 100.117 386.999 103.54 385.578 106.73C384.156 109.921 382.174 112.798 379.633 115.363C377.021 117.896 373.975 119.831 370.496 121.171ZM396.648 56.9144C395.523 57.3477 394.657 57.7692 394.051 58.1788C393.444 58.5884 393.076 59.0828 392.945 59.6618C392.763 60.2606 392.793 60.9539 393.035 61.7417C393.226 62.5492 393.557 63.5675 394.026 64.7966L459.718 39.5102C459.248 38.2811 458.841 37.2924 458.497 36.5439C458.101 35.8152 457.661 35.2794 457.178 34.9367C456.644 34.6137 456.041 34.4935 455.368 34.5762C454.644 34.6786 453.694 34.9562 452.517 35.4092L396.648 56.9144ZM355.85 82.8401C359.431 81.4616 363.082 80.8787 366.801 81.0916C370.502 81.2533 373.989 82.0846 377.262 83.5856C375.967 81.7341 374.409 80.1899 372.587 78.9529C370.744 77.6647 368.796 76.7114 366.74 76.0928C364.614 75.4428 362.416 75.1433 360.147 75.1944C357.877 75.2455 355.643 75.6945 353.443 76.5413C351.243 77.3881 349.282 78.554 347.561 80.039C345.839 81.524 344.43 83.2118 343.334 85.1026C342.166 86.9618 341.352 88.9786 340.892 91.153C340.361 93.2959 340.205 95.4998 340.425 97.7649C341.859 94.4521 343.898 91.4939 346.541 88.8902C349.166 86.2354 352.268 84.2186 355.85 82.8401Z" fill="#333333"/>
<path d="M207.36 186.832C198.986 199.811 182.21 203.429 169.232 195.055C156.253 186.682 152.635 169.905 161.009 156.927C169.382 143.949 186.159 140.331 199.137 148.704C212.115 157.078 215.733 173.854 207.36 186.832Z" fill="white"/>
</svg>
