<svg width="323" height="144" viewBox="0 0 323 144" fill="none" xmlns="http://www.w3.org/2000/svg">
<rect y="10.5708" width="312.429" height="132.724" rx="5" fill="#333333"/>
<rect x="12.0708" y="1.5" width="309.429" height="129.724" rx="3.5" fill="white" stroke="#333333" stroke-width="3"/>
<path d="M55.7365 86H51.1616V50.7783H55.7365V86ZM53.6144 82.114H72.1898V86H53.6144V82.114ZM86.5766 86.689C82.7182 86.689 79.7876 85.6509 77.785 83.5747C75.8006 81.4802 74.8085 78.4761 74.8085 74.5626V70.4562C74.8085 66.561 75.8098 63.5753 77.8125 61.4992C79.8152 59.423 82.7366 58.3849 86.5766 58.3849C90.435 58.3849 93.3564 59.423 95.3407 61.4992C97.3434 63.5753 98.3447 66.561 98.3447 70.4562V74.5626C98.3447 78.4761 97.3434 81.4802 95.3407 83.5747C93.3564 85.6509 90.435 86.689 86.5766 86.689ZM86.5766 83.0511C88.9651 83.0511 90.7749 82.3437 92.0059 80.929C93.2553 79.5142 93.88 77.4748 93.88 74.8106V70.2081C93.88 67.5624 93.2553 65.5413 92.0059 64.1449C90.7749 62.7302 88.9651 62.0228 86.5766 62.0228C84.2064 62.0228 82.3967 62.7302 81.1473 64.1449C79.8979 65.5413 79.2732 67.5624 79.2732 70.2081V74.8106C79.2732 77.4748 79.8979 79.5142 81.1473 80.929C82.3967 82.3437 84.2064 83.0511 86.5766 83.0511ZM120.423 86L120.616 79.4683L120.451 78.7793V70.2081L120.478 68.6372C120.478 66.4508 119.918 64.8339 118.797 63.7866C117.695 62.7394 115.94 62.2157 113.533 62.2157C111.604 62.2157 109.831 62.4913 108.214 63.0425C106.616 63.5937 105.192 64.2368 103.942 64.9717L104.356 61.1684C105.054 60.7458 105.881 60.3324 106.836 59.9282C107.81 59.5056 108.912 59.1566 110.143 58.881C111.393 58.6054 112.762 58.4676 114.25 58.4676C116.179 58.4676 117.814 58.7064 119.156 59.1841C120.515 59.6434 121.608 60.3141 122.435 61.196C123.28 62.0779 123.896 63.1436 124.282 64.393C124.668 65.6423 124.86 67.0387 124.86 68.5821V86H120.423ZM111.163 86.5788C108.499 86.5788 106.45 85.9357 105.017 84.6496C103.603 83.3451 102.895 81.4893 102.895 79.0824V78.2832C102.895 75.8028 103.658 73.9563 105.183 72.7436C106.726 71.5126 109.17 70.6583 112.514 70.1806L121.03 68.9679L121.278 72.22L113.065 73.4051C111.007 73.6991 109.537 74.2043 108.655 74.9209C107.773 75.6191 107.332 76.6572 107.332 78.0352V78.4761C107.332 79.8909 107.764 80.9749 108.628 81.7282C109.51 82.4815 110.823 82.8582 112.569 82.8582C114.112 82.8582 115.435 82.5917 116.537 82.0589C117.64 81.5261 118.531 80.8095 119.211 79.9092C119.89 79.0089 120.35 78.0076 120.589 76.9052L121.278 79.9368H120.423C120.166 81.1127 119.679 82.2059 118.963 83.2164C118.264 84.227 117.281 85.0446 116.014 85.6693C114.746 86.2756 113.129 86.5788 111.163 86.5788ZM140.577 86.5788C137.344 86.5788 134.882 85.5774 133.191 83.5747C131.501 81.572 130.656 78.6507 130.656 74.8106V70.3735C130.656 66.5151 131.51 63.5753 133.219 61.5543C134.928 59.5148 137.445 58.4951 140.77 58.4951C142.424 58.4951 143.857 58.7799 145.07 59.3495C146.282 59.9007 147.265 60.6815 148.019 61.6921C148.772 62.7026 149.277 63.8969 149.534 65.2749H150.995L149.672 69.3813C149.617 67.8012 149.259 66.4783 148.597 65.4127C147.954 64.3286 147.072 63.511 145.952 62.9598C144.849 62.4086 143.581 62.133 142.148 62.133C139.87 62.133 138.125 62.7945 136.912 64.1174C135.718 65.4402 135.121 67.3878 135.121 69.9601V75.0862C135.121 77.6218 135.718 79.551 136.912 80.8738C138.125 82.1967 139.87 82.8582 142.148 82.8582C143.508 82.8582 144.711 82.6009 145.759 82.0865C146.806 81.5537 147.67 80.8279 148.349 79.9092C149.048 78.9722 149.525 77.9157 149.782 76.7398L150.885 79.9368H149.562C149.305 81.1494 148.809 82.261 148.074 83.2716C147.357 84.2821 146.383 85.0905 145.152 85.6968C143.94 86.2848 142.415 86.5788 140.577 86.5788ZM149.562 86L149.755 79.4958L149.672 78.0627V66.8182L149.7 65.8812L149.59 58.2471V49.483H154.027V86H149.562ZM172.88 86L174.231 50.7783H181.314L189.664 76.2438H190.05L198.401 50.7783H205.511L206.862 86H202.425L201.929 71.1452L201.46 55.5462H200.964L192.255 81.9487H187.487L178.778 55.5462H178.282L177.786 71.1727L177.317 86H172.88ZM224.646 86.689C220.787 86.689 217.857 85.6509 215.854 83.5747C213.87 81.4802 212.878 78.4761 212.878 74.5626V70.4562C212.878 66.561 213.879 63.5753 215.882 61.4992C217.884 59.423 220.806 58.3849 224.646 58.3849C228.504 58.3849 231.426 59.423 233.41 61.4992C235.413 63.5753 236.414 66.561 236.414 70.4562V74.5626C236.414 78.4761 235.413 81.4802 233.41 83.5747C231.426 85.6509 228.504 86.689 224.646 86.689ZM224.646 83.0511C227.034 83.0511 228.844 82.3437 230.075 80.929C231.324 79.5142 231.949 77.4748 231.949 74.8106V70.2081C231.949 67.5624 231.324 65.5413 230.075 64.1449C228.844 62.7302 227.034 62.0228 224.646 62.0228C222.276 62.0228 220.466 62.7302 219.216 64.1449C217.967 65.5413 217.342 67.5624 217.342 70.2081V74.8106C217.342 77.4748 217.967 79.5142 219.216 80.929C220.466 82.3437 222.276 83.0511 224.646 83.0511ZM246.833 69.5467L245.814 66.1017L246.916 66.0466C247.504 63.7683 248.514 61.9769 249.948 60.6724C251.381 59.3495 253.282 58.688 255.652 58.688C256.24 58.688 256.764 58.734 257.223 58.8258C257.701 58.9177 258.124 59.0279 258.491 59.1566L258.767 63.4835C258.307 63.3365 257.793 63.2171 257.223 63.1252C256.672 63.0333 256.057 62.9874 255.377 62.9874C253.356 62.9874 251.592 63.5478 250.085 64.6686C248.597 65.7893 247.513 67.4154 246.833 69.5467ZM242.589 86V59.1014H246.944L246.723 67.0387L247.054 67.3694V86H242.589ZM273.697 86.6063C269.6 86.6063 266.513 85.605 264.437 83.6023C262.361 81.5996 261.323 78.7333 261.323 75.0036V70.2081C261.323 66.4232 262.288 63.511 264.217 61.4716C266.146 59.4138 268.966 58.3849 272.678 58.3849C275.176 58.3849 277.262 58.8534 278.934 59.7904C280.606 60.7091 281.864 62.0228 282.71 63.7315C283.555 65.4402 283.977 67.4797 283.977 69.8498V70.842C283.977 71.4299 283.95 72.0179 283.895 72.6058C283.858 73.1938 283.803 73.7725 283.729 74.3421H279.623C279.66 73.4602 279.678 72.6242 279.678 71.8342C279.696 71.0441 279.705 70.3184 279.705 69.6569C279.705 68.0217 279.439 66.6437 278.906 65.5229C278.392 64.3838 277.611 63.5202 276.564 62.9323C275.535 62.326 274.239 62.0228 272.678 62.0228C270.363 62.0228 268.626 62.6934 267.469 64.0347C266.311 65.3759 265.733 67.2959 265.733 69.7947V72.3578L265.76 72.909V75.4721C265.76 76.5929 265.925 77.6034 266.256 78.5037C266.587 79.404 267.101 80.1848 267.8 80.8463C268.516 81.4893 269.416 81.9854 270.5 82.3345C271.603 82.6652 272.907 82.8306 274.414 82.8306C276.159 82.8306 277.785 82.6009 279.292 82.1416C280.799 81.6823 282.213 81.0576 283.536 80.2675L283.123 84.1259C281.929 84.8792 280.541 85.4855 278.961 85.9449C277.381 86.3858 275.627 86.6063 273.697 86.6063ZM263.666 74.3421V70.9798H282.792V74.3421H263.666Z" fill="#333333"/>
</svg>
