<svg width="323" height="144" viewBox="0 0 323 144" fill="none" xmlns="http://www.w3.org/2000/svg">
<rect y="10.5708" width="312.429" height="132.724" rx="5" fill="#333333"/>
<rect x="12.0708" y="1.5" width="309.429" height="129.724" rx="3.5" fill="white" stroke="#333333" stroke-width="3"/>
<path d="M56.6326 78.638H67.7181V82H52.4983V50.3337H56.6326V78.638ZM82.967 82.4089C80.6348 82.4089 78.5146 81.8788 76.6065 80.8188C74.7286 79.7587 73.2445 78.2594 72.1541 76.321C71.094 74.3522 70.564 72.0806 70.564 69.5061C70.564 66.9619 71.1092 64.7206 72.1996 62.7822C73.3202 60.8134 74.8346 59.3142 76.7428 58.2844C78.6509 57.2243 80.7862 56.6942 83.1487 56.6942C85.5112 56.6942 87.6465 57.2243 89.5547 58.2844C91.4628 59.3142 92.9621 60.7983 94.0525 62.7367C95.1731 64.6752 95.7335 66.9316 95.7335 69.5061C95.7335 72.0806 95.158 74.3522 94.007 76.321C92.8864 78.2594 91.3568 79.7587 89.4184 80.8188C87.4799 81.8788 85.3295 82.4089 82.967 82.4089ZM82.967 78.7743C84.4511 78.7743 85.8444 78.426 87.1468 77.7294C88.4492 77.0327 89.4941 75.9878 90.2816 74.5945C91.0994 73.2013 91.5083 71.5052 91.5083 69.5061C91.5083 67.5071 91.1145 65.811 90.327 64.4177C89.5395 63.0245 88.5097 61.9947 87.2376 61.3283C85.9655 60.6317 84.5874 60.2834 83.1033 60.2834C81.5889 60.2834 80.1956 60.6317 78.9235 61.3283C77.6817 61.9947 76.6822 63.0245 75.925 64.4177C75.1678 65.811 74.7892 67.5071 74.7892 69.5061C74.7892 71.5354 75.1526 73.2467 75.8796 74.64C76.6368 76.0332 77.6363 77.0782 78.8781 77.7748C80.1199 78.4411 81.4829 78.7743 82.967 78.7743ZM99.6247 69.4607C99.6247 66.9165 100.14 64.6903 101.169 62.7822C102.199 60.8437 103.608 59.3445 105.395 58.2844C107.212 57.2243 109.226 56.6942 111.437 56.6942C113.618 56.6942 115.511 57.1637 117.116 58.1026C118.721 59.0416 119.918 60.2228 120.705 61.6464V57.1031H124.885V82H120.705V77.3659C119.887 78.8197 118.661 80.0313 117.025 81.0005C115.42 81.9394 113.542 82.4089 111.392 82.4089C109.181 82.4089 107.182 81.8637 105.395 80.7733C103.608 79.683 102.199 78.1534 101.169 76.1847C100.14 74.2159 99.6247 71.9746 99.6247 69.4607ZM120.705 69.5061C120.705 67.6283 120.327 65.9927 119.569 64.5994C118.812 63.2062 117.782 62.1461 116.48 61.4192C115.208 60.662 113.8 60.2834 112.255 60.2834C110.71 60.2834 109.302 60.6468 108.03 61.3738C106.758 62.1007 105.743 63.1608 104.986 64.554C104.228 65.9473 103.85 67.5828 103.85 69.4607C103.85 71.3689 104.228 73.0347 104.986 74.4582C105.743 75.8515 106.758 76.9267 108.03 77.6839C109.302 78.4109 110.71 78.7743 112.255 78.7743C113.8 78.7743 115.208 78.4109 116.48 77.6839C117.782 76.9267 118.812 75.8515 119.569 74.4582C120.327 73.0347 120.705 71.384 120.705 69.5061ZM130.327 69.4607C130.327 66.9165 130.842 64.6903 131.872 62.7822C132.901 60.8437 134.31 59.3445 136.097 58.2844C137.914 57.2243 139.943 56.6942 142.185 56.6942C144.123 56.6942 145.925 57.1486 147.591 58.0572C149.257 58.9356 150.529 60.1017 151.407 61.5555V48.3801H155.587V82H151.407V77.3205C150.59 78.8046 149.378 80.0313 147.773 81.0005C146.168 81.9394 144.29 82.4089 142.139 82.4089C139.928 82.4089 137.914 81.8637 136.097 80.7733C134.31 79.683 132.901 78.1534 131.872 76.1847C130.842 74.2159 130.327 71.9746 130.327 69.4607ZM151.407 69.5061C151.407 67.6283 151.029 65.9927 150.272 64.5994C149.514 63.2062 148.485 62.1461 147.182 61.4192C145.91 60.662 144.502 60.2834 142.957 60.2834C141.412 60.2834 140.004 60.6468 138.732 61.3738C137.46 62.1007 136.445 63.1608 135.688 64.554C134.931 65.9473 134.552 67.5828 134.552 69.4607C134.552 71.3689 134.931 73.0347 135.688 74.4582C136.445 75.8515 137.46 76.9267 138.732 77.6839C140.004 78.4109 141.412 78.7743 142.957 78.7743C144.502 78.7743 145.91 78.4109 147.182 77.6839C148.485 76.9267 149.514 75.8515 150.272 74.4582C151.029 73.0347 151.407 71.384 151.407 69.5061ZM206.807 50.5609V82H202.672V58.557L192.223 82H189.315L178.821 58.5115V82H174.686V50.5609H179.139L190.769 76.5481L202.4 50.5609H206.807ZM224.677 82.4089C222.344 82.4089 220.224 81.8788 218.316 80.8188C216.438 79.7587 214.954 78.2594 213.864 76.321C212.804 74.3522 212.274 72.0806 212.274 69.5061C212.274 66.9619 212.819 64.7206 213.909 62.7822C215.03 60.8134 216.544 59.3142 218.452 58.2844C220.361 57.2243 222.496 56.6942 224.858 56.6942C227.221 56.6942 229.356 57.2243 231.264 58.2844C233.172 59.3142 234.672 60.7983 235.762 62.7367C236.883 64.6752 237.443 66.9316 237.443 69.5061C237.443 72.0806 236.868 74.3522 235.717 76.321C234.596 78.2594 233.066 79.7587 231.128 80.8188C229.19 81.8788 227.039 82.4089 224.677 82.4089ZM224.677 78.7743C226.161 78.7743 227.554 78.426 228.856 77.7294C230.159 77.0327 231.204 75.9878 231.991 74.5945C232.809 73.2013 233.218 71.5052 233.218 69.5061C233.218 67.5071 232.824 65.811 232.037 64.4177C231.249 63.0245 230.219 61.9947 228.947 61.3283C227.675 60.6317 226.297 60.2834 224.813 60.2834C223.298 60.2834 221.905 60.6317 220.633 61.3283C219.391 61.9947 218.392 63.0245 217.635 64.4177C216.877 65.811 216.499 67.5071 216.499 69.5061C216.499 71.5354 216.862 73.2467 217.589 74.64C218.346 76.0332 219.346 77.0782 220.588 77.7748C221.829 78.4411 223.192 78.7743 224.677 78.7743ZM247.013 61.1466C247.74 59.7231 248.77 58.6175 250.103 57.83C251.466 57.0426 253.116 56.6488 255.055 56.6488V60.9194H253.964C249.33 60.9194 247.013 63.4334 247.013 68.4612V82H242.879V57.1031H247.013V61.1466ZM282.543 68.5975C282.543 69.385 282.498 70.2179 282.407 71.0963H262.508C262.659 73.5496 263.492 75.4729 265.007 76.8662C266.551 78.2291 268.414 78.9106 270.595 78.9106C272.382 78.9106 273.866 78.5017 275.047 77.6839C276.259 76.8359 277.107 75.7152 277.591 74.3219H282.044C281.377 76.7147 280.045 78.6683 278.046 80.1827C276.047 81.6668 273.563 82.4089 270.595 82.4089C268.232 82.4089 266.112 81.8788 264.234 80.8188C262.387 79.7587 260.933 78.2594 259.873 76.321C258.813 74.3522 258.283 72.0806 258.283 69.5061C258.283 66.9316 258.797 64.6752 259.827 62.7367C260.857 60.7983 262.296 59.3142 264.143 58.2844C266.021 57.2243 268.172 56.6942 270.595 56.6942C272.957 56.6942 275.047 57.2091 276.864 58.2389C278.682 59.2687 280.075 60.6923 281.044 62.5096C282.044 64.2966 282.543 66.3259 282.543 68.5975ZM278.273 67.7343C278.273 66.1593 277.924 64.8115 277.228 63.6908C276.531 62.5399 275.577 61.6766 274.366 61.1012C273.184 60.4954 271.867 60.1925 270.413 60.1925C268.323 60.1925 266.536 60.8589 265.052 62.1915C263.598 63.5242 262.765 65.3718 262.553 67.7343H278.273Z" fill="#333333"/>
</svg>
