<svg width="225" height="105" viewBox="0 0 225 105" fill="none" xmlns="http://www.w3.org/2000/svg">
<path d="M21.2682 52.171C22.8437 52.171 24.4084 52.2881 25.9626 52.5223C27.5167 52.7565 29.007 53.1397 30.4334 53.6719C31.8598 54.2042 33.1797 54.8961 34.3932 55.7476C35.6067 56.5992 36.6606 57.6531 37.5547 58.9091C38.4489 60.1652 39.1514 61.6342 39.6624 63.3161C40.1733 64.9767 40.4288 66.8927 40.4288 69.0642C40.4288 71.7467 40.0456 74.0673 39.2792 76.0259C38.5127 77.9633 37.4908 79.5919 36.2135 80.9119C34.9361 82.2318 33.4565 83.275 31.7746 84.0414C30.0927 84.7866 28.3257 85.3081 26.4735 85.6062V94.2923C26.4735 95.0587 26.4097 95.7187 26.2819 96.2723C26.1542 96.8258 25.92 97.2835 25.5794 97.6454C25.26 98.0286 24.7916 98.3054 24.1743 98.4757C23.5781 98.6673 22.8011 98.7631 21.8431 98.7631H7.85583C6.83394 98.7631 6.00365 98.6673 5.36496 98.4757C4.72627 98.2841 4.22597 97.9967 3.86405 97.6135C3.50213 97.2516 3.2573 96.7938 3.12956 96.2403C3.00182 95.6868 2.93795 95.0375 2.93795 94.2923V68.7449C2.93795 66.105 3.34246 63.7525 4.15146 61.6874C4.98175 59.6223 6.17396 57.8872 7.7281 56.4821C9.30352 55.077 11.2196 54.0125 13.4763 53.2887C15.7542 52.5436 18.3516 52.171 21.2682 52.171ZM35.8941 69.0323C35.8941 67.393 35.7132 65.8708 35.3513 64.4657C34.9893 63.0606 34.4252 61.8152 33.6587 60.7294C32.8923 59.6436 31.913 58.7601 30.7208 58.0788C29.5499 57.3763 28.1341 56.9292 26.4735 56.7376V81.5186C28.1341 81.3057 29.5499 80.848 30.7208 80.1454C31.913 79.4429 32.8923 78.5381 33.6587 77.431C34.4252 76.324 34.9893 75.0572 35.3513 73.6308C35.7132 72.2044 35.8941 70.6716 35.8941 69.0323ZM23.791 56.3863C23.6207 56.365 23.4185 56.3438 23.1843 56.3225C22.9501 56.3012 22.7053 56.2799 22.4498 56.2586C22.2156 56.2373 21.9921 56.2267 21.7792 56.2267C21.5663 56.2267 21.4066 56.2267 21.3002 56.2267L21.2682 96.0806C21.7792 96.0806 22.1943 96.0594 22.5137 96.0168C22.833 95.9955 23.0885 95.9103 23.2801 95.7613C23.4717 95.6336 23.5994 95.4313 23.6633 95.1546C23.7272 94.8991 23.7591 94.5265 23.7591 94.0369L23.791 56.3863ZM45.0912 57.3444C45.0912 56.6205 45.1551 55.9818 45.2828 55.4283C45.4106 54.8535 45.6554 54.3851 46.0173 54.0232C46.3792 53.6613 46.8795 53.3845 47.5182 53.1929C48.1569 53.0013 48.9872 52.9055 50.0091 52.9055H63.9963C64.9756 52.9055 65.7633 53.0013 66.3594 53.1929C66.9768 53.3632 67.4559 53.6293 67.7965 53.9913C68.1371 54.3532 68.3607 54.8109 68.4671 55.3644C68.5736 55.918 68.6268 56.5779 68.6268 57.3444V81.2312C68.6268 81.955 68.5736 82.5937 68.4671 83.1473C68.3607 83.6795 68.1371 84.1372 67.7965 84.5204C67.4559 84.8824 66.9768 85.1591 66.3594 85.3507C65.7633 85.521 64.9756 85.6062 63.9963 85.6062H50.0091C48.9872 85.6062 48.1569 85.5104 47.5182 85.3188C46.8795 85.1272 46.3792 84.8504 46.0173 84.4885C45.6554 84.1266 45.4106 83.6689 45.2828 83.1153C45.1551 82.5618 45.0912 81.9125 45.0912 81.1673V57.3444ZM46.2728 39.2376C46.2728 37.7686 46.5495 36.3848 47.1031 35.0862C47.6779 33.7875 48.4443 32.6592 49.4023 31.7011C50.3604 30.7431 51.4887 29.9873 52.7874 29.4338C54.086 28.859 55.4699 28.5716 56.9388 28.5716C58.3865 28.5716 59.749 28.859 61.0264 29.4338C62.3251 29.9873 63.4534 30.7431 64.4115 31.7011C65.3695 32.6592 66.1253 33.7875 66.6788 35.0862C67.2536 36.3848 67.541 37.7686 67.541 39.2376C67.541 40.6853 67.2536 42.0585 66.6788 43.3571C66.1253 44.6345 65.3695 45.7522 64.4115 46.7102C63.4534 47.6683 62.3251 48.4347 61.0264 49.0095C59.749 49.563 58.3865 49.8398 56.9388 49.8398C55.4699 49.8398 54.086 49.563 52.7874 49.0095C51.4887 48.4347 50.3604 47.6683 49.4023 46.7102C48.4443 45.7522 47.6779 44.6345 47.1031 43.3571C46.5495 42.0585 46.2728 40.6853 46.2728 39.2376ZM65.9124 57.6318C65.9124 57.1634 65.8804 56.7908 65.8166 56.5141C65.7527 56.2373 65.625 56.0351 65.4333 55.9073C65.2417 55.7583 64.9863 55.6731 64.6669 55.6518C64.3476 55.6093 63.9324 55.588 63.4215 55.588V82.9237C63.9324 82.9237 64.3476 82.9131 64.6669 82.8918C64.9863 82.8492 65.2417 82.764 65.4333 82.6363C65.625 82.4873 65.7527 82.285 65.8166 82.0296C65.8804 81.7528 65.9124 81.3696 65.9124 80.8799V57.6318ZM62.208 39.2376C62.208 40.7279 61.9099 42.133 61.3138 43.4529C60.739 44.7729 59.9513 45.9225 58.9507 46.9018C59.8023 46.689 60.5793 46.3377 61.2819 45.848C62.0057 45.3584 62.6231 44.7835 63.1341 44.1236C63.6663 43.4423 64.0815 42.6865 64.3795 41.8562C64.6776 41.0259 64.8266 40.1531 64.8266 39.2376C64.8266 38.3222 64.6776 37.4493 64.3795 36.619C64.0815 35.7887 63.6663 35.0436 63.1341 34.3836C62.6231 33.7023 62.0057 33.1275 61.2819 32.6592C60.5793 32.1695 59.8023 31.8076 58.9507 31.5734C59.9513 32.5527 60.739 33.7023 61.3138 35.0223C61.9099 36.3422 62.208 37.7474 62.208 39.2376ZM74.5346 57.3444C74.5346 56.6205 74.5985 55.9818 74.7262 55.4283C74.854 54.8535 75.0988 54.3851 75.4607 54.0232C75.8226 53.6613 76.3229 53.3845 76.9616 53.1929C77.6003 53.0013 78.4306 52.9055 79.4525 52.9055H92.5136C93.4716 52.9055 94.2913 53.0013 94.9726 53.1929C95.6751 53.3845 96.1754 53.7145 96.4735 54.1829C96.7502 53.9913 97.0802 53.789 97.4634 53.5761C97.8679 53.3419 98.3044 53.129 98.7727 52.9374C99.2411 52.7458 99.7414 52.5862 100.274 52.4584C100.806 52.3307 101.359 52.2668 101.934 52.2668C103.978 52.2668 105.564 52.9694 106.692 54.3745C107.842 55.7796 108.417 57.8447 108.417 60.5697V84.1053C108.417 84.4672 108.364 84.7546 108.257 84.9675C108.172 85.1591 108.055 85.3081 107.906 85.4146C107.778 85.4998 107.619 85.553 107.427 85.5743C107.235 85.5956 107.044 85.6062 106.852 85.6062H104.808C104.255 85.6062 103.893 85.4465 103.723 85.1272C103.574 84.8078 103.499 84.4672 103.499 84.1053V60.2504C103.499 59.0369 103.275 58.1108 102.828 57.4721C102.403 56.8334 101.711 56.5141 100.753 56.5141C100.263 56.5141 99.7627 56.6525 99.2518 56.9292C98.7621 57.1847 98.3682 57.4615 98.0702 57.7595V81.1354C98.0702 81.8805 98.0063 82.5299 97.8786 83.0834C97.7508 83.6369 97.506 84.1053 97.1441 84.4885C96.7822 84.8504 96.2819 85.1272 95.6432 85.3188C95.0045 85.5104 94.1742 85.6062 93.1523 85.6062H79.4525C78.4306 85.6062 77.6003 85.5104 76.9616 85.3188C76.3229 85.1272 75.8226 84.8504 75.4607 84.4885C75.0988 84.1266 74.854 83.6689 74.7262 83.1153C74.5985 82.5618 74.5346 81.9125 74.5346 81.1673V57.3444ZM95.3558 57.6318C95.3558 56.8866 95.1535 56.365 94.749 56.067C94.3658 55.7476 93.7378 55.588 92.8649 55.588V82.9237C93.3758 82.9237 93.791 82.9131 94.1103 82.8918C94.4297 82.8492 94.6852 82.764 94.8768 82.6363C95.0684 82.4873 95.1961 82.285 95.26 82.0296C95.3238 81.7528 95.3558 81.3696 95.3558 80.8799V57.6318ZM132.783 82.4128C131.165 82.4128 129.557 82.3063 127.961 82.0934C126.364 81.8592 124.831 81.4973 123.362 81.0077C123.341 81.1141 123.33 81.2206 123.33 81.327C123.33 81.4122 123.33 81.508 123.33 81.6144C123.33 82.2531 123.437 82.8492 123.65 83.4027C123.862 83.935 124.192 84.4033 124.64 84.8078C125.108 85.2123 125.715 85.5317 126.46 85.7659C127.205 86.0001 128.11 86.1171 129.174 86.1171C130.345 86.1171 131.431 86.0426 132.431 85.8936C133.432 85.7659 134.411 85.6275 135.369 85.4785C136.327 85.3081 137.285 85.1591 138.244 85.0314C139.223 84.8824 140.255 84.8078 141.341 84.8078C142.384 84.8078 143.406 84.9994 144.407 85.3827C145.407 85.7446 146.291 86.2768 147.057 86.9794C147.845 87.7032 148.473 88.5867 148.941 89.6299C149.41 90.6731 149.644 91.8653 149.644 93.2066C149.644 94.3988 149.527 95.442 149.293 96.3361C149.08 97.2303 148.856 98.0819 148.622 98.8909C148.58 98.9973 148.494 99.125 148.367 99.2741C148.26 99.4231 148.047 99.4976 147.728 99.4976H145.365C145.067 99.4976 144.875 99.4231 144.79 99.2741C144.705 99.1463 144.641 99.0399 144.598 98.9547C144.194 97.9541 142.629 97.4538 139.904 97.4538C138.733 97.4538 137.573 97.5177 136.423 97.6454C135.274 97.7945 134.103 97.9435 132.91 98.0925C131.718 98.2628 130.473 98.4118 129.174 98.5396C127.897 98.6886 126.545 98.7631 125.119 98.7631C123.139 98.7631 121.457 98.4331 120.073 97.7732C118.71 97.1132 117.603 96.2723 116.752 95.2504C115.9 94.2497 115.283 93.1427 114.9 91.9292C114.516 90.7157 114.325 89.5661 114.325 88.4803C114.325 87.3094 114.452 86.2449 114.708 85.2869C114.985 84.3075 115.336 83.424 115.762 82.6363C116.188 81.8486 116.677 81.146 117.231 80.5287C117.784 79.89 118.338 79.3151 118.891 78.8042C117.146 77.612 115.74 76.0579 114.676 74.1418C113.612 72.2257 113.079 69.8732 113.079 67.0843C113.079 65.1895 113.345 63.497 113.878 62.0068C114.41 60.4952 115.134 59.1753 116.049 58.0469C116.986 56.8973 118.082 55.9286 119.338 55.1409C120.594 54.3532 121.946 53.7145 123.394 53.2248C124.863 52.7139 126.396 52.352 127.993 52.1391C129.589 51.9049 131.186 51.7878 132.783 51.7878C134.209 51.7878 135.667 51.8623 137.158 52.0113C138.648 52.1604 140.096 52.4371 141.501 52.8416C142.927 53.2248 144.268 53.7464 145.525 54.4064C146.802 55.0664 147.93 55.9073 148.91 56.9292L152.39 53.3845C152.625 53.1503 152.848 52.98 153.061 52.8736C153.295 52.7671 153.508 52.7139 153.7 52.7139C154.04 52.7139 154.349 52.8523 154.626 53.129L156.191 54.7896C156.446 55.0877 156.574 55.3964 156.574 55.7157C156.574 56.1841 156.308 56.6099 155.775 56.9931L151.145 60.2504C151.571 61.1658 151.89 62.1664 152.103 63.2522C152.337 64.338 152.454 65.5302 152.454 66.8288C152.454 69.0004 152.178 70.8951 151.624 72.5131C151.07 74.1311 150.304 75.515 149.325 76.6646C148.367 77.8142 147.249 78.7616 145.972 79.5068C144.694 80.2519 143.321 80.8373 141.852 81.2631C140.404 81.6889 138.903 81.987 137.349 82.1573C135.795 82.3276 134.273 82.4128 132.783 82.4128ZM143.449 63.5715C143.342 63.4651 143.289 63.3054 143.289 63.0925C143.289 62.8371 143.385 62.6135 143.577 62.4219L145.62 60.3142C145.195 59.9949 144.726 59.7714 144.215 59.6436C143.726 59.5159 143.225 59.452 142.714 59.452C142.203 59.452 141.629 59.5372 140.99 59.7075C140.372 59.8565 139.776 60.1972 139.202 60.7294C138.648 61.2616 138.18 62.0387 137.796 63.0606C137.413 64.0612 137.222 65.4024 137.222 67.0843C137.222 68.7662 137.371 70.1181 137.669 71.14C137.988 72.1406 138.403 72.907 138.914 73.4392C139.425 73.9715 140.011 74.3228 140.671 74.4931C141.33 74.6634 142.012 74.7485 142.714 74.7485C143.374 74.7485 144.024 74.6421 144.662 74.4292C145.301 74.195 145.855 73.7905 146.323 73.2157C146.813 72.6196 147.206 71.8212 147.504 70.8206C147.803 69.7987 147.952 68.4894 147.952 66.8927C147.952 65.296 147.771 63.976 147.409 62.9329L145.269 64.4338C145.099 64.5402 144.928 64.5934 144.758 64.5934C144.481 64.5934 144.258 64.487 144.087 64.2741L143.449 63.5715ZM140 76.473C139.383 76.3878 138.744 76.1537 138.084 75.7704C137.445 75.3872 136.86 74.8231 136.327 74.0779C135.795 73.3115 135.359 72.3535 135.018 71.2038C134.678 70.0542 134.507 68.681 134.507 67.0843C134.507 65.4876 134.709 64.1251 135.114 62.9967C135.54 61.8471 136.04 60.9104 136.615 60.1865C137.19 59.4414 137.786 58.8879 138.403 58.5259C139.042 58.164 139.574 57.9405 140 57.8553C139.17 57.8553 138.286 58.0256 137.349 58.3663C136.413 58.6856 135.54 59.2178 134.731 59.963C133.943 60.6868 133.283 61.6342 132.751 62.8051C132.219 63.976 131.952 65.4024 131.952 67.0843C131.952 68.7662 132.176 70.2032 132.623 71.3954C133.091 72.5877 133.698 73.5563 134.443 74.3015C135.188 75.0466 136.04 75.6001 136.998 75.962C137.977 76.3027 138.978 76.473 140 76.473ZM142.203 87.4265C142.885 88.129 143.417 88.9593 143.8 89.9173C144.183 90.8754 144.375 91.9718 144.375 93.2066C144.375 93.7388 144.343 94.1859 144.279 94.5478C144.215 94.9097 144.162 95.1971 144.119 95.41C144.567 95.4739 145.014 95.6549 145.461 95.9529C145.908 96.251 146.216 96.5384 146.387 96.8151C146.514 96.5384 146.632 96.0806 146.738 95.442C146.866 94.8033 146.93 94.0581 146.93 93.2066C146.93 91.6311 146.504 90.3218 145.652 89.2786C144.822 88.2355 143.672 87.6181 142.203 87.4265ZM158.139 57.3444C158.139 56.6205 158.202 55.9818 158.33 55.4283C158.458 54.8535 158.703 54.3851 159.065 54.0232C159.427 53.6613 159.927 53.3845 160.566 53.1929C161.204 53.0013 162.035 52.9055 163.056 52.9055H177.044C178.023 52.9055 178.811 53.0013 179.407 53.1929C180.024 53.3632 180.503 53.6293 180.844 53.9913C181.184 54.3532 181.408 54.8109 181.514 55.3644C181.621 55.918 181.674 56.5779 181.674 57.3444V81.2312C181.674 81.955 181.621 82.5937 181.514 83.1473C181.408 83.6795 181.184 84.1372 180.844 84.5204C180.503 84.8824 180.024 85.1591 179.407 85.3507C178.811 85.521 178.023 85.6062 177.044 85.6062H163.056C162.035 85.6062 161.204 85.5104 160.566 85.3188C159.927 85.1272 159.427 84.8504 159.065 84.4885C158.703 84.1266 158.458 83.6689 158.33 83.1153C158.202 82.5618 158.139 81.9125 158.139 81.1673V57.3444ZM159.32 39.2376C159.32 37.7686 159.597 36.3848 160.15 35.0862C160.725 33.7875 161.492 32.6592 162.45 31.7011C163.408 30.7431 164.536 29.9873 165.835 29.4338C167.133 28.859 168.517 28.5716 169.986 28.5716C171.434 28.5716 172.796 28.859 174.074 29.4338C175.372 29.9873 176.501 30.7431 177.459 31.7011C178.417 32.6592 179.173 33.7875 179.726 35.0862C180.301 36.3848 180.588 37.7686 180.588 39.2376C180.588 40.6853 180.301 42.0585 179.726 43.3571C179.173 44.6345 178.417 45.7522 177.459 46.7102C176.501 47.6683 175.372 48.4347 174.074 49.0095C172.796 49.563 171.434 49.8398 169.986 49.8398C168.517 49.8398 167.133 49.563 165.835 49.0095C164.536 48.4347 163.408 47.6683 162.45 46.7102C161.492 45.7522 160.725 44.6345 160.15 43.3571C159.597 42.0585 159.32 40.6853 159.32 39.2376ZM178.96 57.6318C178.96 57.1634 178.928 56.7908 178.864 56.5141C178.8 56.2373 178.672 56.0351 178.481 55.9073C178.289 55.7583 178.034 55.6731 177.714 55.6518C177.395 55.6093 176.98 55.588 176.469 55.588V82.9237C176.98 82.9237 177.395 82.9131 177.714 82.8918C178.034 82.8492 178.289 82.764 178.481 82.6363C178.672 82.4873 178.8 82.285 178.864 82.0296C178.928 81.7528 178.96 81.3696 178.96 80.8799V57.6318ZM175.255 39.2376C175.255 40.7279 174.957 42.133 174.361 43.4529C173.786 44.7729 172.999 45.9225 171.998 46.9018C172.85 46.689 173.627 46.3377 174.329 45.848C175.053 45.3584 175.67 44.7835 176.181 44.1236C176.714 43.4423 177.129 42.6865 177.427 41.8562C177.725 41.0259 177.874 40.1531 177.874 39.2376C177.874 38.3222 177.725 37.4493 177.427 36.619C177.129 35.7887 176.714 35.0436 176.181 34.3836C175.67 33.7023 175.053 33.1275 174.329 32.6592C173.627 32.1695 172.85 31.8076 171.998 31.5734C172.999 32.5527 173.786 33.7023 174.361 35.0223C174.957 36.3422 175.255 37.7474 175.255 39.2376ZM210.351 51.7878C211.714 51.7878 213.076 51.873 214.439 52.0433C215.801 52.1923 217.089 52.3945 218.303 52.65C219.538 52.9055 220.655 53.1929 221.656 53.5122C222.678 53.8103 223.508 54.1084 224.147 54.4064C224.253 54.449 224.36 54.5129 224.466 54.598C224.594 54.6832 224.658 54.8428 224.658 55.077C224.658 55.1409 224.647 55.2261 224.626 55.3325C224.604 55.4389 224.583 55.5454 224.562 55.6518L224.179 57.536C224.136 57.7914 224.072 57.9511 223.987 58.015C223.923 58.0576 223.859 58.0788 223.795 58.0788C223.689 58.0788 223.487 58.0469 223.189 57.983C222.891 57.9192 222.571 57.8872 222.231 57.8872C221.017 57.8872 220.059 58.2172 219.357 58.8772C218.654 59.5159 218.207 60.6442 218.015 62.2622L216.227 77.1756C216.057 78.4955 215.61 79.7303 214.886 80.8799C214.183 82.0296 213.161 83.0408 211.82 83.9137C210.479 84.7866 208.818 85.4678 206.838 85.9575C204.88 86.4684 202.58 86.7239 199.941 86.7239C198.28 86.7239 196.662 86.6175 195.087 86.4046C193.511 86.213 192.053 85.9681 190.712 85.6701C189.392 85.3933 188.231 85.1165 187.231 84.8398C186.251 84.5417 185.517 84.3075 185.027 84.1372C184.857 84.0946 184.729 84.0414 184.644 83.9776C184.538 83.8924 184.484 83.7647 184.484 83.5943C184.484 83.5092 184.495 83.4134 184.516 83.3069C184.538 83.2005 184.57 83.0727 184.612 82.9237L184.995 81.1354C185.038 80.9651 185.112 80.8267 185.219 80.7203C185.325 80.6138 185.517 80.5606 185.794 80.5606C186.496 80.5606 187.199 80.5287 187.901 80.4648C188.625 80.3796 189.285 80.1774 189.881 79.858C190.499 79.5387 191.031 79.049 191.478 78.3891C191.946 77.7291 192.266 76.803 192.436 75.6108L194.671 60.2184C194.906 58.6004 195.502 57.2486 196.46 56.1628C197.418 55.077 198.599 54.2148 200.004 53.5761C201.431 52.9161 203.038 52.4584 204.826 52.2029C206.615 51.9262 208.456 51.7878 210.351 51.7878ZM204.284 83.754C207.222 83.4134 209.446 82.5937 210.958 81.2951C212.491 79.9751 213.374 78.3358 213.608 76.3772L215.301 62.2622C215.493 60.6442 215.961 59.303 216.706 58.2385C217.472 57.174 218.516 56.5247 219.836 56.2905C218.643 56.2905 217.621 56.4502 216.77 56.7695C215.94 57.0889 215.237 57.5253 214.662 58.0788C214.087 58.6111 213.64 59.2391 213.321 59.963C213.023 60.6868 212.831 61.4532 212.746 62.2622L211.054 76.3772C210.947 77.2075 210.724 78.0058 210.383 78.7723C210.064 79.5387 209.627 80.2519 209.074 80.9119C208.52 81.5505 207.839 82.1254 207.03 82.6363C206.242 83.126 205.327 83.4985 204.284 83.754Z" fill="#333333"/>
<path d="M108.443 26.8455L104.917 17.6273C104.917 17.6273 99.0397 2.26359 83.776 6.53562C68.5124 10.8076 67.1085 24.8074 70.0469 32.4893C72.9854 40.1711 83.7923 50.7533 99.056 46.4813C114.32 42.2092 108.443 26.8455 108.443 26.8455Z" fill="#333333"/>
<path d="M111.948 26.746C111.558 26.8691 111.203 26.9432 110.883 26.9684C110.552 26.9972 110.259 26.9448 110.002 26.8112C109.746 26.6775 109.513 26.4548 109.302 26.1429C109.091 25.8311 108.899 25.3996 108.727 24.8485L106.368 17.3058C106.203 16.7777 106.122 16.3366 106.124 15.9826C106.112 15.6207 106.174 15.3172 106.312 15.072C106.45 14.8268 106.659 14.6284 106.939 14.4769C107.219 14.3254 107.566 14.1845 107.979 14.0543L120.85 9.99402C121.24 9.87098 121.593 9.79112 121.909 9.75443C122.214 9.72137 122.499 9.76411 122.763 9.88266C123.015 10.0048 123.245 10.2161 123.452 10.5165C123.645 10.809 123.823 11.2193 123.989 11.7474L126.348 19.2901C126.52 19.8412 126.608 20.3052 126.613 20.6822C126.617 21.0592 126.553 21.376 126.419 21.6327C126.285 21.8894 126.079 22.0992 125.803 22.2622C125.526 22.4252 125.187 22.57 124.785 22.6967L111.948 26.746ZM101.992 29.1866C101.201 29.4363 100.408 29.5223 99.6152 29.4445C98.8185 29.3553 98.0812 29.1338 97.4034 28.78C96.7256 28.4262 96.1281 27.9462 95.6108 27.34C95.082 26.7374 94.6937 26.04 94.446 25.2479C94.2018 24.4672 94.1269 23.6836 94.2212 22.897C94.3004 22.1026 94.5174 21.3657 94.872 20.6862C95.2267 20.0067 95.7072 19.4074 96.3136 18.8882C96.9165 18.3574 97.6136 17.9672 98.4052 17.7175C99.1853 17.4715 99.9737 17.393 100.77 17.4823C101.552 17.5636 102.282 17.7812 102.96 18.135C103.637 18.4888 104.241 18.967 104.769 19.5696C105.283 20.1643 105.662 20.852 105.906 21.6327C106.154 22.4249 106.238 23.2182 106.159 24.0126C106.068 24.8106 105.846 25.5493 105.491 26.2288C105.136 26.9083 104.663 27.5116 104.072 28.0387C103.466 28.5579 102.772 28.9406 101.992 29.1866ZM108.591 15.4692C108.339 15.5488 108.144 15.6293 108.005 15.7108C107.867 15.7923 107.78 15.8956 107.743 16.0206C107.695 16.1493 107.692 16.3015 107.735 16.4773C107.766 16.6568 107.824 16.8843 107.91 17.1598L122.64 12.5133C122.554 12.2378 122.478 12.0157 122.413 11.8471C122.336 11.6822 122.247 11.5589 122.146 11.4773C122.033 11.3993 121.903 11.3648 121.754 11.3738C121.594 11.3864 121.382 11.4343 121.119 11.5175L108.591 15.4692ZM99.3047 20.5934C100.108 20.3401 100.915 20.262 101.727 20.3591C102.535 20.4447 103.287 20.6741 103.984 21.0472C103.726 20.6242 103.405 20.2648 103.023 19.9692C102.637 19.6621 102.223 19.4269 101.781 19.2635C101.324 19.0923 100.847 18.9969 100.349 18.9773C99.8518 18.9577 99.3563 19.0257 98.863 19.1813C98.3697 19.3369 97.9245 19.5656 97.5274 19.8675C97.1302 20.1694 96.7988 20.5199 96.5329 20.9191C96.252 21.3104 96.0464 21.7411 95.9161 22.211C95.7707 22.6731 95.7068 23.1537 95.7242 23.6527C96.0831 22.9466 96.5698 22.3265 97.1841 21.7921C97.7948 21.2463 98.5016 20.8467 99.3047 20.5934Z" fill="#333333"/>
<path d="M64.136 43.787C61.5461 47.8012 56.3572 48.9202 52.343 46.3303C48.3289 43.7404 47.2098 38.5514 49.7998 34.5373C52.3897 30.5231 57.5786 29.4041 61.5927 31.994C65.6069 34.584 66.7259 39.7729 64.136 43.787Z" fill="white"/>
</svg>
