<svg width="198" height="105" viewBox="0 0 198 105" fill="none" xmlns="http://www.w3.org/2000/svg">
<path d="M108.068 29.7321L103.001 18.6021C103.001 18.6021 94.556 0.0520518 76.0068 6.50474C57.4575 12.9574 56.7939 30.3785 61.0165 39.6535C65.239 48.9285 79.4148 61.1875 97.964 54.7348C116.513 48.2821 108.068 29.7321 108.068 29.7321Z" fill="#333333"/>
<path d="M18.6962 58.3925C20.081 58.3925 21.4565 58.4954 22.8226 58.7012C24.1888 58.9071 25.4987 59.2439 26.7526 59.7118C28.0064 60.1796 29.1667 60.7878 30.2334 61.5364C31.3001 62.285 32.2264 63.2113 33.0124 64.3154C33.7984 65.4195 34.4159 66.7108 34.8651 68.1892C35.3142 69.6489 35.5388 71.3331 35.5388 73.242C35.5388 75.5999 35.2019 77.6398 34.5282 79.3614C33.8545 81.0644 32.9562 82.496 31.8334 83.6563C30.7106 84.8166 29.41 85.7335 27.9316 86.4072C26.4531 87.0622 24.8999 87.5207 23.2718 87.7827V95.418C23.2718 96.0917 23.2156 96.6718 23.1034 97.1584C22.9911 97.645 22.7852 98.0473 22.4858 98.3655C22.2051 98.7023 21.7934 98.9456 21.2507 99.0953C20.7267 99.2637 20.0436 99.3479 19.2015 99.3479H6.90643C6.00816 99.3479 5.27831 99.2637 4.71689 99.0953C4.15547 98.9269 3.7157 98.6742 3.39756 98.3374C3.07942 98.0192 2.86421 97.6169 2.75193 97.1303C2.63964 96.6438 2.5835 96.073 2.5835 95.418V72.9613C2.5835 70.6407 2.93907 68.5728 3.6502 66.7576C4.38004 64.9423 5.42802 63.4171 6.79414 62.182C8.17897 60.9469 9.86323 60.0112 11.8469 59.3749C13.8493 58.7199 16.1324 58.3925 18.6962 58.3925ZM31.5527 73.2139C31.5527 71.7729 31.3936 70.4349 31.0755 69.1998C30.7574 67.9646 30.2614 66.8699 29.5877 65.9155C28.914 64.961 28.0532 64.1844 27.0052 63.5856C25.9759 62.968 24.7315 62.575 23.2718 62.4066V84.1896C24.7315 84.0025 25.9759 83.6001 27.0052 82.9826C28.0532 82.365 28.914 81.5697 29.5877 80.5966C30.2614 79.6234 30.7574 78.51 31.0755 77.2561C31.3936 76.0023 31.5527 74.6549 31.5527 73.2139ZM20.9138 62.0978C20.7641 62.0791 20.5863 62.0604 20.3805 62.0417C20.1746 62.023 19.9594 62.0042 19.7348 61.9855C19.529 61.9668 19.3325 61.9575 19.1454 61.9575C18.9582 61.9575 18.8179 61.9575 18.7243 61.9575L18.6962 96.99C19.1454 96.99 19.5103 96.9713 19.791 96.9338C20.0717 96.9151 20.2963 96.8403 20.4647 96.7093C20.6331 96.597 20.7454 96.4192 20.8015 96.1759C20.8577 95.9514 20.8857 95.6239 20.8857 95.1934L20.9138 62.0978ZM39.6371 62.9399C39.6371 62.3037 39.6933 61.7422 39.8056 61.2557C39.9178 60.7504 40.133 60.3387 40.4512 60.0206C40.7693 59.7024 41.2091 59.4591 41.7705 59.2907C42.3319 59.1223 43.0618 59.0381 43.9601 59.0381H56.2551C57.116 59.0381 57.8084 59.1223 58.3324 59.2907C58.8751 59.4404 59.2961 59.6744 59.5956 59.9925C59.895 60.3106 60.0915 60.713 60.1851 61.1995C60.2786 61.6861 60.3254 62.2662 60.3254 62.9399V83.937C60.3254 84.5733 60.2786 85.1347 60.1851 85.6213C60.0915 86.0891 59.895 86.4915 59.5956 86.8283C59.2961 87.1464 58.8751 87.3897 58.3324 87.5581C57.8084 87.7079 57.116 87.7827 56.2551 87.7827H43.9601C43.0618 87.7827 42.3319 87.6985 41.7705 87.5301C41.2091 87.3617 40.7693 87.1184 40.4512 86.8002C40.133 86.4821 39.9178 86.0797 39.8056 85.5932C39.6933 85.1066 39.6371 84.5358 39.6371 83.8809V62.9399ZM40.6758 47.0237C40.6758 45.7325 40.919 44.5161 41.4056 43.3745C41.9109 42.233 42.5846 41.2411 43.4267 40.399C44.2688 39.5569 45.2607 38.8925 46.4022 38.4059C47.5438 37.9007 48.7602 37.648 50.0514 37.648C51.324 37.648 52.5217 37.9007 53.6445 38.4059C54.7861 38.8925 55.7779 39.5569 56.62 40.399C57.4622 41.2411 58.1265 42.233 58.6131 43.3745C59.1184 44.5161 59.371 45.7325 59.371 47.0237C59.371 48.2963 59.1184 49.5033 58.6131 50.6449C58.1265 51.7677 57.4622 52.7502 56.62 53.5923C55.7779 54.4344 54.7861 55.1082 53.6445 55.6134C52.5217 56.1 51.324 56.3433 50.0514 56.3433C48.7602 56.3433 47.5438 56.1 46.4022 55.6134C45.2607 55.1082 44.2688 54.4344 43.4267 53.5923C42.5846 52.7502 41.9109 51.7677 41.4056 50.6449C40.919 49.5033 40.6758 48.2963 40.6758 47.0237ZM57.9394 63.1926C57.9394 62.7809 57.9113 62.4534 57.8552 62.2101C57.799 61.9668 57.6867 61.789 57.5183 61.6767C57.3499 61.5458 57.1253 61.4709 56.8446 61.4522C56.5639 61.4148 56.199 61.396 55.7498 61.396V85.4248C56.199 85.4248 56.5639 85.4154 56.8446 85.3967C57.1253 85.3593 57.3499 85.2844 57.5183 85.1721C57.6867 85.0411 57.799 84.8633 57.8552 84.6388C57.9113 84.3955 57.9394 84.0586 57.9394 83.6282V63.1926ZM54.6831 47.0237C54.6831 48.3337 54.4212 49.5688 53.8972 50.7291C53.3919 51.8894 52.6995 52.8999 51.8199 53.7607C52.5685 53.5736 53.2515 53.2648 53.8691 52.8344C54.5054 52.404 55.0481 51.8987 55.4972 51.3186C55.9651 50.7197 56.33 50.0554 56.592 49.3255C56.854 48.5957 56.985 47.8284 56.985 47.0237C56.985 46.219 56.854 45.4518 56.592 44.7219C56.33 43.9921 55.9651 43.3371 55.4972 42.7569C55.0481 42.1581 54.5054 41.6528 53.8691 41.2411C53.2515 40.8107 52.5685 40.4926 51.8199 40.2867C52.6995 41.1475 53.3919 42.1581 53.8972 43.3184C54.4212 44.4786 54.6831 45.7137 54.6831 47.0237ZM65.5185 62.9399C65.5185 62.3037 65.5747 61.7422 65.687 61.2557C65.7992 60.7504 66.0144 60.3387 66.3326 60.0206C66.6507 59.7024 67.0905 59.4591 67.6519 59.2907C68.2133 59.1223 68.9432 59.0381 69.8414 59.0381H81.3225C82.1646 59.0381 82.8851 59.1223 83.4839 59.2907C84.1015 59.4591 84.5413 59.7492 84.8033 60.1609C85.0465 59.9925 85.3366 59.8147 85.6735 59.6276C86.029 59.4217 86.4127 59.2346 86.8244 59.0662C87.2361 58.8977 87.6758 58.7574 88.1437 58.6451C88.6115 58.5328 89.0981 58.4767 89.6034 58.4767C91.3999 58.4767 92.7941 59.0942 93.786 60.3293C94.7965 61.5645 95.3018 63.3797 95.3018 65.7751V86.4634C95.3018 86.7815 95.255 87.0342 95.1614 87.2213C95.0866 87.3897 94.9836 87.5207 94.8526 87.6143C94.7404 87.6891 94.6 87.7359 94.4316 87.7546C94.2632 87.7734 94.0947 87.7827 93.9263 87.7827H92.1298C91.6432 87.7827 91.3251 87.6424 91.1754 87.3617C91.0444 87.0809 90.9789 86.7815 90.9789 86.4634V65.4944C90.9789 64.4277 90.7824 63.6136 90.3894 63.0522C90.0151 62.4908 89.4069 62.2101 88.5648 62.2101C88.1343 62.2101 87.6946 62.3317 87.2454 62.575C86.815 62.7996 86.4688 63.0429 86.2068 63.3049V83.8528C86.2068 84.5078 86.1507 85.0785 86.0384 85.5651C85.9261 86.0517 85.7109 86.4634 85.3927 86.8002C85.0746 87.1184 84.6348 87.3617 84.0734 87.5301C83.512 87.6985 82.7821 87.7827 81.8839 87.7827H69.8414C68.9432 87.7827 68.2133 87.6985 67.6519 87.5301C67.0905 87.3617 66.6507 87.1184 66.3326 86.8002C66.0144 86.4821 65.7992 86.0797 65.687 85.5932C65.5747 85.1066 65.5185 84.5358 65.5185 83.8809V62.9399ZM83.8208 63.1926C83.8208 62.5376 83.643 62.0791 83.2874 61.8171C82.9506 61.5364 82.3985 61.396 81.6312 61.396V85.4248C82.0804 85.4248 82.4453 85.4154 82.726 85.3967C83.0067 85.3593 83.2313 85.2844 83.3997 85.1721C83.5681 85.0411 83.6804 84.8633 83.7366 84.6388C83.7927 84.3955 83.8208 84.0586 83.8208 83.6282V63.1926ZM116.72 84.9756C115.298 84.9756 113.885 84.8821 112.481 84.6949C111.078 84.4891 109.73 84.1709 108.439 83.7405C108.42 83.8341 108.411 83.9276 108.411 84.0212C108.411 84.0961 108.411 84.1803 108.411 84.2738C108.411 84.8353 108.504 85.3593 108.692 85.8458C108.879 86.3137 109.169 86.7254 109.562 87.0809C109.974 87.4365 110.507 87.7172 111.162 87.9231C111.817 88.1289 112.612 88.2318 113.548 88.2318C114.577 88.2318 115.532 88.1664 116.411 88.0354C117.291 87.9231 118.152 87.8014 118.994 87.6704C119.836 87.5207 120.678 87.3897 121.52 87.2774C122.381 87.1464 123.289 87.0809 124.243 87.0809C125.16 87.0809 126.058 87.2494 126.938 87.5862C127.817 87.9044 128.594 88.3722 129.268 88.9898C129.96 89.626 130.512 90.4027 130.924 91.3197C131.336 92.2366 131.541 93.2846 131.541 94.4636C131.541 95.5116 131.438 96.4286 131.233 97.2145C131.045 98.0005 130.849 98.7491 130.643 99.4602C130.606 99.5538 130.531 99.6661 130.419 99.7971C130.325 99.9281 130.138 99.9936 129.857 99.9936H127.78C127.518 99.9936 127.349 99.9281 127.275 99.7971C127.2 99.6848 127.144 99.5912 127.106 99.5164C126.751 98.6368 125.375 98.197 122.98 98.197C121.95 98.197 120.931 98.2532 119.92 98.3655C118.909 98.4965 117.88 98.6275 116.832 98.7584C115.784 98.9082 114.689 99.0392 113.548 99.1514C112.425 99.2824 111.237 99.3479 109.983 99.3479C108.242 99.3479 106.764 99.0579 105.548 98.4777C104.35 97.8976 103.377 97.1584 102.628 96.2601C101.88 95.3806 101.337 94.4075 101 93.3408C100.663 92.2741 100.495 91.2635 100.495 90.3091C100.495 89.2798 100.607 88.3441 100.832 87.502C101.075 86.6412 101.384 85.8645 101.758 85.1721C102.132 84.4797 102.563 83.8621 103.049 83.3194C103.536 82.758 104.022 82.2527 104.509 81.8036C102.975 80.7556 101.739 79.3895 100.804 77.7053C99.868 76.021 99.4001 73.9531 99.4001 71.5016C99.4001 69.836 99.6341 68.3483 100.102 67.0383C100.57 65.7096 101.206 64.5493 102.011 63.5575C102.834 62.5469 103.798 61.6955 104.902 61.003C106.006 60.3106 107.195 59.7492 108.467 59.3188C109.758 58.8697 111.106 58.5515 112.509 58.3644C113.913 58.1585 115.316 58.0556 116.72 58.0556C117.974 58.0556 119.256 58.1211 120.566 58.2521C121.876 58.3831 123.148 58.6264 124.383 58.9819C125.637 59.3188 126.816 59.7773 127.92 60.3574C129.043 60.9375 130.035 61.6767 130.896 62.575L133.955 59.4591C134.161 59.2533 134.358 59.1036 134.545 59.01C134.751 58.9164 134.938 58.8697 135.106 58.8697C135.406 58.8697 135.677 58.9913 135.92 59.2346L137.296 60.6943C137.52 60.9563 137.633 61.2276 137.633 61.5083C137.633 61.92 137.399 62.2943 136.931 62.6312L132.861 65.4944C133.235 66.2991 133.516 67.1787 133.703 68.1331C133.909 69.0875 134.012 70.1355 134.012 71.277C134.012 73.1858 133.768 74.8514 133.282 76.2736C132.795 77.6959 132.121 78.9123 131.261 79.9229C130.419 80.9334 129.436 81.7662 128.313 82.4212C127.19 83.0762 125.983 83.5908 124.692 83.9651C123.42 84.3393 122.1 84.6013 120.734 84.7511C119.368 84.9008 118.03 84.9756 116.72 84.9756ZM126.096 68.4138C126.002 68.3202 125.955 68.1798 125.955 67.9927C125.955 67.7681 126.039 67.5716 126.208 67.4032L128.004 65.5505C127.63 65.2698 127.218 65.0733 126.769 64.961C126.339 64.8488 125.899 64.7926 125.45 64.7926C125.001 64.7926 124.496 64.8675 123.934 65.0172C123.391 65.1482 122.867 65.4476 122.362 65.9155C121.876 66.3833 121.464 67.0664 121.127 67.9646C120.79 68.8442 120.622 70.0232 120.622 71.5016C120.622 72.98 120.753 74.1683 121.015 75.0666C121.295 75.9461 121.66 76.6198 122.11 77.0877C122.559 77.5555 123.073 77.8643 123.653 78.014C124.234 78.1637 124.832 78.2386 125.45 78.2386C126.03 78.2386 126.601 78.145 127.162 77.9579C127.724 77.752 128.21 77.3965 128.622 76.8912C129.052 76.3672 129.399 75.6654 129.661 74.7859C129.923 73.8876 130.054 72.7367 130.054 71.3331C130.054 69.9296 129.895 68.7693 129.576 67.8524L127.696 69.1717C127.546 69.2653 127.396 69.312 127.247 69.312C127.003 69.312 126.807 69.2185 126.657 69.0313L126.096 68.4138ZM123.064 79.7544C122.521 79.6796 121.96 79.4737 121.38 79.1369C120.818 78.8 120.304 78.3041 119.836 77.6491C119.368 76.9754 118.984 76.1333 118.685 75.1227C118.385 74.1122 118.236 72.9051 118.236 71.5016C118.236 70.098 118.414 68.9003 118.769 67.9085C119.143 66.8979 119.583 66.0745 120.088 65.4383C120.594 64.7833 121.118 64.2967 121.66 63.9786C122.222 63.6604 122.69 63.4639 123.064 63.3891C122.334 63.3891 121.557 63.5388 120.734 63.8382C119.911 64.1189 119.143 64.5868 118.432 65.2418C117.74 65.878 117.16 66.7108 116.692 67.7401C116.224 68.7693 115.99 70.0232 115.99 71.5016C115.99 72.98 116.187 74.2432 116.58 75.2912C116.991 76.3391 117.525 77.1906 118.18 77.8456C118.835 78.5006 119.583 78.9872 120.425 79.3053C121.286 79.6047 122.166 79.7544 123.064 79.7544ZM125.001 89.3828C125.6 90.0003 126.068 90.7302 126.404 91.5723C126.741 92.4144 126.91 93.3782 126.91 94.4636C126.91 94.9314 126.882 95.3244 126.825 95.6426C126.769 95.9607 126.723 96.2134 126.685 96.4005C127.078 96.4566 127.471 96.6157 127.864 96.8777C128.257 97.1397 128.528 97.3923 128.678 97.6356C128.79 97.3923 128.893 96.99 128.987 96.4286C129.099 95.8671 129.155 95.2122 129.155 94.4636C129.155 93.0788 128.781 91.9279 128.032 91.0109C127.303 90.0939 126.292 89.5512 125.001 89.3828ZM139.008 62.9399C139.008 62.3037 139.064 61.7422 139.177 61.2557C139.289 60.7504 139.504 60.3387 139.822 60.0206C140.14 59.7024 140.58 59.4591 141.142 59.2907C141.703 59.1223 142.433 59.0381 143.331 59.0381H155.626C156.487 59.0381 157.179 59.1223 157.703 59.2907C158.246 59.4404 158.667 59.6744 158.967 59.9925C159.266 60.3106 159.463 60.713 159.556 61.1995C159.65 61.6861 159.696 62.2662 159.696 62.9399V83.937C159.696 84.5733 159.65 85.1347 159.556 85.6213C159.463 86.0891 159.266 86.4915 158.967 86.8283C158.667 87.1464 158.246 87.3897 157.703 87.5581C157.179 87.7079 156.487 87.7827 155.626 87.7827H143.331C142.433 87.7827 141.703 87.6985 141.142 87.5301C140.58 87.3617 140.14 87.1184 139.822 86.8002C139.504 86.4821 139.289 86.0797 139.177 85.5932C139.064 85.1066 139.008 84.5358 139.008 83.8809V62.9399ZM140.047 47.0237C140.047 45.7325 140.29 44.5161 140.777 43.3745C141.282 42.233 141.956 41.2411 142.798 40.399C143.64 39.5569 144.632 38.8925 145.773 38.4059C146.915 37.9007 148.131 37.648 149.423 37.648C150.695 37.648 151.893 37.9007 153.016 38.4059C154.157 38.8925 155.149 39.5569 155.991 40.399C156.833 41.2411 157.498 42.233 157.984 43.3745C158.489 44.5161 158.742 45.7325 158.742 47.0237C158.742 48.2963 158.489 49.5033 157.984 50.6449C157.498 51.7677 156.833 52.7502 155.991 53.5923C155.149 54.4344 154.157 55.1082 153.016 55.6134C151.893 56.1 150.695 56.3433 149.423 56.3433C148.131 56.3433 146.915 56.1 145.773 55.6134C144.632 55.1082 143.64 54.4344 142.798 53.5923C141.956 52.7502 141.282 51.7677 140.777 50.6449C140.29 49.5033 140.047 48.2963 140.047 47.0237ZM157.31 63.1926C157.31 62.7809 157.282 62.4534 157.226 62.2101C157.17 61.9668 157.058 61.789 156.889 61.6767C156.721 61.5458 156.496 61.4709 156.216 61.4522C155.935 61.4148 155.57 61.396 155.121 61.396V85.4248C155.57 85.4248 155.935 85.4154 156.216 85.3967C156.496 85.3593 156.721 85.2844 156.889 85.1721C157.058 85.0411 157.17 84.8633 157.226 84.6388C157.282 84.3955 157.31 84.0586 157.31 83.6282V63.1926ZM154.054 47.0237C154.054 48.3337 153.792 49.5688 153.268 50.7291C152.763 51.8894 152.071 52.8999 151.191 53.7607C151.94 53.5736 152.623 53.2648 153.24 52.8344C153.876 52.404 154.419 51.8987 154.868 51.3186C155.336 50.7197 155.701 50.0554 155.963 49.3255C156.225 48.5957 156.356 47.8284 156.356 47.0237C156.356 46.219 156.225 45.4518 155.963 44.7219C155.701 43.9921 155.336 43.3371 154.868 42.7569C154.419 42.1581 153.876 41.6528 153.24 41.2411C152.623 40.8107 151.94 40.4926 151.191 40.2867C152.071 41.1475 152.763 42.1581 153.268 43.3184C153.792 44.4786 154.054 45.7137 154.054 47.0237ZM184.904 58.0556C186.102 58.0556 187.3 58.1305 188.497 58.2802C189.695 58.4112 190.827 58.5889 191.894 58.8135C192.979 59.0381 193.962 59.2907 194.841 59.5714C195.74 59.8334 196.469 60.0954 197.031 60.3574C197.124 60.3948 197.218 60.451 197.312 60.5258C197.424 60.6007 197.48 60.7411 197.48 60.9469C197.48 61.003 197.471 61.0779 197.452 61.1715C197.433 61.265 197.414 61.3586 197.396 61.4522L197.059 63.1084C197.021 63.3329 196.965 63.4733 196.89 63.5294C196.834 63.5669 196.778 63.5856 196.722 63.5856C196.628 63.5856 196.451 63.5575 196.189 63.5014C195.927 63.4452 195.646 63.4171 195.347 63.4171C194.28 63.4171 193.438 63.7072 192.82 64.2873C192.203 64.8488 191.81 65.8406 191.641 67.2629L190.069 80.372C189.92 81.5323 189.527 82.6177 188.89 83.6282C188.273 84.6388 187.374 85.5277 186.195 86.295C185.016 87.0622 183.557 87.6611 181.816 88.0915C180.095 88.5406 178.074 88.7652 175.753 88.7652C174.293 88.7652 172.871 88.6716 171.486 88.4845C170.101 88.3161 168.82 88.1009 167.641 87.8389C166.48 87.5956 165.46 87.3523 164.581 87.109C163.72 86.847 163.074 86.6412 162.644 86.4915C162.494 86.454 162.382 86.4072 162.307 86.3511C162.214 86.2762 162.167 86.164 162.167 86.0142C162.167 85.9394 162.176 85.8552 162.195 85.7616C162.214 85.668 162.242 85.5558 162.279 85.4248L162.616 83.8528C162.653 83.7031 162.719 83.5814 162.812 83.4879C162.906 83.3943 163.074 83.3475 163.318 83.3475C163.935 83.3475 164.553 83.3194 165.17 83.2633C165.807 83.1884 166.387 83.0107 166.911 82.7299C167.453 82.4492 167.921 82.0188 168.314 81.4387C168.726 80.8586 169.007 80.0445 169.156 78.9965L171.121 65.4663C171.327 64.0441 171.851 62.8557 172.693 61.9013C173.535 60.9469 174.574 60.189 175.809 59.6276C177.063 59.0474 178.476 58.6451 180.048 58.4205C181.62 58.1772 183.239 58.0556 184.904 58.0556ZM179.571 86.1546C182.153 85.8552 184.109 85.1347 185.438 83.9931C186.785 82.8329 187.562 81.3919 187.767 79.6702L189.255 67.2629C189.424 65.8406 189.835 64.6616 190.49 63.7259C191.164 62.7902 192.081 62.2195 193.241 62.0136C192.193 62.0136 191.295 62.154 190.546 62.4347C189.817 62.7154 189.199 63.099 188.694 63.5856C188.188 64.0534 187.796 64.6055 187.515 65.2418C187.253 65.878 187.084 66.5517 187.01 67.2629L185.522 79.6702C185.428 80.4001 185.232 81.1018 184.932 81.7755C184.652 82.4492 184.268 83.0762 183.781 83.6563C183.295 84.2177 182.696 84.723 181.985 85.1721C181.292 85.6025 180.488 85.93 179.571 86.1546Z" fill="#333333"/>
<path d="M113.25 29.0117C112.777 29.1937 112.344 29.3126 111.95 29.3683C111.542 29.4293 111.175 29.387 110.848 29.2413C110.521 29.0956 110.216 28.838 109.931 28.4685C109.646 28.099 109.376 27.5801 109.121 26.9118L105.625 17.7645C105.38 17.124 105.246 16.5848 105.222 16.1467C105.179 15.7001 105.234 15.32 105.385 15.0062C105.536 14.6924 105.779 14.4311 106.115 14.2222C106.45 14.0134 106.867 13.8126 107.368 13.6199L122.975 7.61239C123.448 7.43034 123.879 7.30452 124.267 7.23493C124.641 7.17069 124.996 7.20176 125.332 7.32815C125.653 7.45989 125.954 7.70356 126.233 8.05913C126.494 8.40614 126.746 8.89987 126.991 9.54033L130.486 18.6877C130.741 19.356 130.886 19.9231 130.921 20.389C130.955 20.8548 130.899 21.2516 130.753 21.5793C130.607 21.9071 130.369 22.1823 130.04 22.405C129.71 22.6278 129.302 22.8329 128.815 23.0203L113.25 29.0117ZM101.124 32.7928C100.164 33.1622 99.191 33.3292 98.2042 33.2938C97.2121 33.2445 96.2833 33.0271 95.418 32.6415C94.5526 32.2559 93.7768 31.7081 93.0906 30.998C92.3905 30.2932 91.857 29.4605 91.4899 28.4999C91.1281 27.5531 90.9754 26.5897 91.0317 25.6098C91.0689 24.6213 91.2807 23.6933 91.6672 22.8258C92.0538 21.9584 92.6021 21.1803 93.3123 20.4917C94.0171 19.7892 94.8495 19.2532 95.8092 18.8837C96.7551 18.5197 97.7241 18.3623 98.7163 18.4116C99.6892 18.4523 100.608 18.6655 101.474 19.0511C102.339 19.4367 103.122 19.9818 103.822 20.6866C104.503 21.3827 105.024 22.2042 105.386 23.1509C105.753 24.1116 105.918 25.0862 105.881 26.0747C105.83 27.0686 105.611 27.9993 105.224 28.8667C104.838 29.7342 104.299 30.5165 103.608 31.2137C102.898 31.9023 102.07 32.4287 101.124 32.7928ZM108.234 15.3228C107.928 15.4406 107.693 15.5551 107.528 15.6665C107.363 15.7779 107.263 15.9123 107.227 16.0697C107.178 16.2325 107.186 16.421 107.252 16.6352C107.304 16.8548 107.394 17.1316 107.521 17.4658L125.382 10.5909C125.254 10.2567 125.143 9.98791 125.05 9.78442C124.942 9.58629 124.823 9.44063 124.691 9.34745C124.546 9.25962 124.382 9.22695 124.199 9.24943C124.002 9.27727 123.744 9.35276 123.424 9.47591L108.234 15.3228ZM97.142 22.3714C98.1156 21.9966 99.1082 21.8382 100.12 21.8961C101.126 21.94 102.074 22.166 102.963 22.5741C102.612 22.0707 102.188 21.6509 101.692 21.3146C101.192 20.9644 100.662 20.7052 100.103 20.537C99.5247 20.3603 98.9272 20.2788 98.3102 20.2927C97.6932 20.3066 97.0857 20.4287 96.4876 20.6589C95.8894 20.8892 95.3564 21.2061 94.8884 21.6099C94.4204 22.0136 94.0373 22.4725 93.7391 22.9866C93.4216 23.4921 93.2004 24.0404 93.0752 24.6316C92.9309 25.2142 92.8886 25.8134 92.9484 26.4292C93.3382 25.5285 93.8925 24.7242 94.6112 24.0163C95.3247 23.2945 96.1683 22.7462 97.142 22.3714Z" fill="#333333"/>
<path d="M56.378 50.7961C54.1014 54.3246 49.5402 55.3082 46.0117 53.0316C42.4832 50.755 41.4995 46.1939 43.7761 42.6653C46.0527 39.1368 50.6139 38.1532 54.1424 40.4298C57.6709 42.7064 58.6546 47.2675 56.378 50.7961Z" fill="white"/>
</svg>
