<svg width="107" height="104" viewBox="0 0 107 104" fill="none" xmlns="http://www.w3.org/2000/svg">
<path d="M9.73864 82.4834V28.0896H21.8525V82.4834H9.73864ZM1.02929 54.2968V44.0039H54.9481V54.2968H1.02929ZM34.1248 82.4834V28.0896H46.2387V82.4834H34.1248ZM60.2553 82.4834V44.0039H72.3692V82.4834H60.2553ZM66.3519 38.6991C64.4517 38.6991 62.8681 38.0657 61.6013 36.7989C60.3873 35.4793 59.7803 33.8958 59.7803 32.0484C59.7803 30.1481 60.3873 28.5646 61.6013 27.2978C62.8681 26.031 64.4517 25.3976 66.3519 25.3976C68.2521 25.3976 69.8092 26.031 71.0233 27.2978C72.2373 28.5646 72.8443 30.1481 72.8443 32.0484C72.8443 33.8958 72.2373 35.4793 71.0233 36.7989C69.8092 38.0657 68.2521 38.6991 66.3519 38.6991Z" fill="#333333"/>
<path d="M70.6152 33.2682C69.1608 35.5224 66.2469 36.1508 63.9927 34.6964C61.7385 33.242 61.1101 30.328 62.5645 28.0738C64.0189 25.8196 66.9328 25.1912 69.187 26.6456C71.4412 28.1 72.0696 31.014 70.6152 33.2682ZM80.952 13.7126C80.952 13.7126 78.303 14.2839 76.6928 13.2451L71.0573 9.60904C69.7692 8.77795 67.9149 9.17785 67.0838 10.466C66.2527 11.7541 66.6526 13.6084 67.9407 14.4395L73.5762 18.0755C75.1864 19.1144 75.7577 21.7634 75.7577 21.7634L80.952 13.7126ZM81.5233 16.3616L78.4067 21.1921C78.4067 21.1921 73.2124 29.2428 81.2631 34.4371C89.3138 39.6314 96.6895 35.2686 99.2867 31.2432C101.884 27.2179 102.819 18.6996 94.7683 13.5052C86.7176 8.31093 81.5233 16.3616 81.5233 16.3616Z" fill="#333333"/>
</svg>
