<svg width="225" height="119" viewBox="0 0 225 119" fill="none" xmlns="http://www.w3.org/2000/svg">
<path d="M122.94 33.8241L117.176 21.1622C117.176 21.1622 107.568 0.0592225 86.4663 7.39999C65.3642 14.7408 64.6093 34.5595 69.413 45.111C74.2167 55.6625 90.3434 69.6086 111.446 62.2679C132.548 54.9271 122.94 33.8241 122.94 33.8241Z" fill="#333333"/>
<path d="M21.2682 66.171C22.8437 66.171 24.4084 66.2881 25.9626 66.5223C27.5167 66.7565 29.007 67.1397 30.4334 67.6719C31.8598 68.2042 33.1797 68.8961 34.3932 69.7476C35.6067 70.5992 36.6606 71.6531 37.5547 72.9091C38.4489 74.1652 39.1514 75.6342 39.6624 77.3161C40.1733 78.9767 40.4288 80.8927 40.4288 83.0642C40.4288 85.7467 40.0456 88.0673 39.2792 90.0259C38.5127 91.9633 37.4908 93.5919 36.2135 94.9119C34.9361 96.2318 33.4565 97.275 31.7746 98.0414C30.0927 98.7866 28.3257 99.3081 26.4735 99.6062V108.292C26.4735 109.059 26.4097 109.719 26.2819 110.272C26.1542 110.826 25.92 111.284 25.5794 111.645C25.26 112.029 24.7916 112.305 24.1743 112.476C23.5781 112.667 22.8011 112.763 21.8431 112.763H7.85583C6.83394 112.763 6.00365 112.667 5.36496 112.476C4.72627 112.284 4.22597 111.997 3.86405 111.613C3.50213 111.252 3.2573 110.794 3.12956 110.24C3.00182 109.687 2.93795 109.037 2.93795 108.292V82.7449C2.93795 80.105 3.34246 77.7525 4.15146 75.6874C4.98175 73.6223 6.17396 71.8872 7.7281 70.4821C9.30352 69.077 11.2196 68.0125 13.4763 67.2887C15.7542 66.5436 18.3516 66.171 21.2682 66.171ZM35.8941 83.0323C35.8941 81.393 35.7132 79.8708 35.3513 78.4657C34.9893 77.0606 34.4252 75.8152 33.6587 74.7294C32.8923 73.6436 31.913 72.7601 30.7208 72.0788C29.5499 71.3763 28.1341 70.9292 26.4735 70.7376V95.5186C28.1341 95.3057 29.5499 94.848 30.7208 94.1454C31.913 93.4429 32.8923 92.5381 33.6587 91.431C34.4252 90.324 34.9893 89.0572 35.3513 87.6308C35.7132 86.2044 35.8941 84.6716 35.8941 83.0323ZM23.791 70.3863C23.6207 70.365 23.4185 70.3438 23.1843 70.3225C22.9501 70.3012 22.7053 70.2799 22.4498 70.2586C22.2156 70.2373 21.9921 70.2267 21.7792 70.2267C21.5663 70.2267 21.4066 70.2267 21.3002 70.2267L21.2682 110.081C21.7792 110.081 22.1943 110.059 22.5137 110.017C22.833 109.995 23.0885 109.91 23.2801 109.761C23.4717 109.634 23.5994 109.431 23.6633 109.155C23.7272 108.899 23.7591 108.527 23.7591 108.037L23.791 70.3863ZM45.0912 71.3444C45.0912 70.6205 45.1551 69.9818 45.2828 69.4283C45.4106 68.8535 45.6554 68.3851 46.0173 68.0232C46.3792 67.6613 46.8795 67.3845 47.5182 67.1929C48.1569 67.0013 48.9872 66.9055 50.0091 66.9055H63.9963C64.9756 66.9055 65.7633 67.0013 66.3594 67.1929C66.9768 67.3632 67.4559 67.6293 67.7965 67.9913C68.1371 68.3532 68.3607 68.8109 68.4671 69.3644C68.5736 69.918 68.6268 70.5779 68.6268 71.3444V95.2312C68.6268 95.955 68.5736 96.5937 68.4671 97.1473C68.3607 97.6795 68.1371 98.1372 67.7965 98.5204C67.4559 98.8824 66.9768 99.1591 66.3594 99.3507C65.7633 99.521 64.9756 99.6062 63.9963 99.6062H50.0091C48.9872 99.6062 48.1569 99.5104 47.5182 99.3188C46.8795 99.1272 46.3792 98.8504 46.0173 98.4885C45.6554 98.1266 45.4106 97.6689 45.2828 97.1153C45.1551 96.5618 45.0912 95.9125 45.0912 95.1673V71.3444ZM46.2728 53.2376C46.2728 51.7686 46.5495 50.3848 47.1031 49.0862C47.6779 47.7875 48.4443 46.6592 49.4023 45.7011C50.3604 44.7431 51.4887 43.9873 52.7874 43.4338C54.086 42.859 55.4699 42.5716 56.9388 42.5716C58.3865 42.5716 59.749 42.859 61.0264 43.4338C62.3251 43.9873 63.4534 44.7431 64.4115 45.7011C65.3695 46.6592 66.1253 47.7875 66.6788 49.0862C67.2536 50.3848 67.541 51.7686 67.541 53.2376C67.541 54.6853 67.2536 56.0585 66.6788 57.3571C66.1253 58.6345 65.3695 59.7522 64.4115 60.7102C63.4534 61.6683 62.3251 62.4347 61.0264 63.0095C59.749 63.563 58.3865 63.8398 56.9388 63.8398C55.4699 63.8398 54.086 63.563 52.7874 63.0095C51.4887 62.4347 50.3604 61.6683 49.4023 60.7102C48.4443 59.7522 47.6779 58.6345 47.1031 57.3571C46.5495 56.0585 46.2728 54.6853 46.2728 53.2376ZM65.9124 71.6318C65.9124 71.1634 65.8804 70.7908 65.8166 70.5141C65.7527 70.2373 65.625 70.0351 65.4333 69.9073C65.2417 69.7583 64.9863 69.6731 64.6669 69.6518C64.3476 69.6093 63.9324 69.588 63.4215 69.588V96.9237C63.9324 96.9237 64.3476 96.9131 64.6669 96.8918C64.9863 96.8492 65.2417 96.764 65.4333 96.6363C65.625 96.4873 65.7527 96.285 65.8166 96.0296C65.8804 95.7528 65.9124 95.3696 65.9124 94.8799V71.6318ZM62.208 53.2376C62.208 54.7279 61.9099 56.133 61.3138 57.4529C60.739 58.7729 59.9513 59.9225 58.9507 60.9018C59.8023 60.689 60.5793 60.3377 61.2819 59.848C62.0057 59.3584 62.6231 58.7835 63.1341 58.1236C63.6663 57.4423 64.0815 56.6865 64.3795 55.8562C64.6776 55.0259 64.8266 54.1531 64.8266 53.2376C64.8266 52.3222 64.6776 51.4493 64.3795 50.619C64.0815 49.7887 63.6663 49.0436 63.1341 48.3836C62.6231 47.7023 62.0057 47.1275 61.2819 46.6592C60.5793 46.1695 59.8023 45.8076 58.9507 45.5734C59.9513 46.5527 60.739 47.7023 61.3138 49.0223C61.9099 50.3422 62.208 51.7474 62.208 53.2376ZM74.5346 71.3444C74.5346 70.6205 74.5985 69.9818 74.7262 69.4283C74.854 68.8535 75.0988 68.3851 75.4607 68.0232C75.8226 67.6613 76.3229 67.3845 76.9616 67.1929C77.6003 67.0013 78.4306 66.9055 79.4525 66.9055H92.5136C93.4716 66.9055 94.2913 67.0013 94.9726 67.1929C95.6751 67.3845 96.1754 67.7145 96.4735 68.1829C96.7502 67.9913 97.0802 67.789 97.4634 67.5761C97.8679 67.3419 98.3044 67.129 98.7727 66.9374C99.2411 66.7458 99.7414 66.5862 100.274 66.4584C100.806 66.3307 101.359 66.2668 101.934 66.2668C103.978 66.2668 105.564 66.9694 106.692 68.3745C107.842 69.7796 108.417 71.8447 108.417 74.5697V98.1053C108.417 98.4672 108.364 98.7546 108.257 98.9675C108.172 99.1591 108.055 99.3081 107.906 99.4146C107.778 99.4998 107.619 99.553 107.427 99.5743C107.235 99.5956 107.044 99.6062 106.852 99.6062H104.808C104.255 99.6062 103.893 99.4465 103.723 99.1272C103.574 98.8078 103.499 98.4672 103.499 98.1053V74.2504C103.499 73.0369 103.275 72.1108 102.828 71.4721C102.403 70.8334 101.711 70.5141 100.753 70.5141C100.263 70.5141 99.7627 70.6525 99.2518 70.9292C98.7621 71.1847 98.3682 71.4615 98.0702 71.7595V95.1354C98.0702 95.8805 98.0063 96.5299 97.8786 97.0834C97.7508 97.6369 97.506 98.1053 97.1441 98.4885C96.7822 98.8504 96.2819 99.1272 95.6432 99.3188C95.0045 99.5104 94.1742 99.6062 93.1523 99.6062H79.4525C78.4306 99.6062 77.6003 99.5104 76.9616 99.3188C76.3229 99.1272 75.8226 98.8504 75.4607 98.4885C75.0988 98.1266 74.854 97.6689 74.7262 97.1153C74.5985 96.5618 74.5346 95.9125 74.5346 95.1673V71.3444ZM95.3558 71.6318C95.3558 70.8866 95.1535 70.365 94.749 70.067C94.3658 69.7476 93.7378 69.588 92.8649 69.588V96.9237C93.3758 96.9237 93.791 96.9131 94.1103 96.8918C94.4297 96.8492 94.6852 96.764 94.8768 96.6363C95.0684 96.4873 95.1961 96.285 95.26 96.0296C95.3238 95.7528 95.3558 95.3696 95.3558 94.8799V71.6318ZM132.783 96.4128C131.165 96.4128 129.557 96.3063 127.961 96.0934C126.364 95.8592 124.831 95.4973 123.362 95.0077C123.341 95.1141 123.33 95.2206 123.33 95.327C123.33 95.4122 123.33 95.508 123.33 95.6144C123.33 96.2531 123.437 96.8492 123.65 97.4027C123.862 97.935 124.192 98.4033 124.64 98.8078C125.108 99.2123 125.715 99.5317 126.46 99.7659C127.205 100 128.11 100.117 129.174 100.117C130.345 100.117 131.431 100.043 132.431 99.8936C133.432 99.7659 134.411 99.6275 135.369 99.4785C136.327 99.3081 137.285 99.1591 138.244 99.0314C139.223 98.8824 140.255 98.8078 141.341 98.8078C142.384 98.8078 143.406 98.9994 144.407 99.3827C145.407 99.7446 146.291 100.277 147.057 100.979C147.845 101.703 148.473 102.587 148.941 103.63C149.41 104.673 149.644 105.865 149.644 107.207C149.644 108.399 149.527 109.442 149.293 110.336C149.08 111.23 148.856 112.082 148.622 112.891C148.58 112.997 148.494 113.125 148.367 113.274C148.26 113.423 148.047 113.498 147.728 113.498H145.365C145.067 113.498 144.875 113.423 144.79 113.274C144.705 113.146 144.641 113.04 144.598 112.955C144.194 111.954 142.629 111.454 139.904 111.454C138.733 111.454 137.573 111.518 136.423 111.645C135.274 111.794 134.103 111.943 132.91 112.093C131.718 112.263 130.473 112.412 129.174 112.54C127.897 112.689 126.545 112.763 125.119 112.763C123.139 112.763 121.457 112.433 120.073 111.773C118.71 111.113 117.603 110.272 116.752 109.25C115.9 108.25 115.283 107.143 114.9 105.929C114.516 104.716 114.325 103.566 114.325 102.48C114.325 101.309 114.452 100.245 114.708 99.2869C114.985 98.3075 115.336 97.424 115.762 96.6363C116.188 95.8486 116.677 95.146 117.231 94.5287C117.784 93.89 118.338 93.3151 118.891 92.8042C117.146 91.612 115.74 90.0579 114.676 88.1418C113.612 86.2257 113.079 83.8732 113.079 81.0843C113.079 79.1895 113.345 77.497 113.878 76.0068C114.41 74.4952 115.134 73.1753 116.049 72.0469C116.986 70.8973 118.082 69.9286 119.338 69.1409C120.594 68.3532 121.946 67.7145 123.394 67.2248C124.863 66.7139 126.396 66.352 127.993 66.1391C129.589 65.9049 131.186 65.7878 132.783 65.7878C134.209 65.7878 135.667 65.8623 137.158 66.0113C138.648 66.1604 140.096 66.4371 141.501 66.8416C142.927 67.2248 144.268 67.7464 145.525 68.4064C146.802 69.0664 147.93 69.9073 148.91 70.9292L152.39 67.3845C152.625 67.1503 152.848 66.98 153.061 66.8736C153.295 66.7671 153.508 66.7139 153.7 66.7139C154.04 66.7139 154.349 66.8523 154.626 67.129L156.191 68.7896C156.446 69.0877 156.574 69.3964 156.574 69.7157C156.574 70.1841 156.308 70.6099 155.775 70.9931L151.145 74.2504C151.571 75.1658 151.89 76.1664 152.103 77.2522C152.337 78.338 152.454 79.5302 152.454 80.8288C152.454 83.0004 152.178 84.8951 151.624 86.5131C151.07 88.1311 150.304 89.515 149.325 90.6646C148.367 91.8142 147.249 92.7616 145.972 93.5068C144.694 94.2519 143.321 94.8373 141.852 95.2631C140.404 95.6889 138.903 95.987 137.349 96.1573C135.795 96.3276 134.273 96.4128 132.783 96.4128ZM143.449 77.5715C143.342 77.4651 143.289 77.3054 143.289 77.0925C143.289 76.8371 143.385 76.6135 143.577 76.4219L145.62 74.3142C145.195 73.9949 144.726 73.7714 144.215 73.6436C143.726 73.5159 143.225 73.452 142.714 73.452C142.203 73.452 141.629 73.5372 140.99 73.7075C140.372 73.8565 139.776 74.1972 139.202 74.7294C138.648 75.2616 138.18 76.0387 137.796 77.0606C137.413 78.0612 137.222 79.4024 137.222 81.0843C137.222 82.7662 137.371 84.1181 137.669 85.14C137.988 86.1406 138.403 86.907 138.914 87.4392C139.425 87.9715 140.011 88.3228 140.671 88.4931C141.33 88.6634 142.012 88.7485 142.714 88.7485C143.374 88.7485 144.024 88.6421 144.662 88.4292C145.301 88.195 145.855 87.7905 146.323 87.2157C146.813 86.6196 147.206 85.8212 147.504 84.8206C147.803 83.7987 147.952 82.4894 147.952 80.8927C147.952 79.296 147.771 77.976 147.409 76.9329L145.269 78.4338C145.099 78.5402 144.928 78.5934 144.758 78.5934C144.481 78.5934 144.258 78.487 144.087 78.2741L143.449 77.5715ZM140 90.473C139.383 90.3878 138.744 90.1537 138.084 89.7704C137.445 89.3872 136.86 88.8231 136.327 88.0779C135.795 87.3115 135.359 86.3535 135.018 85.2038C134.678 84.0542 134.507 82.681 134.507 81.0843C134.507 79.4876 134.709 78.1251 135.114 76.9967C135.54 75.8471 136.04 74.9104 136.615 74.1865C137.19 73.4414 137.786 72.8879 138.403 72.5259C139.042 72.164 139.574 71.9405 140 71.8553C139.17 71.8553 138.286 72.0256 137.349 72.3663C136.413 72.6856 135.54 73.2178 134.731 73.963C133.943 74.6868 133.283 75.6342 132.751 76.8051C132.219 77.976 131.952 79.4024 131.952 81.0843C131.952 82.7662 132.176 84.2032 132.623 85.3954C133.091 86.5877 133.698 87.5563 134.443 88.3015C135.188 89.0466 136.04 89.6001 136.998 89.962C137.977 90.3027 138.978 90.473 140 90.473ZM142.203 101.426C142.885 102.129 143.417 102.959 143.8 103.917C144.183 104.875 144.375 105.972 144.375 107.207C144.375 107.739 144.343 108.186 144.279 108.548C144.215 108.91 144.162 109.197 144.119 109.41C144.567 109.474 145.014 109.655 145.461 109.953C145.908 110.251 146.216 110.538 146.387 110.815C146.514 110.538 146.632 110.081 146.738 109.442C146.866 108.803 146.93 108.058 146.93 107.207C146.93 105.631 146.504 104.322 145.652 103.279C144.822 102.235 143.672 101.618 142.203 101.426ZM158.139 71.3444C158.139 70.6205 158.202 69.9818 158.33 69.4283C158.458 68.8535 158.703 68.3851 159.065 68.0232C159.427 67.6613 159.927 67.3845 160.566 67.1929C161.204 67.0013 162.035 66.9055 163.056 66.9055H177.044C178.023 66.9055 178.811 67.0013 179.407 67.1929C180.024 67.3632 180.503 67.6293 180.844 67.9913C181.184 68.3532 181.408 68.8109 181.514 69.3644C181.621 69.918 181.674 70.5779 181.674 71.3444V95.2312C181.674 95.955 181.621 96.5937 181.514 97.1473C181.408 97.6795 181.184 98.1372 180.844 98.5204C180.503 98.8824 180.024 99.1591 179.407 99.3507C178.811 99.521 178.023 99.6062 177.044 99.6062H163.056C162.035 99.6062 161.204 99.5104 160.566 99.3188C159.927 99.1272 159.427 98.8504 159.065 98.4885C158.703 98.1266 158.458 97.6689 158.33 97.1153C158.202 96.5618 158.139 95.9125 158.139 95.1673V71.3444ZM159.32 53.2376C159.32 51.7686 159.597 50.3848 160.15 49.0862C160.725 47.7875 161.492 46.6592 162.45 45.7011C163.408 44.7431 164.536 43.9873 165.835 43.4338C167.133 42.859 168.517 42.5716 169.986 42.5716C171.434 42.5716 172.796 42.859 174.074 43.4338C175.372 43.9873 176.501 44.7431 177.459 45.7011C178.417 46.6592 179.173 47.7875 179.726 49.0862C180.301 50.3848 180.588 51.7686 180.588 53.2376C180.588 54.6853 180.301 56.0585 179.726 57.3571C179.173 58.6345 178.417 59.7522 177.459 60.7102C176.501 61.6683 175.372 62.4347 174.074 63.0095C172.796 63.563 171.434 63.8398 169.986 63.8398C168.517 63.8398 167.133 63.563 165.835 63.0095C164.536 62.4347 163.408 61.6683 162.45 60.7102C161.492 59.7522 160.725 58.6345 160.15 57.3571C159.597 56.0585 159.32 54.6853 159.32 53.2376ZM178.96 71.6318C178.96 71.1634 178.928 70.7908 178.864 70.5141C178.8 70.2373 178.672 70.0351 178.481 69.9073C178.289 69.7583 178.034 69.6731 177.714 69.6518C177.395 69.6093 176.98 69.588 176.469 69.588V96.9237C176.98 96.9237 177.395 96.9131 177.714 96.8918C178.034 96.8492 178.289 96.764 178.481 96.6363C178.672 96.4873 178.8 96.285 178.864 96.0296C178.928 95.7528 178.96 95.3696 178.96 94.8799V71.6318ZM175.255 53.2376C175.255 54.7279 174.957 56.133 174.361 57.4529C173.786 58.7729 172.999 59.9225 171.998 60.9018C172.85 60.689 173.627 60.3377 174.329 59.848C175.053 59.3584 175.67 58.7835 176.181 58.1236C176.714 57.4423 177.129 56.6865 177.427 55.8562C177.725 55.0259 177.874 54.1531 177.874 53.2376C177.874 52.3222 177.725 51.4493 177.427 50.619C177.129 49.7887 176.714 49.0436 176.181 48.3836C175.67 47.7023 175.053 47.1275 174.329 46.6592C173.627 46.1695 172.85 45.8076 171.998 45.5734C172.999 46.5527 173.786 47.7023 174.361 49.0223C174.957 50.3422 175.255 51.7474 175.255 53.2376ZM210.351 65.7878C211.714 65.7878 213.076 65.873 214.439 66.0433C215.801 66.1923 217.089 66.3945 218.303 66.65C219.538 66.9055 220.655 67.1929 221.656 67.5122C222.678 67.8103 223.508 68.1084 224.147 68.4064C224.253 68.449 224.36 68.5129 224.466 68.598C224.594 68.6832 224.658 68.8428 224.658 69.077C224.658 69.1409 224.647 69.2261 224.626 69.3325C224.604 69.4389 224.583 69.5454 224.562 69.6518L224.179 71.536C224.136 71.7914 224.072 71.9511 223.987 72.015C223.923 72.0576 223.859 72.0788 223.795 72.0788C223.689 72.0788 223.487 72.0469 223.189 71.983C222.891 71.9192 222.571 71.8872 222.231 71.8872C221.017 71.8872 220.059 72.2172 219.357 72.8772C218.654 73.5159 218.207 74.6442 218.015 76.2622L216.227 91.1756C216.057 92.4955 215.61 93.7303 214.886 94.8799C214.183 96.0296 213.161 97.0408 211.82 97.9137C210.479 98.7866 208.818 99.4678 206.838 99.9575C204.88 100.468 202.58 100.724 199.941 100.724C198.28 100.724 196.662 100.617 195.087 100.405C193.511 100.213 192.053 99.9681 190.712 99.6701C189.392 99.3933 188.231 99.1165 187.231 98.8398C186.251 98.5417 185.517 98.3075 185.027 98.1372C184.857 98.0946 184.729 98.0414 184.644 97.9776C184.538 97.8924 184.484 97.7647 184.484 97.5943C184.484 97.5092 184.495 97.4134 184.516 97.3069C184.538 97.2005 184.57 97.0727 184.612 96.9237L184.995 95.1354C185.038 94.9651 185.112 94.8267 185.219 94.7203C185.325 94.6138 185.517 94.5606 185.794 94.5606C186.496 94.5606 187.199 94.5287 187.901 94.4648C188.625 94.3796 189.285 94.1774 189.881 93.858C190.499 93.5387 191.031 93.049 191.478 92.3891C191.946 91.7291 192.266 90.803 192.436 89.6108L194.671 74.2184C194.906 72.6004 195.502 71.2486 196.46 70.1628C197.418 69.077 198.599 68.2148 200.004 67.5761C201.431 66.9161 203.038 66.4584 204.826 66.2029C206.615 65.9262 208.456 65.7878 210.351 65.7878ZM204.284 97.754C207.222 97.4134 209.446 96.5937 210.958 95.2951C212.491 93.9751 213.374 92.3358 213.608 90.3772L215.301 76.2622C215.493 74.6442 215.961 73.303 216.706 72.2385C217.472 71.174 218.516 70.5247 219.836 70.2905C218.643 70.2905 217.621 70.4502 216.77 70.7695C215.94 71.0889 215.237 71.5253 214.662 72.0788C214.087 72.6111 213.64 73.2391 213.321 73.963C213.023 74.6868 212.831 75.4532 212.746 76.2622L211.054 90.3772C210.947 91.2075 210.724 92.0058 210.383 92.7723C210.064 93.5387 209.627 94.2519 209.074 94.9119C208.52 95.5505 207.839 96.1254 207.03 96.6363C206.242 97.126 205.327 97.4985 204.284 97.754Z" fill="#333333"/>
<path d="M128.27 33.2222C127.732 33.4293 127.239 33.5645 126.791 33.6278C126.327 33.6973 125.91 33.6491 125.538 33.4834C125.166 33.3177 124.818 33.0247 124.494 32.6043C124.17 32.1839 123.863 31.5936 123.572 30.8334L119.596 20.4271C119.317 19.6985 119.165 19.085 119.138 18.5867C119.089 18.0786 119.15 17.6461 119.322 17.2891C119.495 16.9321 119.771 16.6349 120.152 16.3973C120.534 16.1597 121.009 15.9313 121.579 15.712L139.334 8.87776C139.872 8.67066 140.361 8.52752 140.803 8.44835C141.229 8.37526 141.633 8.41061 142.014 8.5544C142.38 8.70428 142.722 8.98147 143.04 9.38598C143.336 9.78075 143.623 10.3424 143.902 11.071L147.878 21.4773C148.169 22.2376 148.334 22.8827 148.373 23.4127C148.412 23.9427 148.348 24.3941 148.182 24.7669C148.016 25.1398 147.746 25.4529 147.37 25.7063C146.995 25.9597 146.531 26.193 145.977 26.4062L128.27 33.2222ZM114.475 37.5236C113.383 37.9439 112.276 38.1339 111.153 38.0937C110.025 38.0376 108.968 37.7902 107.984 37.3516C106.999 36.9129 106.117 36.2897 105.336 35.4819C104.54 34.6801 103.933 33.7328 103.515 32.6399C103.103 31.5629 102.93 30.4669 102.994 29.3521C103.036 28.2276 103.277 27.1719 103.717 26.185C104.157 25.1981 104.78 24.313 105.588 23.5296C106.39 22.7304 107.337 22.1207 108.429 21.7004C109.505 21.2862 110.607 21.1071 111.736 21.1632C112.843 21.2096 113.888 21.4521 114.873 21.8907C115.857 22.3294 116.748 22.9496 117.544 23.7513C118.319 24.5433 118.912 25.4778 119.323 26.5548C119.741 27.6477 119.929 28.7565 119.887 29.881C119.828 31.0117 119.58 32.0704 119.14 33.0573C118.7 34.0442 118.087 34.9342 117.301 35.7273C116.493 36.5107 115.551 37.1094 114.475 37.5236ZM122.564 17.6493C122.216 17.7833 121.948 17.9137 121.761 18.0404C121.573 18.1671 121.459 18.32 121.418 18.4991C121.362 18.6843 121.372 18.8987 121.446 19.1424C121.506 19.3921 121.608 19.7071 121.753 20.0872L142.071 12.2662C141.926 11.886 141.8 11.5802 141.694 11.3487C141.571 11.1233 141.435 10.9576 141.286 10.8516C141.121 10.7517 140.934 10.7145 140.726 10.7401C140.502 10.7718 140.208 10.8577 139.844 10.9977L122.564 17.6493ZM109.945 25.6681C111.053 25.2417 112.182 25.0614 113.332 25.1273C114.477 25.1773 115.555 25.4344 116.568 25.8986C116.167 25.326 115.685 24.8484 115.122 24.4658C114.552 24.0673 113.949 23.7725 113.313 23.5811C112.656 23.3801 111.976 23.2875 111.274 23.3033C110.572 23.3191 109.881 23.4579 109.201 23.7199C108.52 23.9818 107.914 24.3424 107.381 24.8017C106.849 25.261 106.413 25.783 106.074 26.3678C105.713 26.9429 105.461 27.5667 105.319 28.2392C105.154 28.902 105.106 29.5837 105.174 30.2843C105.618 29.2596 106.248 28.3447 107.066 27.5394C107.878 26.7182 108.837 26.0944 109.945 25.6681Z" fill="#333333"/>
<path d="M64.136 57.787C61.5461 61.8012 56.3572 62.9202 52.343 60.3303C48.3289 57.7404 47.2098 52.5514 49.7998 48.5373C52.3897 44.5231 57.5786 43.4041 61.5927 45.994C65.6069 48.584 66.7259 53.7729 64.136 57.787Z" fill="white"/>
</svg>
