<svg width="217" height="177" viewBox="0 0 217 177" fill="none" xmlns="http://www.w3.org/2000/svg">
<path d="M159.996 80.1406C159.996 80.1406 163.261 63.4239 173.251 56.6978L208.218 33.1565C216.211 27.7756 218.496 16.074 213.115 8.08148C207.734 0.089009 196.033 -2.19614 188.04 3.18473L153.073 26.726C143.083 33.4521 126.366 30.1876 126.366 30.1876L159.996 80.1406ZM143.28 76.8761L123.101 46.9043C123.101 46.9043 89.4709 -3.04862 39.5179 30.5818C-10.435 64.2123 -3.51185 117.627 13.3034 142.603C30.1186 167.58 77.0041 194.09 126.957 160.459C176.91 126.829 143.28 76.8761 143.28 76.8761Z" fill="white"/>
</svg>
